<svg version="1.0" xmlns="http://www.w3.org/2000/svg" width="544.223" height="218.889"><path fill="#FFF" d="M302.793 153.877c26.387-47.52 49.268 24.436 49.268 24.436-3.545-69.685 58.262 11.083 58.262 11.083-10.389-65.457 57.484 13.854 57.484 13.854-9.842-54.025 59.65-23.794 59.65-23.794-45.763-28.397-2.351-78.505-2.351-78.505-74.115 26.174-32.697-20.845-32.697-20.845-44.188 25.458-35.403-22.463-35.403-22.463-40.174 47.858-63.643-25.245-63.643-25.245-45.713 59.565-69.259-22.855-69.259-22.855C290.169 89.194 244.653 4 244.653 4c-21.786 65.064-65.39 24.486-65.39 24.486-6.926 68.57-63.804 19.394-63.804 19.394 4.387 53.917-65.023 0-65.023 0 57.278 54.396-43.634 51.234-43.634 51.234 81.099-3.099 20.501 102.752 20.501 102.752 60.589-84.614 75.737 5.192 75.737 5.192 8.561-95.274 55.912-13.508 55.912-13.508 0-48.417 36.766-57.275 41.868-17.357-6.595-51.597 36.773-47.865 48.896-16.735 9.02-19.221 23.549-57.934 53.077-5.581z"/><path fill="#F97000" d="M96.311 115.241c-1.6-2.982-2.397-4.478-4-7.463a336.508 336.508 0 0 0-7.432 4.094c5.188 9.188 7.782 13.78 12.973 22.969a348.331 348.331 0 0 1 4.359-2.422l2.104 3.85c-5.425 2.971-8.112 4.519-13.437 7.735-.909-1.498-1.363-2.253-2.272-3.749a329.045 329.045 0 0 1 4.213-2.513c-5.337-9.104-8.007-13.653-13.341-22.758a326.916 326.916 0 0 0-7.262 4.367c1.776 2.883 2.662 4.327 4.438 7.211a298.093 298.093 0 0 0-4.239 2.655c-2.755-4.344-4.134-6.514-6.887-10.853 11.471-7.285 17.33-10.652 29.238-16.843 2.371 4.562 3.552 6.848 5.924 11.408a365.631 365.631 0 0 0-4.379 2.312zM130.542 96.855c1.216 2.965 1.171 5.779-.079 8.473-1.254 2.686-4.243 5.056-8.978 7.252a328.186 328.186 0 0 0-4.636 2.163c1.559 3.287 2.335 4.937 3.896 8.224a282.528 282.528 0 0 1 4.479-2.089c.732 1.594 1.094 2.39 1.822 3.985-5.538 2.534-8.29 3.866-13.743 6.649-.795-1.564-1.193-2.343-1.992-3.905a312.473 312.473 0 0 1 4.252-2.134c-4.671-9.463-7.009-14.195-11.68-23.656-1.829.903-2.74 1.357-4.56 2.289l-1.996-3.903c5.491-2.804 8.258-4.148 13.831-6.722 3.761-1.736 6.919-2.705 9.442-2.967 2.526-.26 4.573.143 6.133 1.187 1.563 1.042 2.828 2.764 3.809 5.154zm-5.689 2.265c-.867-2.017-2.18-3.199-3.949-3.537-1.771-.338-4.321.227-7.61 1.744-1.544.71-2.312 1.067-3.85 1.796 2.234 4.71 3.351 7.068 5.584 11.781a316.75 316.75 0 0 1 3.341-1.563c2.199-1.017 3.88-1.983 5.04-2.936 1.162-.945 1.862-1.999 2.104-3.16.238-1.164.02-2.539-.66-4.125zM159.008 85.846c-.716-2.24-1.077-3.361-1.795-5.598-6.572 2.102-9.838 3.229-16.331 5.631 1.454 3.928 2.179 5.896 3.632 9.823 5.496-2.034 8.258-2.997 13.812-4.812.545 1.67.819 2.504 1.362 4.172-5.487 1.792-8.218 2.742-13.648 4.754 1.6 4.319 2.398 6.485 3.998 10.808 6.051-2.237 9.099-3.287 15.222-5.25-.784-2.442-1.172-3.666-1.954-6.112a372.92 372.92 0 0 1 4.499-1.409c1.263 4.135 1.892 6.2 3.156 10.334-11.786 3.605-17.624 5.664-29.135 10.316-.657-1.627-.989-2.439-1.646-4.064a286.772 286.772 0 0 1 4.521-1.791c-3.819-9.839-5.728-14.755-9.546-24.596a400.516 400.516 0 0 0-4.851 1.923c-.655-1.626-.987-2.439-1.642-4.067 12.647-5.108 19.061-7.379 32.014-11.339l3.004 9.813c-1.872.576-2.807.868-4.672 1.464zM175.534 74.879c2.717 10.191 4.074 15.294 6.793 25.492 1.669-.447 2.51-.66 4.182-1.086.434 1.698.646 2.548 1.078 4.249-5.609 1.42-8.401 2.189-13.964 3.842l-1.25-4.202c1.794-.527 2.691-.794 4.49-1.305-2.879-10.152-4.314-15.229-7.19-25.383-1.933.553-2.896.83-4.82 1.403l-1.25-4.205c6.316-1.877 9.488-2.751 15.862-4.356.431 1.698.646 2.55 1.072 4.253-2.002.508-3.004.767-5.003 1.298zm19.389-4.629c-3.845 5.808-5.688 8.74-9.196 14.639 6.16 4.317 9.161 6.54 14.982 11.101a403.41 403.41 0 0 1 3.906-.801c.344 1.724.515 2.58.854 4.299-5.869 1.171-8.797 1.818-14.627 3.24a915.484 915.484 0 0 0-1.037-4.264c1.603-.389 2.401-.58 4.006-.949-5.641-4.439-8.539-6.609-14.492-10.827 3.394-6.021 5.175-9.017 8.903-14.959-1.805.417-2.707.63-4.508 1.065-.415-1.703-.619-2.556-1.034-4.258 6.194-1.505 9.303-2.197 15.543-3.445.346 1.716.518 2.581.862 4.298-1.665.337-2.499.51-4.162.861zM227.318 64.666c5.606 9.998 8.264 15.043 13.289 25.218 1.651-.158 2.479-.233 4.127-.372.149 1.748.226 2.619.374 4.363-5.77.489-8.65.793-14.399 1.517-.221-1.741-.328-2.605-.549-4.351 1.93-.24 2.895-.354 4.828-.57-4.962-10.141-7.583-15.176-13.091-25.138-.072.011-.104.017-.18.025-2.619 11.096-3.789 16.652-5.836 27.771 1.863-.31 2.795-.461 4.66-.748.268 1.738.397 2.602.663 4.334-5.771.883-8.651 1.385-14.389 2.508-.338-1.723-.505-2.58-.844-4.302 1.77-.347 2.654-.513 4.426-.837 2.045-11.156 3.22-16.739 5.863-27.877-1.898.29-2.846.441-4.742.758-.279-1.679-.42-2.513-.697-4.188 8.288-1.378 12.447-1.957 20.787-2.89.19 1.688.286 2.53.478 4.218-1.908.214-2.863.328-4.768.561zM284.276 75.043c-.09 3.574-1.025 6.727-2.76 9.483-1.731 2.752-4.057 4.877-6.977 6.398-2.919 1.52-6.193 2.312-9.89 2.424-3.646.107-6.907-.529-9.85-1.94-2.943-1.414-5.326-3.436-7.154-6.099-1.829-2.663-2.913-5.723-3.199-9.213-.283-3.459.312-6.611 1.842-9.458 1.527-2.843 3.797-5.135 6.815-6.839 3.018-1.706 6.544-2.639 10.526-2.756 4.141-.122 7.836.626 11.016 2.199 3.176 1.573 5.603 3.765 7.274 6.529 1.672 2.772 2.438 5.868 2.357 9.272zm-19.544 13.613c2.548-.073 4.807-.743 6.803-2.021a13.437 13.437 0 0 0 4.684-5.034 14.058 14.058 0 0 0 1.721-6.657c.02-2.412-.568-4.655-1.789-6.718-1.217-2.062-2.916-3.688-5.108-4.852-2.189-1.169-4.678-1.72-7.431-1.639-2.7.081-5.065.76-7.083 2.016-2.018 1.255-3.522 2.947-4.517 5.046-.994 2.1-1.397 4.397-1.234 6.881.172 2.637.874 4.952 2.077 6.955a11.966 11.966 0 0 0 4.884 4.564c2.047 1.057 4.367 1.534 6.993 1.459zM299.321 62.6c-.655 10.527-.984 15.801-1.643 26.335 1.704.104 2.565.157 4.275.284-.131 1.753-.2 2.628-.33 4.375-5.736-.429-8.601-.586-14.344-.777.061-1.754.088-2.627.15-4.382 1.849.065 2.77.104 4.622.188.496-10.537.748-15.811 1.238-26.349a304.309 304.309 0 0 0-4.966-.204c.058-1.751.086-2.628.146-4.383 6.527.222 9.786.402 16.297.896-.128 1.75-.192 2.623-.329 4.373a316.51 316.51 0 0 0-5.116-.356zm19.747 1.745c-5.469 4.294-8.137 6.495-13.306 10.976 4.442 6.045 6.566 9.105 10.629 15.274 1.581.181 2.369.272 3.946.476-.221 1.738-.332 2.604-.55 4.343-5.926-.747-8.89-1.056-14.834-1.554.146-1.75.224-2.621.361-4.371 1.635.14 2.449.215 4.08.364-3.918-5.993-5.965-8.97-10.24-14.851 5.094-4.638 7.724-6.915 13.121-11.37a305.753 305.753 0 0 0-4.592-.415c.148-1.747.221-2.627.37-4.373 6.315.533 9.479.863 15.775 1.65-.222 1.74-.332 2.61-.55 4.351-1.68-.208-2.524-.308-4.21-.5zM354.55 76.678c-.666 3.133-2.287 5.439-4.808 6.952-2.521 1.517-6.271 1.792-11.323.948a256.754 256.754 0 0 0-4.952-.822c-.572 3.59-.864 5.389-1.438 8.979 1.91.31 2.866.466 4.776.8l-.75 4.315c-5.891-1.024-8.844-1.471-14.763-2.24.226-1.742.338-2.608.562-4.352 1.842.242 2.763.367 4.601.632 1.504-10.446 2.259-15.665 3.762-26.112-1.974-.28-2.96-.418-4.937-.675.23-1.743.333-2.609.562-4.348 5.961.776 8.945 1.223 14.881 2.231 4.003.679 7.114 1.654 9.304 2.86 2.197 1.204 3.625 2.688 4.313 4.426.685 1.744.75 3.883.21 6.406zm-5.888-1.328c.427-2.154.025-3.869-1.223-5.144-1.246-1.275-3.633-2.243-7.136-2.842a370.004 370.004 0 0 0-4.108-.681c-.818 5.152-1.232 7.727-2.062 12.878 1.43.226 2.145.342 3.569.588 2.341.396 4.247.539 5.714.409 1.474-.135 2.627-.608 3.476-1.431.842-.827 1.437-2.084 1.77-3.777zM395.802 94.925c-1.158 3.388-3.014 6.108-5.506 8.21-2.502 2.1-5.381 3.42-8.646 3.992-3.27.567-6.665.342-10.253-.668-3.537-.996-6.483-2.586-8.89-4.816-2.401-2.229-4.085-4.879-5.041-7.965-.957-3.083-1.078-6.334-.31-9.746.759-3.386 2.272-6.219 4.588-8.476 2.318-2.255 5.186-3.764 8.6-4.485 3.403-.72 7.074-.547 10.939.539 4.024 1.133 7.362 2.959 9.957 5.422 2.596 2.463 4.278 5.295 5.063 8.438.786 3.146.594 6.333-.501 9.555zm-22.922 7.08c2.473.697 4.848.741 7.158.122 2.313-.615 4.321-1.738 6.02-3.385 1.705-1.646 2.937-3.582 3.656-5.837.744-2.291.846-4.61.289-6.947-.562-2.335-1.709-4.401-3.472-6.18-1.764-1.773-4-3.047-6.668-3.801-2.627-.738-5.104-.8-7.418-.208-2.313.595-4.265 1.755-5.844 3.461-1.588 1.71-2.664 3.778-3.253 6.196-.624 2.57-.638 4.987-.08 7.26a12.018 12.018 0 0 0 3.32 5.823c1.66 1.624 3.738 2.779 6.292 3.496zM436.612 96.575c.642-1.404.969-2.113 1.615-3.521 1.908.877 2.859 1.32 4.754 2.223-1.938 4.07-2.895 6.104-4.822 10.177a294.57 294.57 0 0 0-4.727-2.2 13.465 13.465 0 0 0-2.783-7.032c-1.606-2.086-3.707-3.679-6.262-4.746-2.467-1.033-4.918-1.365-7.31-1.001-2.393.365-4.489 1.306-6.299 2.806-1.807 1.496-3.112 3.355-3.94 5.557-.853 2.271-1.093 4.576-.73 6.906a13.77 13.77 0 0 0 2.668 6.316c1.416 1.886 3.244 3.295 5.519 4.243 2.788 1.165 5.577 1.446 8.426.837 2.838-.617 5.428-2.111 7.76-4.514a317.755 317.755 0 0 1 3.469 4.267c-2.903 2.955-6.303 4.694-10.196 5.286-3.896.594-7.816.034-11.869-1.652-3.334-1.391-6.006-3.323-8.054-5.856-2.049-2.524-3.356-5.336-3.913-8.459-.556-3.122-.312-6.23.79-9.325 1.203-3.349 3.056-6.063 5.617-8.094 2.558-2.033 5.552-3.229 8.968-3.548 3.409-.328 6.981.268 10.657 1.802 2.47 1.028 4.588 2.354 6.349 3.96a20.724 20.724 0 0 1 4.313 5.568zM477.212 118.213a1533.29 1533.29 0 0 0 2.022-3.31 405.098 405.098 0 0 1 4.535 2.814c-2.402 3.816-3.605 5.718-6.01 9.53a338.835 338.835 0 0 0-4.49-2.788c.041-2.617-.631-5.076-2.008-7.355-1.375-2.278-3.297-4.12-5.74-5.503-2.367-1.339-4.787-1.969-7.229-1.902-2.445.065-4.66.743-6.646 2.014a12.952 12.952 0 0 0-4.582 5.043 13.352 13.352 0 0 0-1.52 6.777c.088 2.364.746 4.568 1.955 6.618 1.211 2.055 2.889 3.685 5.057 4.914 2.676 1.513 5.447 2.14 8.373 1.881 2.928-.254 5.69-1.419 8.303-3.52 1.228 1.871 1.822 2.808 3.014 4.688-3.254 2.577-6.86 3.888-10.85 3.984-3.982.103-7.857-.945-11.734-3.131-3.192-1.797-5.653-4.054-7.414-6.82-1.771-2.772-2.766-5.731-2.971-8.91-.203-3.178.398-6.233 1.855-9.176 1.584-3.188 3.752-5.664 6.547-7.372 2.803-1.704 5.945-2.525 9.408-2.429 3.455.099 6.975 1.135 10.491 3.119 2.363 1.336 4.347 2.919 5.929 4.738a21.05 21.05 0 0 1 3.705 6.096z"/><g fill="#F97000"><path d="M244.528 120.687c-.64.32-2.08.663-3.955.663-5.326 0-8.069-3.314-8.069-7.703 0-5.257 3.749-8.183 8.412-8.183 1.806 0 3.177.365 3.794.686l-.708 2.766a7.523 7.523 0 0 0-2.926-.571c-2.766 0-4.915 1.669-4.915 5.098 0 3.085 1.829 5.028 4.938 5.028 1.051 0 2.217-.229 2.903-.503l.526 2.719zM255.978 114.607h-5.668v3.657h6.332v2.857h-9.829v-15.406h9.509v2.857h-6.012v3.2h5.668v2.835zM259.018 105.921c1.074-.183 2.583-.32 4.708-.32 2.148 0 3.68.411 4.708 1.234.983.777 1.646 2.058 1.646 3.565 0 1.509-.503 2.789-1.417 3.657-1.188 1.12-2.948 1.623-5.005 1.623-.458 0-.869-.022-1.189-.068v5.509h-3.451v-15.2zm3.451 6.994c.297.068.663.092 1.166.092 1.852 0 2.994-.938 2.994-2.515 0-1.417-.983-2.263-2.72-2.263-.709 0-1.189.068-1.44.137v4.549zM275.497 105.715v4.571c0 2.469-.046 4.915-.183 6.972h.092c.8-1.806 1.828-3.84 2.742-5.485l3.314-6.058h3.566v15.406h-3.201v-4.549c0-2.377.047-4.479.252-6.491h-.068a45.044 45.044 0 0 1-2.605 5.485l-3.132 5.555h-3.977v-15.406h3.2zM286.742 121.121c.32-.503.572-1.098.777-1.737.617-1.76.982-3.565 2.148-4.686.344-.343.801-.595 1.28-.8v-.069c-1.714-.319-3.245-1.508-3.245-3.748 0-1.44.639-2.537 1.6-3.269 1.188-.915 3.062-1.212 5.028-1.212 1.691 0 3.314.138 4.435.32v15.2h-3.451v-6.058h-.846c-.686 0-1.234.206-1.646.595-.982.938-1.371 2.902-1.828 4.16-.16.457-.274.822-.549 1.303h-3.703zm8.573-12.8c-.252-.045-.709-.137-1.418-.137-1.508 0-2.72.64-2.72 2.217 0 1.418 1.303 2.172 2.88 2.172.457 0 .938-.022 1.258-.068v-4.184z"/></g><text transform="translate(236.334 201.938)" fill="#FFF" font-family="'Michroma'" font-size="19.847">2019</text><g fill="none" stroke="#FFF" stroke-width="2"><path d="M237.574 200.077c0-.388.01-.773.029-1.158s.063-.753.131-1.104c.068-.353.168-.684.3-.994a2.633 2.633 0 0 1 1.4-1.404c.342-.155.756-.256 1.24-.301l9.923-.931c.311-.025.582-.07.814-.135.232-.065.424-.189.577-.374.151-.184.266-.453.344-.809s.116-.843.116-1.464c0-.517-.039-.952-.116-1.308s-.207-.649-.388-.882a1.708 1.708 0 0 0-.731-.533 4.674 4.674 0 0 0-1.148-.271 14.855 14.855 0 0 0-1.628-.102 138.74 138.74 0 0 0-2.181-.015c-1.137 0-2.095.021-2.873.062-.779.042-1.421.118-1.929.229-.507.109-.896.258-1.168.445-.271.188-.47.432-.596.731a3.26 3.26 0 0 0-.223 1.081c-.022.42-.034.914-.034 1.482h-1.861c0-.931.086-1.714.257-2.35.171-.637.423-1.162.756-1.575a3.381 3.381 0 0 1 1.236-.959 6.492 6.492 0 0 1 1.701-.495c.643-.103 1.36-.162 2.151-.179s1.652-.024 2.583-.024c.929 0 1.773.015 2.531.044s1.436.095 2.033.198c.597.104 1.114.256 1.553.456s.802.473 1.089.818.5.773.639 1.284.208 1.127.208 1.851c0 .62-.045 1.184-.135 1.69-.09.507-.251.947-.483 1.322a2.592 2.592 0 0 1-.947.9c-.4.227-.908.368-1.527.427l-9.923.93c-.472.045-.833.133-1.085.262-.252.13-.436.335-.552.616-.116.281-.183.651-.198 1.11a48.906 48.906 0 0 0-.024 1.735h14.575v1.551h-16.436v-1.857zM267.354 186.742c1.137 0 2.095.069 2.873.208.778.14 1.42.35 1.924.63.503.281.892.635 1.163 1.062.271.427.47.927.597 1.502.125.575.199 1.225.223 1.948.022.724.033 1.524.033 2.403s-.011 1.68-.033 2.403a10.804 10.804 0 0 1-.223 1.947 4.632 4.632 0 0 1-.597 1.503c-.271.426-.659.779-1.163 1.061-.504.281-1.146.491-1.924.63s-1.736.209-2.873.209h-3.731c-1.137 0-2.095-.07-2.874-.209-.779-.139-1.42-.349-1.924-.63s-.893-.635-1.167-1.061a4.548 4.548 0 0 1-.601-1.503 10.404 10.404 0 0 1-.218-1.947c-.02-.724-.029-1.524-.029-2.403s.01-1.68.029-2.403c.019-.724.092-1.373.218-1.948s.326-1.075.601-1.502c.274-.427.664-.78 1.167-1.062.504-.28 1.145-.49 1.924-.63.778-.139 1.736-.208 2.874-.208h3.731zm0 13.956c.827 0 1.521-.024 2.083-.073.562-.048 1.027-.146 1.396-.295.368-.148.652-.362.853-.64.2-.278.346-.646.436-1.104.09-.459.144-1.022.16-1.691.016-.669.024-1.469.024-2.398 0-.931-.008-1.729-.024-2.398-.017-.669-.07-1.232-.16-1.691s-.236-.827-.436-1.104-.483-.491-.848-.64c-.365-.148-.83-.247-1.395-.296a25.33 25.33 0 0 0-2.088-.072h-3.731c-.827 0-1.523.024-2.088.072-.565.049-1.032.147-1.4.296s-.653.362-.853.64-.346.646-.436 1.104-.142 1.022-.155 1.691c-.013.669-.02 1.468-.02 2.398 0 .93.008 1.729.024 2.398s.069 1.232.16 1.691c.09.458.234.826.431 1.104.197.277.48.491.848.64s.835.247 1.4.295c.565.049 1.261.073 2.088.073h3.731zM281.299 187.053h2.48v14.885h-1.86V188.6l-4.341 3.725-.932-1.24 4.653-4.032zM294.944 200.698c1.002 0 1.85-.017 2.544-.049s1.271-.108 1.729-.228.817-.299 1.076-.538c.258-.238.45-.565.576-.979s.203-.929.232-1.546c.029-.616.044-1.364.044-2.243-.504.304-1.157.534-1.958.692-.801.159-1.802.238-3.004.238h-3.11c-1.396 0-2.536-.098-3.421-.291-.885-.194-1.578-.484-2.078-.872a2.941 2.941 0 0 1-1.033-1.454c-.188-.581-.281-1.26-.281-2.035s.094-1.453.281-2.035a2.95 2.95 0 0 1 1.033-1.453c.5-.388 1.193-.679 2.078-.872.885-.194 2.025-.291 3.421-.291h3.11c1.137 0 2.096.069 2.873.208.779.14 1.422.35 1.93.63.506.281.896.635 1.167 1.062s.47.927.597 1.502c.125.575.199 1.225.223 1.948a83.056 83.056 0 0 1-.006 4.918c-.025.746-.112 1.405-.262 1.977a4.01 4.01 0 0 1-.707 1.479c-.322.413-.783.751-1.381 1.013s-1.356.455-2.277.581c-.92.126-2.053.189-3.396.189-1.137 0-2.125-.043-2.965-.126-.84-.085-1.559-.21-2.156-.378s-1.088-.375-1.469-.621c-.381-.245-.68-.529-.896-.853s-.365-.682-.445-1.075a6.416 6.416 0 0 1-.121-1.289h1.541c0 .259.02.507.058.746.039.239.124.462.257.669.133.206.338.394.615.562s.658.313 1.139.437c.481.123 1.084.217 1.808.281s1.6.096 2.634.096zm1.24-6.203c1.015 0 1.845-.022 2.49-.068.646-.045 1.152-.151 1.518-.319s.615-.417.75-.746c.137-.33.204-.778.204-1.348 0-.774-.067-1.404-.204-1.89-.135-.484-.385-.862-.75-1.134s-.871-.455-1.518-.552c-.646-.098-1.476-.146-2.49-.146h-3.11c-.724 0-1.349.02-1.876.058a8.24 8.24 0 0 0-1.337.194c-.364.091-.662.213-.892.368a1.673 1.673 0 0 0-.533.576 2.36 2.36 0 0 0-.252.814 8.494 8.494 0 0 0-.062 1.09c0 .414.022.777.068 1.091.045.313.131.585.256.813.127.229.303.422.528.577s.523.277.892.368c.369.091.814.155 1.338.193a25.59 25.59 0 0 0 1.87.059h3.11z"/></g></svg>