<?xml version="1.0" encoding="utf-8"?>
<!-- Generator: Adobe Illustrator 16.0.0, SVG Export Plug-In . SVG Version: 6.00 Build 0)  -->
<!DOCTYPE svg PUBLIC "-//W3C//DTD SVG 1.0//EN" "http://www.w3.org/TR/2001/REC-SVG-20010904/DTD/svg10.dtd">
<svg version="1.0" xmlns="http://www.w3.org/2000/svg" xmlns:xlink="http://www.w3.org/1999/xlink" x="0px" y="0px"
	 width="208.165px" height="209.167px" viewBox="0 0 208.165 209.167" enable-background="new 0 0 208.165 209.167"
	 xml:space="preserve">
<g id="Layer_1">
	<g>
		<path fill="#FFFFFF" d="M107.249,42.176c-0.233,0-0.433,0-0.6,0c2.7,2.033,4.167,5.333,4.4,9.899l0.25,4.45
			c14.699-0.333,27.933,0.884,39.699,3.65l-1.449-15.7C135.483,42.542,121.383,41.775,107.249,42.176z"/>
		<path fill="#FFFFFF" d="M111.3,56.525v18h2.199h1.75l3.15,6.75h11.9h16.199l1.2,16.15l-11,14.45H124.3h-9.2v34.449l10.45,11.9
			l31.949-27l-0.1-2.05l-6.4-69C139.233,57.409,125.999,56.192,111.3,56.525z M127.499,145.975c-0.666,0.566-1.399,0.85-2.199,0.85
			c-0.9,0-1.65-0.283-2.25-0.85c-0.634-0.667-0.95-1.417-0.95-2.25c0-0.866,0.316-1.6,0.95-2.2c0.6-0.633,1.35-0.95,2.25-0.95
			c0.8,0,1.533,0.317,2.199,0.95c0.567,0.601,0.851,1.334,0.851,2.2C128.35,144.558,128.067,145.308,127.499,145.975z
			 M127.85,123.025c-0.567,0.667-1.3,1-2.2,1s-1.634-0.333-2.2-1c-0.566-0.566-0.85-1.3-0.85-2.2c0-0.899,0.283-1.633,0.85-2.199
			c0.566-0.567,1.3-0.851,2.2-0.851s1.633,0.283,2.2,0.851c0.666,0.566,1,1.3,1,2.199
			C128.85,121.725,128.516,122.459,127.85,123.025z M138.249,135.525c-0.566,0.667-1.3,1-2.199,1c-0.9,0-1.634-0.333-2.2-1
			c-0.567-0.566-0.851-1.3-0.851-2.2c0-0.8,0.283-1.533,0.851-2.199c0.566-0.567,1.3-0.851,2.2-0.851
			c0.899,0,1.633,0.283,2.199,0.851c0.667,0.666,1,1.399,1,2.199C139.249,134.225,138.916,134.959,138.249,135.525z
			 M148.949,126.126c-0.6,0.566-1.35,0.85-2.25,0.85c-0.866,0-1.6-0.283-2.2-0.85c-0.633-0.667-0.949-1.45-0.949-2.351
			c0-0.833,0.316-1.566,0.949-2.2c0.601-0.566,1.334-0.85,2.2-0.85c0.9,0,1.65,0.283,2.25,0.85c0.566,0.634,0.851,1.367,0.851,2.2
			C149.8,124.676,149.516,125.459,148.949,126.126z M142.949,111.376c0.733-3.267,2.851-4.4,6.351-3.4
			C145.8,106.975,143.683,108.109,142.949,111.376z M142.55,62.876c-2.867,4.666-1.634,8.267,3.699,10.8
			C140.916,71.142,139.683,67.542,142.55,62.876z M141.699,76.475c-2.934-4.667-6.616-5.65-11.05-2.95
			C135.083,70.825,138.766,71.808,141.699,76.475z M137.05,62.275c0.566,4.733-2.167,6.65-8.2,5.75
			C134.883,68.926,137.616,67.009,137.05,62.275z M122.1,77.075l-2.7-4.399L122.1,77.075z"/>
		<path fill="#FFFFFF" d="M89.85,55.176c0.433-5.667,1.75-9.767,3.95-12.3c-3.268,0.267-6.5,0.6-9.7,1
			c-11.667,1.3-23.351,3.467-35.05,6.5v16.149c13.5-4.8,27.1-7.7,40.8-8.7V55.176z M86.55,54.075c0.469-3.824,1.186-6.524,2.149-8.1
			C87.736,47.551,87.019,50.251,86.55,54.075z"/>
		<path fill="#FFFFFF" d="M115.1,111.876h-9.2H92.05v34.3l-8.301,15.45l20.801,14.1l21-17.5l-10.45-11.9V111.876z M101.249,120.475
			c0.667-0.566,1.4-0.85,2.2-0.85c0.9,0,1.634,0.283,2.2,0.85c0.667,0.566,1,1.3,1,2.2c0,0.899-0.333,1.633-1,2.2
			c-0.566,0.566-1.3,0.85-2.2,0.85c-0.8,0-1.533-0.283-2.2-0.85c-0.566-0.567-0.85-1.301-0.85-2.2
			C100.4,121.775,100.683,121.042,101.249,120.475z M105.9,147.426c-0.634,0.566-1.367,0.85-2.2,0.85c-0.899,0-1.633-0.283-2.2-0.85
			c-0.633-0.566-0.949-1.3-0.949-2.2s0.316-1.633,0.949-2.2c0.567-0.566,1.301-0.85,2.2-0.85c0.833,0,1.566,0.283,2.2,0.85
			c0.6,0.567,0.9,1.3,0.9,2.2S106.499,146.859,105.9,147.426z M116.6,161.376c1.8-3.733,0.767-7-3.101-9.801
			C117.366,154.376,118.4,157.642,116.6,161.376z"/>
		<path fill="#FFFFFF" d="M93.8,42.876c1.466-1.767,3.383-2.783,5.75-3.051c2.933,0.268,5.3,1.051,7.1,2.351c0.167,0,0.366,0,0.6,0
			c14.134-0.4,28.233,0.366,42.301,2.3l7.35-11c-36.6-10.533-75.767-8.333-117.5,6.6l9.65,10.301c11.699-3.033,23.383-5.2,35.05-6.5
			C87.3,43.475,90.532,43.142,93.8,42.876z M128.85,34.325c0.467-0.399,1-0.6,1.6-0.6c0.634,0,1.15,0.2,1.55,0.6
			c0.434,0.5,0.65,1.034,0.65,1.601c0,0.633-0.217,1.116-0.65,1.45c-0.399,0.5-0.916,0.75-1.55,0.75c-0.6,0-1.133-0.25-1.6-0.75
			c-0.434-0.334-0.65-0.817-0.65-1.45C128.199,35.359,128.416,34.825,128.85,34.325z M97.699,32.225c0.5-0.4,1.033-0.6,1.601-0.6
			c0.666,0,1.199,0.199,1.6,0.6c0.4,0.5,0.6,1.033,0.6,1.6c0,0.667-0.199,1.167-0.6,1.5c-0.4,0.467-0.934,0.7-1.6,0.7
			c-0.567,0-1.101-0.233-1.601-0.7c-0.399-0.333-0.6-0.833-0.6-1.5C97.1,33.259,97.3,32.725,97.699,32.225z M68.05,41.926
			c-0.4,0.399-0.884,0.6-1.45,0.6c-0.567,0-1.101-0.2-1.601-0.6c-0.399-0.4-0.6-0.934-0.6-1.601c0-0.566,0.2-1.1,0.6-1.6
			c0.5-0.4,1.033-0.6,1.601-0.6c0.566,0,1.05,0.199,1.45,0.6c0.5,0.5,0.75,1.033,0.75,1.6C68.8,40.992,68.55,41.525,68.05,41.926z"
			/>
		<polygon fill="#FFFFFF" points="115.1,111.876 124.3,111.876 136.699,111.876 147.699,97.426 146.499,81.275 130.3,81.275 
			118.4,81.275 115.249,74.525 113.499,74.525 111.3,74.525 94.3,74.525 89.85,74.525 85.699,74.525 81.9,81.475 70.999,81.475 
			55.55,81.475 55.55,101.975 67.949,111.876 83.749,111.876 92.05,111.876 105.9,111.876 		"/>
		<path fill="#FFFFFF" d="M12.3,157.725l37.85-1.7c-4.233-4.5-8.033-9.416-11.4-14.75L12.3,157.725z"/>
		<path fill="#FFFFFF" d="M111.3,74.525v-18l-0.25-4.45c-0.233-4.566-1.7-7.866-4.4-9.899c-1.8-1.3-4.167-2.083-7.1-2.351
			c-2.367,0.268-4.284,1.284-5.75,3.051c-2.2,2.533-3.518,6.633-3.95,12.3v2.649v16.7h4.45H111.3z M97.85,55.775
			c0.633-0.566,1.366-0.85,2.2-0.85c0.899,0,1.633,0.283,2.199,0.85c0.634,0.567,0.95,1.3,0.95,2.2s-0.316,1.634-0.95,2.2
			c-0.566,0.566-1.3,0.85-2.199,0.85c-0.834,0-1.567-0.283-2.2-0.85c-0.601-0.566-0.9-1.3-0.9-2.2S97.249,56.343,97.85,55.775z"/>
		<path fill="#FFFFFF" d="M160.55,128.575l-3.15,0.601l0.1,2.05l-31.949,27l-21,17.5l-20.801-14.1l-37.25-28.4l0.101-2.2l-5.15,0.2
			l-2.7,10.05c3.367,5.334,7.167,10.25,11.4,14.75c13.9,14.934,32.417,28.65,55.55,41.15c20.9-14.934,38.7-30.7,53.4-47.3
			c2.7-3.101,5.316-6.283,7.85-9.551L160.55,128.575z M44.9,138.126l8.35,7.35L44.9,138.126z M159.1,143.876
			c2.933-2.301,2.933-5.25,0-8.851C162.032,138.626,162.032,141.575,159.1,143.876z"/>
		<path fill="#FFFFFF" d="M83.749,161.626l8.301-15.45v-34.3h-8.301h-15.8l-12.399-9.9v-20.5h15.449h10.9l3.8-6.95h4.15v-16.7
			c-13.7,1-27.3,3.9-40.8,8.7l-2.45,64.5l-0.101,2.2L83.749,161.626z M81.9,73.676l-2.95,3.399L81.9,73.676z M84.1,145.075
			c0,0.9-0.317,1.65-0.95,2.25c-0.667,0.634-1.417,0.95-2.25,0.95c-0.9,0-1.667-0.316-2.3-0.95c-0.667-0.6-1-1.35-1-2.25
			c0-0.899,0.333-1.666,1-2.3c0.633-0.566,1.399-0.85,2.3-0.85c0.833,0,1.583,0.283,2.25,0.85
			C83.782,143.409,84.1,144.176,84.1,145.075z M76.4,118.975c0.633-0.633,1.4-0.95,2.3-0.95c1,0,1.783,0.317,2.351,0.95
			c0.633,0.667,0.949,1.45,0.949,2.35c0,0.967-0.316,1.75-0.949,2.351c-0.567,0.633-1.351,0.95-2.351,0.95
			c-0.899,0-1.667-0.317-2.3-0.95c-0.667-0.601-1-1.384-1-2.351C75.4,120.426,75.733,119.642,76.4,118.975z M81.3,127.825
			c-3.2,1.801-5.784,1.15-7.75-1.949C75.516,128.975,78.1,129.626,81.3,127.825z M66.35,132.475c0.633-0.667,1.366-1,2.2-1
			c0.899,0,1.633,0.333,2.199,1c0.667,0.566,1,1.3,1,2.2c0,0.899-0.333,1.633-1,2.2c-0.566,0.566-1.3,0.85-2.199,0.85
			c-0.834,0-1.567-0.283-2.2-0.85c-0.567-0.567-0.851-1.301-0.851-2.2C65.499,133.775,65.782,133.042,66.35,132.475z
			 M63.499,114.575c-1.3-3.333-3.666-4.316-7.1-2.949C59.833,110.259,62.199,111.242,63.499,114.575z M54.6,122.426
			c0.566-0.566,1.3-0.851,2.2-0.851c0.8,0,1.533,0.284,2.199,0.851c0.567,0.667,0.851,1.399,0.851,2.2
			c0,0.899-0.283,1.683-0.851,2.35c-0.666,0.566-1.399,0.85-2.199,0.85c-0.9,0-1.634-0.283-2.2-0.85c-0.667-0.667-1-1.45-1-2.35
			C53.6,123.825,53.933,123.093,54.6,122.426z"/>
		<path fill="#FFFFFF" d="M166.949,140.325c-2.533,3.268-5.149,6.45-7.85,9.551h40.2L166.949,140.325z"/>
		<line fill="#FFFFFF" x1="67.949" y1="111.876" x2="83.749" y2="111.876"/>
		<line fill="#FFFFFF" x1="30.55" y1="86.176" x2="30.55" y2="82.475"/>
		<path fill="#FFFFFF" d="M81.3,127.825c-3.2,1.801-5.784,1.15-7.75-1.949"/>
		<line fill="#FFFFFF" x1="105.9" y1="111.876" x2="115.1" y2="111.876"/>
		<line fill="#FFFFFF" x1="115.1" y1="111.876" x2="124.3" y2="111.876"/>
		<polyline fill="#FFFFFF" points="113.499,74.525 115.249,74.525 118.4,81.275 130.3,81.275 		"/>
		<polyline fill="#FFFFFF" points="92.05,111.876 92.05,146.176 83.749,161.626 		"/>
		<path fill="#FFFFFF" d="M116.6,161.376c1.8-3.733,0.767-7-3.101-9.801"/>
		<line fill="#FFFFFF" x1="30.55" y1="82.475" x2="30.55" y2="76.475"/>
		<line fill="#FFFFFF" x1="32.999" y1="82.475" x2="30.55" y2="82.475"/>
		<line fill="#FFFFFF" x1="36.449" y1="64.575" x2="36.449" y2="71.075"/>
		<line fill="#FFFFFF" x1="27.749" y1="140.325" x2="21.85" y2="143.126"/>
		<line fill="#FFFFFF" x1="26.15" y1="82.475" x2="30.55" y2="82.475"/>
		<line fill="#FFFFFF" x1="30.8" y1="131.876" x2="23.35" y2="129.676"/>
		<line fill="#FFFFFF" x1="32.4" y1="64.575" x2="36.449" y2="64.575"/>
		<path fill="#FFFFFF" d="M56.4,111.626c3.434-1.367,5.8-0.384,7.1,2.949"/>
		<line fill="#FFFFFF" x1="49.05" y1="50.376" x2="49.05" y2="66.525"/>
		<path fill="#FFFFFF" d="M89.85,57.825c-13.7,1-27.3,3.9-40.8,8.7"/>
		<line fill="#FFFFFF" x1="150.999" y1="60.176" x2="149.55" y2="44.475"/>
		<line fill="#FFFFFF" x1="78.949" y1="77.075" x2="81.9" y2="73.676"/>
		<polyline fill="#FFFFFF" points="70.999,81.475 81.9,81.475 85.699,74.525 89.85,74.525 		"/>
		<path fill="#FFFFFF" d="M88.699,45.975c-0.964,1.575-1.681,4.275-2.149,8.1"/>
		<line fill="#FFFFFF" x1="94.3" y1="74.525" x2="89.85" y2="74.525"/>
		<path fill="#FFFFFF" d="M89.85,57.825v-2.649c0.433-5.667,1.75-9.767,3.95-12.3"/>
		<line fill="#FFFFFF" x1="38.999" y1="124.376" x2="27.749" y2="117.426"/>
		<line fill="#FFFFFF" x1="46.6" y1="131.025" x2="49.05" y2="66.525"/>
		<line fill="#FFFFFF" x1="89.85" y1="57.825" x2="89.85" y2="74.525"/>
		<path fill="#FFFFFF" d="M141.699,76.475c-2.934-4.667-6.616-5.65-11.05-2.95"/>
		<path fill="#FFFFFF" d="M142.55,62.876c-2.867,4.666-1.634,8.267,3.699,10.8"/>
		<polyline fill="#FFFFFF" points="125.55,158.225 115.1,146.325 115.1,111.876 		"/>
		<path fill="#FFFFFF" d="M149.3,107.975c-3.5-1-5.617,0.134-6.351,3.4"/>
		<path fill="#FFFFFF" d="M106.65,42.176c2.7,2.033,4.167,5.333,4.4,9.899l0.25,4.45"/>
		<path fill="#FFFFFF" d="M128.85,68.025c6.033,0.9,8.767-1.017,8.2-5.75"/>
		<line fill="#FFFFFF" x1="111.3" y1="56.525" x2="111.3" y2="74.525"/>
		<line fill="#FFFFFF" x1="119.4" y1="72.676" x2="122.1" y2="77.075"/>
		<line fill="#FFFFFF" x1="169.05" y1="50.376" x2="169.05" y2="46.075"/>
		<line fill="#FFFFFF" x1="161.8" y1="23.525" x2="161.8" y2="8.825"/>
		<line fill="#FFFFFF" x1="164.35" y1="46.075" x2="169.05" y2="46.075"/>
		<line fill="#FFFFFF" x1="169.05" y1="46.075" x2="171.6" y2="46.075"/>
		<line fill="#FFFFFF" x1="161.8" y1="23.525" x2="165.35" y2="23.525"/>
		<line fill="#FFFFFF" x1="169.05" y1="46.075" x2="169.05" y2="35.676"/>
		<line fill="#FFFFFF" x1="36.449" y1="64.575" x2="36.449" y2="52.575"/>
		<line fill="#FFFFFF" x1="165.249" y1="124.025" x2="173.449" y2="112.876"/>
		<polyline fill="#FFFFFF" points="159.1,149.876 199.3,149.876 166.949,140.325 		"/>
		<line fill="#FFFFFF" x1="177.249" y1="136.876" x2="172.199" y2="133.825"/>
		<line fill="#FFFFFF" x1="178.85" y1="124.376" x2="169.749" y2="126.825"/>
		<path fill="#FFFFFF" d="M111.3,56.525c14.699-0.333,27.933,0.884,39.699,3.65"/>
		<line fill="#FFFFFF" x1="157.4" y1="129.176" x2="150.999" y2="60.176"/>
		<polyline fill="#FFFFFF" points="38.749,141.275 12.3,157.725 50.15,156.025 		"/>
		<line fill="#FFFFFF" x1="36.449" y1="64.575" x2="40.249" y2="64.575"/>
		<path fill="#FFFFFF" d="M86.55,14.475c6.366-2.2,13.399-3.017,21.1-2.45"/>
		<path fill="#FFFFFF" d="M74.3,22.825c13.466-4.5,29.8-5.649,49-3.449"/>
		<line fill="#FFFFFF" x1="158.499" y1="23.525" x2="161.8" y2="23.525"/>
		<line fill="#FFFFFF" x1="161.8" y1="31.975" x2="161.8" y2="23.525"/>
		<path fill="#FFFFFF" d="M146.699,120.725c-0.866,0-1.6,0.283-2.2,0.85c-0.633,0.634-0.949,1.367-0.949,2.2
			c0,0.9,0.316,1.684,0.949,2.351c0.601,0.566,1.334,0.85,2.2,0.85c0.9,0,1.65-0.283,2.25-0.85c0.566-0.667,0.851-1.45,0.851-2.351
			c0-0.833-0.284-1.566-0.851-2.2C148.35,121.009,147.6,120.725,146.699,120.725z"/>
		<path fill="#FFFFFF" d="M136.05,130.275c-0.9,0-1.634,0.283-2.2,0.851c-0.567,0.666-0.851,1.399-0.851,2.199
			c0,0.9,0.283,1.634,0.851,2.2c0.566,0.667,1.3,1,2.2,1c0.899,0,1.633-0.333,2.199-1c0.667-0.566,1-1.3,1-2.2
			c0-0.8-0.333-1.533-1-2.199C137.683,130.558,136.949,130.275,136.05,130.275z"/>
		<path fill="#FFFFFF" d="M125.3,140.575c-0.9,0-1.65,0.317-2.25,0.95c-0.634,0.601-0.95,1.334-0.95,2.2
			c0,0.833,0.316,1.583,0.95,2.25c0.6,0.566,1.35,0.85,2.25,0.85c0.8,0,1.533-0.283,2.199-0.85c0.567-0.667,0.851-1.417,0.851-2.25
			c0-0.866-0.283-1.6-0.851-2.2C126.833,140.892,126.1,140.575,125.3,140.575z"/>
		<path fill="#FFFFFF" d="M100.05,61.025c0.899,0,1.633-0.283,2.199-0.85c0.634-0.566,0.95-1.3,0.95-2.2s-0.316-1.633-0.95-2.2
			c-0.566-0.566-1.3-0.85-2.199-0.85c-0.834,0-1.567,0.283-2.2,0.85c-0.601,0.567-0.9,1.3-0.9,2.2s0.3,1.634,0.9,2.2
			C98.483,60.742,99.216,61.025,100.05,61.025z"/>
		<path fill="#FFFFFF" d="M103.699,142.176c-0.899,0-1.633,0.283-2.2,0.85c-0.633,0.567-0.949,1.3-0.949,2.2s0.316,1.634,0.949,2.2
			c0.567,0.566,1.301,0.85,2.2,0.85c0.833,0,1.566-0.283,2.2-0.85c0.6-0.566,0.9-1.3,0.9-2.2s-0.301-1.633-0.9-2.2
			C105.266,142.459,104.532,142.176,103.699,142.176z"/>
		<path fill="#FFFFFF" d="M125.65,117.775c-0.9,0-1.634,0.283-2.2,0.851c-0.566,0.566-0.85,1.3-0.85,2.199
			c0,0.9,0.283,1.634,0.85,2.2c0.566,0.667,1.3,1,2.2,1s1.633-0.333,2.2-1c0.666-0.566,1-1.3,1-2.2c0-0.899-0.334-1.633-1-2.199
			C127.282,118.058,126.55,117.775,125.65,117.775z"/>
		<path fill="#FFFFFF" d="M56.8,127.825c0.8,0,1.533-0.283,2.199-0.85c0.567-0.667,0.851-1.45,0.851-2.35
			c0-0.801-0.283-1.533-0.851-2.2c-0.666-0.566-1.399-0.851-2.199-0.851c-0.9,0-1.634,0.284-2.2,0.851c-0.667,0.667-1,1.399-1,2.2
			c0,0.899,0.333,1.683,1,2.35C55.166,127.542,55.9,127.825,56.8,127.825z"/>
		<path fill="#FFFFFF" d="M99.3,36.025c0.666,0,1.199-0.233,1.6-0.7c0.4-0.333,0.6-0.833,0.6-1.5c0-0.566-0.199-1.1-0.6-1.6
			c-0.4-0.4-0.934-0.6-1.6-0.6c-0.567,0-1.101,0.199-1.601,0.6c-0.399,0.5-0.6,1.033-0.6,1.6c0,0.667,0.2,1.167,0.6,1.5
			C98.199,35.792,98.733,36.025,99.3,36.025z"/>
		<path fill="#FFFFFF" d="M78.6,142.775c-0.667,0.634-1,1.4-1,2.3c0,0.9,0.333,1.65,1,2.25c0.633,0.634,1.399,0.95,2.3,0.95
			c0.833,0,1.583-0.316,2.25-0.95c0.633-0.6,0.95-1.35,0.95-2.25c0-0.899-0.317-1.666-0.95-2.3c-0.667-0.566-1.417-0.85-2.25-0.85
			C79.999,141.926,79.233,142.209,78.6,142.775z"/>
		<path fill="#FFFFFF" d="M78.699,124.626c1,0,1.783-0.317,2.351-0.95c0.633-0.601,0.949-1.384,0.949-2.351
			c0-0.899-0.316-1.683-0.949-2.35c-0.567-0.633-1.351-0.95-2.351-0.95c-0.899,0-1.667,0.317-2.3,0.95c-0.667,0.667-1,1.45-1,2.35
			c0,0.967,0.333,1.75,1,2.351C77.032,124.308,77.8,124.626,78.699,124.626z"/>
		<path fill="#FFFFFF" d="M103.449,125.725c0.9,0,1.634-0.283,2.2-0.85c0.667-0.567,1-1.301,1-2.2c0-0.9-0.333-1.634-1-2.2
			c-0.566-0.566-1.3-0.85-2.2-0.85c-0.8,0-1.533,0.283-2.2,0.85c-0.566,0.566-0.85,1.3-0.85,2.2c0,0.899,0.283,1.633,0.85,2.2
			C101.916,125.442,102.65,125.725,103.449,125.725z"/>
		<path fill="#FFFFFF" d="M66.6,38.126c-0.567,0-1.101,0.199-1.601,0.6c-0.399,0.5-0.6,1.033-0.6,1.6c0,0.667,0.2,1.2,0.6,1.601
			c0.5,0.399,1.033,0.6,1.601,0.6c0.566,0,1.05-0.2,1.45-0.6c0.5-0.4,0.75-0.934,0.75-1.601c0-0.566-0.25-1.1-0.75-1.6
			C67.65,38.325,67.166,38.126,66.6,38.126z"/>
		<path fill="#FFFFFF" d="M68.55,137.725c0.899,0,1.633-0.283,2.199-0.85c0.667-0.567,1-1.301,1-2.2c0-0.9-0.333-1.634-1-2.2
			c-0.566-0.667-1.3-1-2.199-1c-0.834,0-1.567,0.333-2.2,1c-0.567,0.566-0.851,1.3-0.851,2.2c0,0.899,0.283,1.633,0.851,2.2
			C66.983,137.442,67.716,137.725,68.55,137.725z"/>
		<path fill="#FFFFFF" d="M128.85,37.376c0.467,0.5,1,0.75,1.6,0.75c0.634,0,1.15-0.25,1.55-0.75c0.434-0.334,0.65-0.817,0.65-1.45
			c0-0.566-0.217-1.101-0.65-1.601c-0.399-0.399-0.916-0.6-1.55-0.6c-0.6,0-1.133,0.2-1.6,0.6c-0.434,0.5-0.65,1.034-0.65,1.601
			C128.199,36.558,128.416,37.042,128.85,37.376z"/>
		<path fill="#FFFFFF" stroke="#663366" stroke-width="0" stroke-linecap="round" stroke-linejoin="round" d="M93.8,42.876
			c1.466-1.767,3.383-2.783,5.75-3.051c2.933,0.268,5.3,1.051,7.1,2.351"/>
		<path fill="#FFFFFF" stroke="#663366" stroke-width="0" stroke-linecap="round" stroke-linejoin="round" d="M101.499,33.825
			c0-0.566-0.199-1.1-0.6-1.6c-0.4-0.4-0.934-0.6-1.6-0.6c-0.567,0-1.101,0.199-1.601,0.6c-0.399,0.5-0.6,1.033-0.6,1.6
			c0,0.667,0.2,1.167,0.6,1.5c0.5,0.467,1.033,0.7,1.601,0.7c0.666,0,1.199-0.233,1.6-0.7
			C101.3,34.992,101.499,34.492,101.499,33.825z"/>
		
			<line fill="#FFFFFF" stroke="#663366" stroke-width="0" stroke-linecap="round" stroke-linejoin="round" x1="105.9" y1="111.876" x2="92.05" y2="111.876"/>
		<path fill="#FFFFFF" stroke="#663366" stroke-width="0" stroke-linecap="round" stroke-linejoin="round" d="M68.8,40.325
			c0-0.566-0.25-1.1-0.75-1.6c-0.4-0.4-0.884-0.6-1.45-0.6c-0.567,0-1.101,0.199-1.601,0.6c-0.399,0.5-0.6,1.033-0.6,1.6
			c0,0.667,0.2,1.2,0.6,1.601c0.5,0.399,1.033,0.6,1.601,0.6c0.566,0,1.05-0.2,1.45-0.6C68.55,41.525,68.8,40.992,68.8,40.325z"/>
		<path fill="#FFFFFF" stroke="#663366" stroke-width="0" stroke-linecap="round" stroke-linejoin="round" d="M49.05,50.376
			c11.699-3.033,23.383-5.2,35.05-6.5c3.2-0.4,6.433-0.733,9.7-1"/>
		<polyline fill="#FFFFFF" stroke="#663366" stroke-width="0" stroke-linecap="round" stroke-linejoin="round" points="
			157.4,129.176 160.55,128.575 166.949,140.325 		"/>
		
			<line fill="#FFFFFF" stroke="#663366" stroke-width="0" stroke-linecap="round" stroke-linejoin="round" x1="83.749" y1="111.876" x2="92.05" y2="111.876"/>
		<polyline fill="#FFFFFF" stroke="#663366" stroke-width="0" stroke-linecap="round" stroke-linejoin="round" points="
			130.3,81.275 146.499,81.275 147.699,97.426 136.699,111.876 124.3,111.876 		"/>
		<polyline fill="#FFFFFF" stroke="#663366" stroke-width="0" stroke-linecap="round" stroke-linejoin="round" points="
			125.55,158.225 157.499,131.225 157.4,129.176 		"/>
		<polyline fill="#FFFFFF" stroke="#663366" stroke-width="0" stroke-linecap="round" stroke-linejoin="round" points="
			125.55,158.225 104.55,175.725 83.749,161.626 		"/>
		<polyline fill="#FFFFFF" stroke="#663366" stroke-width="0" stroke-linecap="round" stroke-linejoin="round" points="
			70.999,81.475 55.55,81.475 55.55,101.975 67.949,111.876 		"/>
		<path fill="#FFFFFF" stroke="#663366" stroke-width="0" stroke-linecap="round" stroke-linejoin="round" d="M49.05,50.376
			L39.4,40.075c41.733-14.933,80.9-17.133,117.5-6.6l-7.35,11"/>
		<path fill="#FFFFFF" stroke="#663366" stroke-width="0" stroke-linecap="round" stroke-linejoin="round" d="M132.65,35.926
			c0-0.566-0.217-1.101-0.65-1.601c-0.399-0.399-0.916-0.6-1.55-0.6c-0.6,0-1.133,0.2-1.6,0.6c-0.434,0.5-0.65,1.034-0.65,1.601
			c0,0.633,0.217,1.116,0.65,1.45c0.467,0.5,1,0.75,1.6,0.75c0.634,0,1.15-0.25,1.55-0.75
			C132.433,37.042,132.65,36.558,132.65,35.926z"/>
		<path fill="#FFFFFF" stroke="#663366" stroke-width="0" stroke-linecap="round" stroke-linejoin="round" d="M106.65,42.176
			c0.167,0,0.366,0,0.6,0c14.134-0.4,28.233,0.366,42.301,2.3"/>
		<path fill="#FFFFFF" stroke="#663366" stroke-width="0" stroke-linecap="round" stroke-linejoin="round" d="M38.749,141.275
			c3.367,5.334,7.167,10.25,11.4,14.75"/>
		
			<line fill="#FFFFFF" stroke="#663366" stroke-width="0" stroke-linecap="round" stroke-linejoin="round" x1="113.499" y1="74.525" x2="111.3" y2="74.525"/>
		<path fill="#FFFFFF" stroke="#663366" stroke-width="0" stroke-linecap="round" stroke-linejoin="round" d="M166.949,140.325
			c-2.533,3.268-5.149,6.45-7.85,9.551"/>
		<polyline fill="#FFFFFF" stroke="#663366" stroke-width="0" stroke-linecap="round" stroke-linejoin="round" points="
			38.749,141.275 41.449,131.225 46.6,131.025 		"/>
		
			<line fill="#FFFFFF" stroke="#663366" stroke-width="0" stroke-linecap="round" stroke-linejoin="round" x1="94.3" y1="74.525" x2="111.3" y2="74.525"/>
		<polyline fill="#FFFFFF" stroke="#663366" stroke-width="0" stroke-linecap="round" stroke-linejoin="round" points="
			46.6,131.025 46.499,133.225 83.749,161.626 		"/>
		<path fill="#FFFFFF" stroke="#663366" stroke-width="0" stroke-linecap="round" stroke-linejoin="round" d="M159.1,135.025
			c2.933,3.601,2.933,6.55,0,8.851"/>
		<path fill="#FFFFFF" stroke="#663366" stroke-width="0" stroke-linecap="round" stroke-linejoin="round" d="M159.1,149.876
			c-14.7,16.6-32.5,32.366-53.4,47.3c-23.133-12.5-41.649-26.217-55.55-41.15"/>
		
			<line fill="#FFFFFF" stroke="#663366" stroke-width="0" stroke-linecap="round" stroke-linejoin="round" x1="44.9" y1="138.126" x2="53.249" y2="145.475"/>
	</g>
</g>
<g id="Layer_2">
	<g transform="matrix( 1, 0, 0, 1, 0,0) ">
		<g>
			<g id="Layer0_0_FILL_1_">
				<path fill="#663366" d="M157.4,129.176l0.1,2.05l-31.949,27l-21,17.5l-20.801-14.1l-37.25-28.4l0.101-2.2l-5.15,0.2l-2.7,10.05
					c3.367,5.334,7.167,10.25,11.4,14.75c13.9,14.934,32.417,28.65,55.55,41.15c20.9-14.934,38.7-30.7,53.4-47.3
					c2.7-3.101,5.316-6.283,7.85-9.551l-6.399-11.75L157.4,129.176 M159.1,135.025c2.933,3.601,2.933,6.55,0,8.851
					C162.032,141.575,162.032,138.626,159.1,135.025 M44.9,138.126l8.35,7.35L44.9,138.126 M113.499,74.525H111.3h-17
					c-10.233,14.467-12.567,20.067-7,16.8c4.566-2.633,6.533-1.899,5.899,2.2c-0.767,4.067-3.917,10.184-9.45,18.351h8.301h13.85
					c12.033-14.2,14.9-19.917,8.6-17.15c-6.366,2.7-8.25,0.367-5.649-7L113.499,74.525 M130.3,81.275
					c-6.467,8.567-7.367,12.283-2.7,11.15c4.733-1.233,6.116,0.717,4.149,5.85c-2.1,5.067-4.583,9.601-7.449,13.601h12.399l11-14.45
					l-1.2-16.15H130.3 M55.55,81.475v20.5l12.399,9.9c12.667-17.733,14.617-23.567,5.851-17.5c-5.367,3.767-7.084,2.217-5.15-4.65
					l2.35-8.25H55.55 M106.65,42.176c0.167,0,0.366,0,0.6,0c14.134-0.4,28.233,0.366,42.301,2.3l7.35-11
					c-36.6-10.533-75.767-8.333-117.5,6.6l9.65,10.301c11.699-3.033,23.383-5.2,35.05-6.5c3.2-0.4,6.433-0.733,9.7-1
					c1.466-1.767,3.383-2.783,5.75-3.051C102.483,40.093,104.85,40.876,106.65,42.176 M101.499,33.825c0,0.667-0.199,1.167-0.6,1.5
					c-0.4,0.467-0.934,0.7-1.6,0.7c-0.567,0-1.101-0.233-1.601-0.7c-0.399-0.333-0.6-0.833-0.6-1.5c0-0.566,0.2-1.1,0.6-1.6
					c0.5-0.4,1.033-0.6,1.601-0.6c0.666,0,1.199,0.199,1.6,0.6C101.3,32.725,101.499,33.259,101.499,33.825 M130.449,33.725
					c0.634,0,1.15,0.2,1.55,0.6c0.434,0.5,0.65,1.034,0.65,1.601c0,0.633-0.217,1.116-0.65,1.45c-0.399,0.5-0.916,0.75-1.55,0.75
					c-0.6,0-1.133-0.25-1.6-0.75c-0.434-0.334-0.65-0.817-0.65-1.45c0-0.566,0.217-1.101,0.65-1.601
					C129.317,33.926,129.85,33.725,130.449,33.725 M68.05,38.725c0.5,0.5,0.75,1.033,0.75,1.6c0,0.667-0.25,1.2-0.75,1.601
					c-0.4,0.399-0.884,0.6-1.45,0.6c-0.567,0-1.101-0.2-1.601-0.6c-0.399-0.4-0.6-0.934-0.6-1.601c0-0.566,0.2-1.1,0.6-1.6
					c0.5-0.4,1.033-0.6,1.601-0.6C67.166,38.126,67.65,38.325,68.05,38.725z"/>
			</g>
		</g>
		<g>
			<path id="Layer0_0_1_STROKES_1_" fill="none" stroke="#000000" stroke-linecap="round" stroke-linejoin="round" d="M161.8,8.825
				v14.7h3.55 M169.05,35.676v10.399h2.55 M164.35,46.075h4.7v4.301 M161.8,31.975v-8.45h-3.301 M178.85,124.376l-9.101,2.449
				 M173.449,112.876l-8.2,11.149 M125.55,158.225l31.949-27l-0.1-2.05l-6.4-69c-11.767-2.767-25-3.983-39.699-3.65v18h2.199h1.75
				l3.15,6.75h11.9h16.199l1.2,16.15l-11,14.45H124.3h-9.2v34.449L125.55,158.225l-21,17.5l-20.801-14.1l-37.25-28.4l0.101-2.2
				l-5.15,0.2l-2.7,10.05c3.367,5.334,7.167,10.25,11.4,14.75c13.9,14.934,32.417,28.65,55.55,41.15
				c20.9-14.934,38.7-30.7,53.4-47.3c2.7-3.101,5.316-6.283,7.85-9.551l-6.399-11.75l-3.15,0.601 M177.249,136.876l-5.05-3.051
				 M159.1,135.025c2.933,3.601,2.933,6.55,0,8.851 M166.949,140.325l32.351,9.551h-40.2 M88.699,45.975
				c-0.964,1.575-1.681,4.275-2.149,8.1 M101.499,33.825c0,0.667-0.199,1.167-0.6,1.5c-0.4,0.467-0.934,0.7-1.6,0.7
				c-0.567,0-1.101-0.233-1.601-0.7c-0.399-0.333-0.6-0.833-0.6-1.5c0-0.566,0.2-1.1,0.6-1.6c0.5-0.4,1.033-0.6,1.601-0.6
				c0.666,0,1.199,0.199,1.6,0.6C101.3,32.725,101.499,33.259,101.499,33.825z M149.55,44.475c-14.067-1.934-28.167-2.7-42.301-2.3
				c-0.233,0-0.433,0-0.6,0c2.7,2.033,4.167,5.333,4.4,9.899l0.25,4.45 M149.55,44.475l7.35-11c-36.6-10.533-75.767-8.333-117.5,6.6
				l9.65,10.301c11.699-3.033,23.383-5.2,35.05-6.5c3.2-0.4,6.433-0.733,9.7-1c1.466-1.767,3.383-2.783,5.75-3.051
				c2.933,0.268,5.3,1.051,7.1,2.351 M86.55,14.475c6.366-2.2,13.399-3.017,21.1-2.45 M49.05,50.376v16.149
				c13.5-4.8,27.1-7.7,40.8-8.7v-2.649c0.433-5.667,1.75-9.767,3.95-12.3 M132.65,35.926c0,0.633-0.217,1.116-0.65,1.45
				c-0.399,0.5-0.916,0.75-1.55,0.75c-0.6,0-1.133-0.25-1.6-0.75c-0.434-0.334-0.65-0.817-0.65-1.45c0-0.566,0.217-1.101,0.65-1.601
				c0.467-0.399,1-0.6,1.6-0.6c0.634,0,1.15,0.2,1.55,0.6C132.433,34.825,132.65,35.359,132.65,35.926z M74.3,22.825
				c13.466-4.5,29.8-5.649,49-3.449 M68.8,40.325c0,0.667-0.25,1.2-0.75,1.601c-0.4,0.399-0.884,0.6-1.45,0.6
				c-0.567,0-1.101-0.2-1.601-0.6c-0.399-0.4-0.6-0.934-0.6-1.601c0-0.566,0.2-1.1,0.6-1.6c0.5-0.4,1.033-0.6,1.601-0.6
				c0.566,0,1.05,0.199,1.45,0.6C68.55,39.225,68.8,39.759,68.8,40.325z M40.249,64.575h-3.8v6.5 M70.999,81.475H55.55v20.5
				l12.399,9.9 M70.999,81.475h10.9l3.8-6.95h4.15v-16.7 M30.55,76.475v6h2.449 M30.55,82.475v3.7 M32.4,64.575h4.05v-12
				 M27.749,140.325l-5.899,2.801 M59.85,124.626c0,0.899-0.283,1.683-0.851,2.35c-0.666,0.566-1.399,0.85-2.199,0.85
				c-0.9,0-1.634-0.283-2.2-0.85c-0.667-0.667-1-1.45-1-2.35c0-0.801,0.333-1.533,1-2.2c0.566-0.566,1.3-0.851,2.2-0.851
				c0.8,0,1.533,0.284,2.199,0.851C59.567,123.093,59.85,123.825,59.85,124.626z M56.4,111.626c3.434-1.367,5.8-0.384,7.1,2.949
				 M71.749,134.676c0,0.899-0.333,1.633-1,2.2c-0.566,0.566-1.3,0.85-2.199,0.85c-0.834,0-1.567-0.283-2.2-0.85
				c-0.567-0.567-0.851-1.301-0.851-2.2c0-0.9,0.283-1.634,0.851-2.2c0.633-0.667,1.366-1,2.2-1c0.899,0,1.633,0.333,2.199,1
				C71.416,133.042,71.749,133.775,71.749,134.676z M44.9,138.126l8.35,7.35 M49.05,66.525l-2.45,64.5 M30.8,131.876l-7.45-2.2
				 M38.999,124.376l-11.25-6.95 M26.15,82.475h4.4 M142.55,62.876c-2.867,4.666-1.634,8.267,3.699,10.8 M130.65,73.525
				c4.434-2.7,8.116-1.717,11.05,2.95 M119.4,72.676l2.7,4.399 M137.05,62.275c0.566,4.733-2.167,6.65-8.2,5.75 M103.199,57.975
				c0,0.9-0.316,1.634-0.95,2.2c-0.566,0.566-1.3,0.85-2.199,0.85c-0.834,0-1.567-0.283-2.2-0.85c-0.601-0.566-0.9-1.3-0.9-2.2
				s0.3-1.633,0.9-2.2c0.633-0.566,1.366-0.85,2.2-0.85c0.899,0,1.633,0.283,2.199,0.85
				C102.883,56.343,103.199,57.075,103.199,57.975z M81.9,73.676l-2.95,3.399 M94.3,74.525h-4.45 M83.749,111.876h8.301h13.85
				 M106.65,122.676c0,0.899-0.333,1.633-1,2.2c-0.566,0.566-1.3,0.85-2.2,0.85c-0.8,0-1.533-0.283-2.2-0.85
				c-0.566-0.567-0.85-1.301-0.85-2.2c0-0.9,0.283-1.634,0.85-2.2c0.667-0.566,1.4-0.85,2.2-0.85c0.9,0,1.634,0.283,2.2,0.85
				C106.317,121.042,106.65,121.775,106.65,122.676z M81.999,121.325c0,0.967-0.316,1.75-0.949,2.351
				c-0.567,0.633-1.351,0.95-2.351,0.95c-0.899,0-1.667-0.317-2.3-0.95c-0.667-0.601-1-1.384-1-2.351c0-0.899,0.333-1.683,1-2.35
				c0.633-0.633,1.4-0.95,2.3-0.95c1,0,1.783,0.317,2.351,0.95C81.683,119.642,81.999,120.426,81.999,121.325z M73.55,125.876
				c1.966,3.1,4.55,3.75,7.75,1.949 M84.1,145.075c0,0.9-0.317,1.65-0.95,2.25c-0.667,0.634-1.417,0.95-2.25,0.95
				c-0.9,0-1.667-0.316-2.3-0.95c-0.667-0.6-1-1.35-1-2.25c0-0.899,0.333-1.666,1-2.3c0.633-0.566,1.399-0.85,2.3-0.85
				c0.833,0,1.583,0.283,2.25,0.85C83.782,143.409,84.1,144.176,84.1,145.075z M106.8,145.225c0,0.9-0.301,1.634-0.9,2.2
				c-0.634,0.566-1.367,0.85-2.2,0.85c-0.899,0-1.633-0.283-2.2-0.85c-0.633-0.566-0.949-1.3-0.949-2.2s0.316-1.633,0.949-2.2
				c0.567-0.566,1.301-0.85,2.2-0.85c0.833,0,1.566,0.283,2.2,0.85C106.499,143.593,106.8,144.325,106.8,145.225z M83.749,161.626
				l8.301-15.45v-34.3 M142.949,111.376c0.733-3.267,2.851-4.4,6.351-3.4 M149.8,123.775c0,0.9-0.284,1.684-0.851,2.351
				c-0.6,0.566-1.35,0.85-2.25,0.85c-0.866,0-1.6-0.283-2.2-0.85c-0.633-0.667-0.949-1.45-0.949-2.351
				c0-0.833,0.316-1.566,0.949-2.2c0.601-0.566,1.334-0.85,2.2-0.85c0.9,0,1.65,0.283,2.25,0.85
				C149.516,122.209,149.8,122.942,149.8,123.775z M128.85,120.825c0,0.9-0.334,1.634-1,2.2c-0.567,0.667-1.3,1-2.2,1
				s-1.634-0.333-2.2-1c-0.566-0.566-0.85-1.3-0.85-2.2c0-0.899,0.283-1.633,0.85-2.199c0.566-0.567,1.3-0.851,2.2-0.851
				s1.633,0.283,2.2,0.851C128.516,119.192,128.85,119.926,128.85,120.825z M128.35,143.725c0,0.833-0.283,1.583-0.851,2.25
				c-0.666,0.566-1.399,0.85-2.199,0.85c-0.9,0-1.65-0.283-2.25-0.85c-0.634-0.667-0.95-1.417-0.95-2.25c0-0.866,0.316-1.6,0.95-2.2
				c0.6-0.633,1.35-0.95,2.25-0.95c0.8,0,1.533,0.317,2.199,0.95C128.067,142.126,128.35,142.859,128.35,143.725z M139.249,133.325
				c0,0.9-0.333,1.634-1,2.2c-0.566,0.667-1.3,1-2.199,1c-0.9,0-1.634-0.333-2.2-1c-0.567-0.566-0.851-1.3-0.851-2.2
				c0-0.8,0.283-1.533,0.851-2.199c0.566-0.567,1.3-0.851,2.2-0.851c0.899,0,1.633,0.283,2.199,0.851
				C138.916,131.792,139.249,132.525,139.249,133.325z M111.3,74.525h-17 M105.9,111.876h9.2 M67.949,111.876h15.8 M38.749,141.275
				L12.3,157.725l37.85-1.7 M113.499,151.575c3.867,2.801,4.9,6.067,3.101,9.801 M149.55,44.475l1.449,15.7"/>
		</g>
	</g>
</g>
</svg>
