<?xml version="1.0" encoding="utf-8"?>
<!-- Generator: Adobe Illustrator 16.0.0, SVG Export Plug-In . SVG Version: 6.00 Build 0)  -->
<!DOCTYPE svg PUBLIC "-//W3C//DTD SVG 1.0//EN" "http://www.w3.org/TR/2001/REC-SVG-20010904/DTD/svg10.dtd">
<svg version="1.0" id="Layer_1" xmlns="http://www.w3.org/2000/svg" xmlns:xlink="http://www.w3.org/1999/xlink" x="0px" y="0px"
	 width="210px" height="203px" viewBox="0 0 210 203" enable-background="new 0 0 210 203" xml:space="preserve">
<g>
	<polygon fill="#FCFCFC" points="180.273,150.01 179.226,148.322 176.775,147.231 	"/>
	<polygon fill="#FCFCFC" points="97.775,42.305 97.775,44.886 100.12,43.496 	"/>
	<polygon fill="#FCFCFC" points="165.701,147.926 167.148,143.707 165.701,147.926 163.854,149.066 165.6,151.797 170.292,152.789 
		169.792,149.464 172.188,148.322 172.46,145.311 166.848,142.813 162.307,140.629 160.46,142.019 	"/>
	<polygon fill="#FCFCFC" points="158.664,143.359 160.46,142.019 162.307,140.629 159.462,140.381 157.167,137.402 152.724,136.36 	
		"/>
	<polygon fill="#FCFCFC" points="105.111,45.58 100.12,43.496 97.775,44.886 97.775,46.97 100.719,48.211 	"/>
	<polygon fill="#FCFCFC" points="172.46,145.311 172.188,148.322 182.37,155.917 180.273,150.01 176.775,147.231 	"/>
	<polygon fill="#FCFCFC" points="144.294,153.335 144.339,153.435 147.833,154.676 148.232,151.698 152.824,149.514 
		153.373,149.167 	"/>
	<polygon fill="#FCFCFC" points="153.373,149.167 152.824,149.514 155.319,152.74 157.615,152.74 162.906,149.613 	"/>
	<polygon fill="#FCFCFC" points="106.509,50.594 100.719,48.211 97.775,49.948 97.775,51.239 102.316,53.125 	"/>
	<polygon fill="#FCFCFC" points="97.775,46.97 97.775,49.948 100.719,48.211 	"/>
	<polygon fill="#FCFCFC" points="167.098,154.229 168.345,160.234 172.088,161.327 176.73,157.256 170.292,152.789 165.6,151.797 	
		"/>
	<polygon fill="#FCFCFC" points="163.854,149.066 162.906,149.613 157.615,152.74 162.956,162.865 168.345,160.234 165.6,151.797 	
		"/>
	<path fill="#FCFCFC" d="M102.267,131.249l3.394,1.389v-4.715C104.695,128.882,103.564,129.992,102.267,131.249z"/>
	<path fill="#FCFCFC" d="M110.102,33.222v-5.609c-0.565,0.695-1.297,1.257-2.196,1.688c-0.798,0.396-1.48,0.893-2.046,1.488
		c-0.565,0.562-1.015,1.241-1.347,2.035c-1.365,2.151-2.53,2.151-3.494,0c-0.399-1.588-1.132-2.713-2.196-3.375
		c-0.399-0.23-0.749-0.513-1.048-0.843v5.609l6.289,2.63L110.102,33.222z"/>
	<polygon fill="#FCFCFC" points="75.565,169.318 74.966,173.09 75.416,176.018 79.558,173.288 80.753,173.596 87.992,170.311 
		86.445,169.02 82.453,171.452 	"/>
	<path fill="#FCFCFC" d="M102.929,114.481c0.534,0.228,1.455,0.309,2.781,0.239c4.393-0.231,1.248,2.978-9.432,9.629h-0.101
		l6.089,6.899l3.394-3.326l3.344-4.804c-1.541,0.665-2.992,0.973-4.343,0.883c-1.464-0.132,1.564-2.696,9.084-7.694v-10.72
		l-8.135,4.914L102.929,114.481z"/>
	<path fill="#FCFCFC" d="M105.361,106.084l0.25,4.417c1.882-1.329,4.594-2.967,8.135-4.914V91.69l-5.039,8.649
		C110.75,100.896,109.639,102.809,105.361,106.084z"/>
	<path fill="#FCFCFC" d="M101.618,90.896c-0.433-0.794,0.715-2.482,3.444-5.062v-7.793h-3.894h3.894h3.892h-3.892v7.793
		c2.029-1.919,4.923-4.335,8.684-7.248V74.22H96.177v28.589l6.027-11.515C101.924,91.209,101.713,91.086,101.618,90.896z"/>
	<polygon fill="#FCFCFC" points="108.306,38.582 110.102,37.54 110.102,33.222 104.063,36.845 	"/>
	<polygon fill="#FCFCFC" points="111.55,139.041 118.686,142.118 116.74,137.502 113.445,134.971 119.085,133.532 128.519,124.399 
		128.917,120.527 123.702,122.175 122.03,124.3 120.433,123.208 113.895,132.688 	"/>
	<polygon fill="#FCFCFC" points="138.649,128.717 139.336,129.745 152.724,136.36 157.167,137.402 145.878,130.66 145.587,130.653 
		145.493,130.43 128.917,120.527 128.519,124.399 	"/>
	<polygon fill="#FCFCFC" points="104.313,40.965 100.071,39.228 97.775,40.567 97.775,42.305 100.12,43.496 	"/>
	<polygon fill="#FCFCFC" points="104.063,36.845 97.775,34.215 97.775,38.284 100.071,39.228 	"/>
	<polygon fill="#FCFCFC" points="97.775,51.239 97.775,55.806 102.316,53.125 	"/>
	<polygon fill="#FCFCFC" points="97.775,38.284 97.775,40.567 100.071,39.228 	"/>
	<polygon fill="#FCFCFC" points="92.085,155.767 92.933,156.562 91.626,160.462 96.427,164.603 104.462,161.922 101.019,155.073 
		93.083,152.69 91.287,154.229 87.044,156.512 89.369,158.516 	"/>
	<polygon fill="#FCFCFC" points="94.331,167.928 103.713,168.772 105.46,163.212 	"/>
	<polygon fill="#FCFCFC" points="111.5,160.185 112.598,161.922 117.638,159.44 127.321,163.212 124.975,158.15 	"/>
	<path fill="#FCFCFC" d="M108.707,100.339c-0.165-0.045-0.344-0.084-0.552-0.112c-2.029-0.298-2.628-1.142-1.796-2.532
		c0.832-1.421,3.127-3.423,6.888-6.005h0.499V78.586l-8.684,7.248l-2.857,5.46c0.403,0.122,0.973,0.147,1.759,0.049
		c2.229-0.198,2.113,1.159-0.349,4.07c-1.563,1.853-4.042,4.318-7.437,7.396v9.381l9.184-6.105L108.707,100.339z"/>
	<polygon fill="#FCFCFC" points="92.684,164.603 91.236,167.333 89.141,166.042 84.449,158.994 87.044,156.512 87.693,152.988 
		79.458,164.553 80.557,164.851 83.301,164.949 86.445,169.02 93.383,169.367 94.331,167.928 96.427,164.603 	"/>
	<polygon fill="#FCFCFC" points="109.304,166.339 127.321,163.212 112.598,161.922 	"/>
	<polygon fill="#FCFCFC" points="111.5,160.185 94.88,151.152 100.12,154.179 101.019,155.073 107.058,161.029 104.462,161.922 
		105.46,163.212 106.458,164.503 103.713,168.772 107.557,171.65 109.304,166.339 112.598,161.922 	"/>
	<polygon fill="#FCFCFC" points="104.462,161.922 96.427,164.603 94.331,167.928 105.46,163.212 	"/>
	<polygon fill="#FCFCFC" points="71.023,166.29 61.79,171.75 74.966,173.09 75.565,169.318 	"/>
	<polygon fill="#FCFCFC" points="94.88,151.152 93.083,152.69 101.019,155.073 	"/>
	<polygon fill="#FCFCFC" points="71.023,166.29 75.565,169.318 86.445,169.02 79.458,164.553 	"/>
	<polygon fill="#FCFCFC" points="71.023,166.29 64.885,163.46 64.885,164.503 57.599,171.303 61.79,171.75 67.03,167.779 	"/>
	<polygon fill="#FCFCFC" points="62.34,163.411 53.805,163.163 53.718,162.978 46.518,162.617 45.271,162.617 40.38,167.978 
		40.28,170.559 55.289,171.204 55.501,171.055 57.599,171.303 64.885,163.46 	"/>
	<polygon fill="#FCFCFC" points="113.895,132.688 107.457,137.304 111.55,139.041 	"/>
	<polygon fill="#FCFCFC" points="110.102,60.868 102.715,57.84 97.775,60.769 97.775,61.463 110.102,61.463 	"/>
	<polygon fill="#FCFCFC" points="153.373,149.167 158.114,148.422 162.906,149.613 163.854,149.066 165.701,147.926 160.46,142.019 
		158.664,143.359 157.814,145.99 	"/>
	<polygon fill="#FCFCFC" points="107.207,55.16 102.316,53.125 97.775,55.806 102.715,57.84 	"/>
	<path fill="#FCFCFC" d="M125.1,64.243c-0.017,0.005-0.033,0.009-0.05,0.014l-0.013,0.021
		C125.06,64.268,125.078,64.254,125.1,64.243z"/>
	<polygon fill="#FCFCFC" points="97.775,55.806 97.775,60.769 102.715,57.84 	"/>
	<path fill="#FCFCFC" d="M130.465,155.569l3.842-3.524L139,139.388l5.989,5.56l8.384,4.219l5.291-5.808l-3.993-2.829l-1.947-4.169
		l-9.532-0.843l-3.856-5.772l-10.817-5.346l-5.091,6.75l-4.342,2.383l-2.345,3.971l1.946,4.616l8.286,10.572l-0.749,2.135
		l4.341,4.813l0.2-1.936L130.465,155.569z M124.625,143.806l-2.296-1.985l0.998-3.723l2.196,2.879l0.399,1.737L124.625,143.806z
		 M126.871,130.454l1.398-1.886l3.643,0.099l3.444,4.914l5.74,1.985l-1.597,2.432l-7.088-1.191L126.871,130.454z M132.91,145.245
		l-0.25,4.021l-1.846,2.631l-1.148-2.283L132.91,145.245z"/>
	<path fill="#FCFCFC" d="M113.746,74.22h16.969c-0.433-0.529-0.649-1.142-0.649-1.837c0-0.628,0.184-1.191,0.549-1.687v-0.05
		c-2.97-0.368-5.732-0.979-8.285-1.836c-0.005,0.001-0.017,0-0.025,0c-0.008,0-0.013,0.001-0.024,0
		c-0.45-0.123-0.9-0.233-1.35-0.348l-34.334,0.645c-2.274,0.755-4.77,1.268-7.486,1.539c0.399,0.563,0.599,1.191,0.599,1.886
		c0,0.629-0.167,1.191-0.499,1.688h16.969C102.695,71.719,108.551,71.719,113.746,74.22z"/>
	<path fill="#FCFCFC" d="M117.588,67.667c1.114,0.239,2.228,0.509,3.341,0.794l1.375,0.348c0.009,0,0.021,0.001,0.025,0
		c-0.125-2.057,0.783-3.574,2.721-4.552c-3.085,0.92-5.39,1.14-6.913,0.656c-1.459-0.471-2.215-1.575-2.267-3.312
		c-0.007-0.248,0-0.509,0.021-0.783c-1.525,3.31-3.456,3.525-5.789,0.645c-4.758,1.82-8.868,1.82-12.327,0
		c-0.333,0.782-1.164,1.436-2.495,1.961c-1.329,0.525-2.776,0.104-4.343-1.267c-0.106,1.137-0.61,1.933-1.5,2.402l-2.841,4.547
		C96.61,66.042,106.942,65.562,117.588,67.667z"/>
	<polygon fill="#FCFCFC" points="107.457,137.304 112.847,144.65 111.55,139.041 	"/>
	<polygon fill="#FCFCFC" points="111.55,139.041 112.847,144.65 126.972,152.69 118.686,142.118 	"/>
	<polygon fill="#FCFCFC" points="124.975,158.15 127.321,163.212 130.065,163.759 130.564,159.639 126.223,154.825 	"/>
	<path fill="#FCFCFC" d="M109.503,122.91c1.397-0.662,0.116,1.009-3.843,5.013v4.715l8.085-14.097v-2.233l-4.741,6.811
		C109.171,123.047,109.334,122.991,109.503,122.91z"/>
	<polygon fill="#FCFCFC" points="110.102,56.351 110.102,53.423 107.207,55.16 	"/>
	<polygon fill="#FCFCFC" points="28.102,175.423 30.897,175.373 40.28,170.559 40.38,167.978 40.579,162.617 33.043,164.949 
		28.052,175.373 	"/>
	<polygon fill="#FCFCFC" points="45.271,162.617 40.579,162.617 40.38,167.978 	"/>
	<polygon fill="#FCFCFC" points="28.052,175.373 22.812,172.792 25.257,178.251 28.102,175.423 	"/>
	<polygon fill="#FCFCFC" points="33.043,164.949 24.65,171.383 24.459,171.701 22.812,172.792 28.052,175.373 	"/>
	<polygon fill="#FCFCFC" points="46.518,162.617 45.819,154.676 40.579,162.617 45.271,162.617 	"/>
	<polygon fill="#FCFCFC" points="149.181,163.907 151.477,160.632 150.978,156.066 155.17,154.477 155.319,152.74 152.824,149.514 
		147.833,154.676 147.383,157.803 145.462,160.207 142.343,167.481 142.244,169.318 142.293,169.318 147.484,170.658 
		158.713,168.027 159.013,165.347 	"/>
	<path fill="#FCFCFC" d="M58.846,157.951l3.494,3.624l1.147,1.191l-1.147-1.191v1.836l2.545,0.049l6.138,2.83l6.688-2.283
		l1.747,0.546l0.25-4.915l7.985-6.651l0.649-3.474l0.999-1.091l1.147-4.021l2.995-1.985l-5.789,10.571l-0.648,3.524l6.039-3.822
		l1.796-1.538l-0.798-0.496l-0.749-7.347l3.943-3.226l5.789,10.423l3.893,1.291l4.542,8.388l5.589-4.516l7.886,2.482l1.248-3.325
		l0.749-2.135l-6.339-0.992l-1.896-2.928l-5.89-4.12l-5.839-4.12l0.448-3.226l-8.251-3.761l8.552,8.277l-5.44-2.978l-3.943-6.104
		l-5.44-4.169l2.146,3.275l-2.895,6.354l2.097,2.035l-2.097-2.035l-2.096,2.58l2.096-2.58l0.749-9.629l-5.889,1.191l-6.289-0.943
		l-5.589-4.12l-3.344,8.735l-2.346,3.97l0.6,0.348l13.076,7.644L84,147.23l-4.94,3.573l-4.442-1.985l-1.747-1.786l-1.896,5.112
		l-2.545,2.382l0.299,3.078l-0.299-3.078l-1.796,1.589l1.796-1.589l4.442-7.494l-10.53-4.367l-0.25,2.63l-4.692,1.588l-2.196,4.814
		l-2.136-1.237l-3.005,2.527l6.662,4.659L58.846,157.951z M110.502,151.3l2.545-3.871l0.798,2.134l-3.343,3.525V151.3z
		 M83.7,140.381l-1.198-2.382l3.644-3.424l1.297,0.049l0.849,1.737l-1.448,3.276L83.7,140.381z M65.334,150.656l1.297,1.091
		l-3.095,5.857H62.34l-0.998-2.283L65.334,150.656z"/>
	<polygon fill="#FCFCFC" points="110.102,52.083 110.102,48.459 106.509,50.594 	"/>
	<polygon fill="#FCFCFC" points="102.316,53.125 107.207,55.16 110.102,53.423 110.102,52.083 106.509,50.594 	"/>
	<polygon fill="#FCFCFC" points="136.454,158.101 137.129,156.625 130.564,159.639 130.065,163.759 133.26,168.176 133.06,169.02 
		132.012,169.318 139.056,169.318 140.596,168.871 142.244,169.318 142.343,167.481 	"/>
	<polygon fill="#FCFCFC" points="49.513,158.795 52.307,159.986 53.718,162.978 62.34,163.411 62.34,161.575 56.723,157.647 
		53.655,157.207 50.062,152.988 48.814,156.462 45.819,154.676 46.518,162.617 	"/>
	<polygon fill="#FCFCFC" points="84,174.43 80.753,173.596 75.416,176.018 70.425,176.812 70.524,177.358 96.177,175.919 
		87.992,170.311 	"/>
	<polygon fill="#FCFCFC" points="164.802,167.581 171.041,166.985 166.998,165.496 	"/>
	<polygon fill="#FCFCFC" points="127.321,163.212 118.287,166.687 112.049,167.779 109.304,166.339 107.557,171.65 112.897,171.502 
		116.541,173.189 132.012,169.318 131.612,168.871 132.012,169.318 130.065,163.759 	"/>
	<polygon fill="#FCFCFC" points="102.715,57.84 110.102,60.868 110.102,56.351 107.207,55.16 	"/>
	<polygon fill="#FCFCFC" points="103.713,168.772 96.676,174.132 116.541,173.189 107.557,171.65 	"/>
	<polygon fill="#FCFCFC" points="168.345,160.234 162.956,162.865 164.752,166.141 162.956,162.865 159.562,160.482 158.563,159.44 
		157.615,152.74 155.319,152.74 155.17,154.477 159.013,165.347 158.713,168.027 160.46,167.581 164.802,167.581 166.998,165.496 	
		"/>
	<polygon fill="#FCFCFC" points="100.719,48.211 106.509,50.594 110.102,48.459 110.102,47.616 105.111,45.58 	"/>
	<polygon fill="#FCFCFC" points="74.966,173.09 61.79,171.75 57.599,171.303 55.289,171.204 51.808,173.635 40.28,170.559 
		30.897,175.373 31.197,179.741 44.647,178.737 48.814,177.109 51.871,178.198 70.425,176.812 75.416,176.018 	"/>
	<polygon fill="#FCFCFC" points="176.73,157.256 174.035,160.136 172.088,161.327 175.333,165.595 177.528,164.553 181.123,165.694 
		180.573,158.646 	"/>
	<polygon fill="#FCFCFC" points="168.345,160.234 166.998,165.496 171.041,166.985 175.333,165.595 172.088,161.327 	"/>
	<polygon fill="#FCFCFC" points="94.331,167.928 93.383,169.367 96.676,174.132 103.713,168.772 	"/>
	<polygon fill="#FCFCFC" points="86.445,169.02 87.992,170.311 96.177,175.919 96.676,174.132 93.383,169.367 	"/>
	<polygon fill="#FCFCFC" points="28.102,175.423 25.257,178.251 31.197,179.741 30.897,175.373 	"/>
	<polygon fill="#FCFCFC" points="104.313,40.965 109.354,43.049 110.102,42.602 110.102,39.327 108.306,38.582 	"/>
	<polygon fill="#FCFCFC" points="92.933,128.568 94.281,128.271 98.374,132.738 107.457,137.304 113.895,132.688 114.544,130.802 
		120.433,123.208 113.746,118.542 113.695,124.647 105.66,132.638 104.662,133.631 102.267,131.249 96.177,125.193 96.177,124.35 
		96.177,120.181 87.144,123.357 93.731,124.945 87.144,123.357 81.343,123.447 81.205,123.556 81.043,123.452 74.368,123.556 
		75.166,124.697 	"/>
	<polygon fill="#FCFCFC" points="70.076,137.75 69.476,137.402 68.478,140.381 	"/>
	<polygon fill="#FCFCFC" points="181.123,165.694 183.917,164.603 180.573,158.646 	"/>
	<polygon fill="#FCFCFC" points="75.166,124.697 74.368,123.556 72.87,126.979 67.48,133.928 71.822,133.432 	"/>
	<polygon fill="#FCFCFC" points="180.224,155.073 172.188,148.322 170.292,152.789 176.73,157.256 179.875,157.455 180.573,158.646 
		183.917,164.603 182.37,155.917 	"/>
	<polygon fill="#FCFCFC" points="71.293,141.794 70.076,137.75 68.478,140.381 	"/>
	<polygon fill="#FCFCFC" points="110.102,39.327 110.102,37.54 108.306,38.582 	"/>
	<path fill="#FCFCFC" d="M96.278,124.35l6.651-9.869c-1.24-0.528-0.352-1.853,2.682-3.979l-0.25-4.417
		c-2.229,1.655-5.29,3.689-9.184,6.105v7.991v4.169H96.278z"/>
	<polygon fill="#FCFCFC" points="104.063,36.845 100.071,39.228 104.313,40.965 108.306,38.582 	"/>
	<polygon fill="#FCFCFC" points="104.313,40.965 100.12,43.496 105.111,45.58 109.354,43.049 	"/>
	<polygon fill="#FCFCFC" points="105.111,45.58 110.102,47.616 110.102,43.347 109.354,43.049 	"/>
	<polygon fill="#FCFCFC" points="69.476,137.402 71.822,133.432 67.48,133.928 62.489,141.076 68.478,140.381 	"/>
	<polygon fill="#FCFCFC" points="72.87,147.032 71.293,141.794 68.478,140.381 62.489,141.076 62.34,142.665 69.078,143.161 	"/>
	<polygon fill="#FCFCFC" points="110.102,43.347 110.102,42.602 109.354,43.049 	"/>
	<path fill="#FCFCFC" d="M105.709,114.72c-1.326,0.07-2.247-0.012-2.781-0.239l-6.651,9.869
		C106.958,117.698,110.102,114.489,105.709,114.72z"/>
	<path fill="#FCFCFC" d="M102.929,114.481l2.682-3.979C102.577,112.628,101.689,113.953,102.929,114.481z"/>
	<path fill="#FCFCFC" d="M109.503,122.91c-0.169,0.081-0.332,0.137-0.499,0.208l-3.344,4.804
		C109.62,123.919,110.9,122.248,109.503,122.91z"/>
	<path fill="#FCFCFC" d="M104.662,124.002c1.351,0.09,2.802-0.219,4.343-0.883l4.741-6.811
		C106.226,121.306,103.198,123.87,104.662,124.002z"/>
	<path fill="#FCFCFC" d="M113.746,78.586c-3.761,2.913-6.655,5.328-8.684,7.248L113.746,78.586z"/>
	<path fill="#FCFCFC" d="M113.746,105.588c-3.541,1.946-6.253,3.584-8.135,4.914L113.746,105.588z"/>
	<path fill="#FCFCFC" d="M102.267,131.249c1.297-1.257,2.428-2.367,3.394-3.326L102.267,131.249z"/>
	<line fill="#FCFCFC" x1="70.076" y1="137.75" x2="68.478" y2="140.381"/>
	<line fill="#FCFCFC" x1="70.425" y1="176.812" x2="70.524" y2="177.358"/>
	<polygon fill="#FCFCFC" points="142.244,169.318 147.484,170.658 142.293,169.318 	"/>
	<path fill="#FCFCFC" d="M125.075,64.243c-0.013,0.004-0.024,0.007-0.037,0.01l0.013,0.004
		C125.059,64.253,125.066,64.248,125.075,64.243z"/>
	<path fill="#FCFCFC" d="M106.359,97.695c-0.832,1.39-0.233,2.234,1.796,2.532c0.208,0.027,0.387,0.066,0.552,0.112l5.039-8.649
		h-0.499C109.486,94.272,107.19,96.274,106.359,97.695z"/>
	<path fill="#FCFCFC" d="M108.707,100.339l-3.346,5.745C109.639,102.809,110.75,100.896,108.707,100.339z"/>
	<path fill="#FCFCFC" d="M122.33,68.81c-0.124-2.043,0.782-3.551,2.708-4.531l0.013-0.021
		C123.113,65.236,122.205,66.753,122.33,68.81z"/>
	<path fill="#FCFCFC" d="M101.618,90.896c0.095,0.189,0.307,0.313,0.586,0.397l2.857-5.46
		C102.333,88.415,101.185,90.103,101.618,90.896z"/>
	<path fill="#FCFCFC" d="M103.614,95.413c2.462-2.912,2.579-4.269,0.349-4.07c-0.786,0.098-1.356,0.073-1.759-0.049l-6.027,11.515
		C99.571,99.731,102.05,97.266,103.614,95.413z"/>
	<path fill="#FCFCFC" d="M122.28,68.81c0.012,0.001,0.016,0,0.024,0l-1.375-0.348C121.38,68.576,121.83,68.687,122.28,68.81z"/>
	<path fill="#FCFCFC" d="M96.177,112.189c3.894-2.416,6.954-4.451,9.184-6.105L96.177,112.189z"/>
	<path fill="#FCFCFC" d="M117.588,67.693c1.11,0.226,2.225,0.489,3.341,0.769c-1.113-0.285-2.227-0.555-3.341-0.794
		c-10.646-2.105-20.978-1.625-30.993,1.439C96.61,66.042,106.942,65.571,117.588,67.693z"/>
	<line fill="#FCFCFC" x1="62.34" y1="163.411" x2="62.34" y2="161.575"/>
	<polygon fill="#FCFCFC" points="175.333,165.595 178.327,166.787 181.123,165.694 177.528,164.553 	"/>
	<polygon fill="#FCFCFC" points="117.089,155.668 111.5,160.185 124.975,158.15 	"/>
	<line fill="#FCFCFC" x1="180.573" y1="158.646" x2="181.123" y2="165.694"/>
	<line fill="#FCFCFC" x1="126.972" y1="152.69" x2="126.223" y2="154.825"/>
	<polygon fill="#FCFCFC" points="112.598,161.922 127.321,163.212 117.638,159.44 	"/>
	<line fill="#FCFCFC" x1="171.041" y1="166.985" x2="166.998" y2="165.496"/>
	<polygon fill="#FCFCFC" points="169.145,167.581 171.041,166.985 164.802,167.581 	"/>
	<line fill="#FCFCFC" x1="110.102" y1="43.347" x2="110.102" y2="42.602"/>
	<path fill="#FCFCFC" d="M115.87,61.601c-0.007-0.248,0-0.509,0.021-0.783"/>
	<polygon fill="#FCFCFC" points="93.083,152.69 87.044,156.512 91.287,154.229 	"/>
	<line fill="#FCFCFC" x1="93.083" y1="152.69" x2="101.019" y2="155.073"/>
	<line fill="#FCFCFC" x1="94.88" y1="151.152" x2="93.083" y2="152.69"/>
	<polygon fill="#FCFCFC" points="179.875,157.455 176.73,157.256 180.573,158.646 	"/>
	<path fill="#FCFCFC" d="M125.05,64.257c0.017-0.005,0.033-0.009,0.05-0.014"/>
	<path fill="#FCFCFC" d="M126.073,63.846c-0.329,0.142-0.653,0.274-0.973,0.397"/>
	<polygon fill="#FCFCFC" points="90.487,144.402 89.34,148.422 88.342,149.514 87.693,152.988 93.482,142.417 	"/>
	<line fill="#FCFCFC" x1="94.281" y1="140.232" x2="92.185" y2="138.198"/>
	<line fill="#FCFCFC" x1="182.37" y1="155.917" x2="180.273" y2="150.01"/>
	<polygon fill="#FCFCFC" points="180.224,155.073 182.37,155.917 172.188,148.322 	"/>
	<polygon fill="#FCFCFC" points="98.374,132.738 102.316,138.842 107.757,141.82 99.205,133.543 99.072,133.482 	"/>
	<polygon fill="#FCFCFC" points="113.047,147.429 110.502,151.3 110.502,153.088 113.845,149.563 	"/>
	<polygon fill="#FCFCFC" points="95.08,131.844 92.933,128.568 92.185,138.198 	"/>
	<line fill="#FCFCFC" x1="157.615" y1="152.74" x2="162.906" y2="149.613"/>
	<line fill="#FCFCFC" x1="90.089" y1="140.778" x2="92.185" y2="138.198"/>
	<line fill="#FCFCFC" x1="75.166" y1="124.697" x2="71.822" y2="133.432"/>
	<line fill="#FCFCFC" x1="71.023" y1="166.29" x2="75.565" y2="169.318"/>
	<polygon fill="#FCFCFC" points="77.711,164.007 71.023,166.29 79.458,164.553 	"/>
	<line fill="#FCFCFC" x1="96.177" y1="102.809" x2="96.177" y2="112.189"/>
	<polygon fill="#FCFCFC" points="24.65,171.383 22.812,172.792 24.459,171.701 	"/>
	<polygon fill="#FCFCFC" points="27.802,166.141 24.65,171.383 33.043,164.949 	"/>
	<line fill="#FCFCFC" x1="70.076" y1="137.75" x2="69.476" y2="137.402"/>
	<line fill="#FCFCFC" x1="64.885" y1="163.46" x2="62.34" y2="163.411"/>
	<polygon fill="#FCFCFC" points="142.293,169.343 147.484,170.658 142.244,169.318 	"/>
	<polygon fill="#FCFCFC" points="132.66,149.266 132.91,145.245 129.666,149.613 130.814,151.896 	"/>
	<line fill="#FCFCFC" x1="45.271" y1="162.617" x2="40.38" y2="167.978"/>
	<polygon fill="#FCFCFC" points="40.28,157.752 40.579,162.617 45.819,154.676 	"/>
	<line fill="#FCFCFC" x1="40.579" y1="162.617" x2="45.271" y2="162.617"/>
	<line fill="#FCFCFC" x1="63.487" y1="162.766" x2="62.34" y2="161.575"/>
	<line fill="#FCFCFC" x1="46.518" y1="162.617" x2="45.271" y2="162.617"/>
	<line fill="#FCFCFC" x1="96.427" y1="164.603" x2="104.462" y2="161.922"/>
	<path fill="#FCFCFC" d="M117.588,67.693c-10.646-2.122-20.978-1.65-30.993,1.414l34.334-0.645
		C119.813,68.182,118.698,67.919,117.588,67.693z"/>
	<polygon fill="#FCFCFC" points="51.259,149.415 50.062,152.988 53.067,150.461 	"/>
	<line fill="#FCFCFC" x1="171.041" y1="166.985" x2="175.333" y2="165.595"/>
	<line fill="#FCFCFC" x1="113.746" y1="105.588" x2="113.746" y2="116.308"/>
	<line fill="#FCFCFC" x1="71.023" y1="166.29" x2="64.885" y2="163.46"/>
	<line fill="#FCFCFC" x1="113.746" y1="91.69" x2="113.746" y2="78.586"/>
	<polygon fill="#FCFCFC" points="183.261,158.646 182.37,155.917 183.917,164.603 188.11,165.694 190.004,163.362 	"/>
	<polygon fill="#FCFCFC" points="70.974,152.145 72.87,147.032 68.428,154.526 	"/>
	<line fill="#FCFCFC" x1="66.632" y1="156.115" x2="68.428" y2="154.526"/>
	<line fill="#FCFCFC" x1="68.728" y1="157.604" x2="68.428" y2="154.526"/>
	<polygon fill="#FCFCFC" points="67.03,167.779 61.79,171.75 71.023,166.29 	"/>
	<line fill="#FCFCFC" x1="172.088" y1="161.327" x2="175.333" y2="165.595"/>
	<line fill="#FCFCFC" x1="122.304" y1="68.81" x2="120.93" y2="68.461"/>
	<line fill="#FCFCFC" x1="94.331" y1="167.928" x2="105.46" y2="163.212"/>
	<polygon fill="#FCFCFC" points="64.885,163.46 57.599,171.303 64.885,164.503 	"/>
	<line fill="#FCFCFC" x1="183.917" y1="164.603" x2="180.573" y2="158.646"/>
	<line fill="#FCFCFC" x1="183.917" y1="164.603" x2="181.123" y2="165.694"/>
	<path fill="#FCFCFC" d="M97.775,42.305v-1.737C97.329,41.083,97.329,41.663,97.775,42.305z"/>
	<line fill="#FCFCFC" x1="97.775" y1="49.948" x2="100.719" y2="48.211"/>
	<path fill="#FCFCFC" d="M97.775,38.284v-4.069C96.994,35.75,96.994,37.107,97.775,38.284z"/>
	<path fill="#FCFCFC" d="M97.775,49.948V46.97C97.016,48.089,97.016,49.082,97.775,49.948z"/>
	<line fill="#FCFCFC" x1="97.775" y1="42.305" x2="97.775" y2="44.886"/>
	<line fill="#FCFCFC" x1="97.775" y1="51.239" x2="102.316" y2="53.125"/>
	<line fill="#FCFCFC" x1="105.062" y1="85.834" x2="105.062" y2="78.041"/>
	<line fill="#FCFCFC" x1="113.746" y1="105.588" x2="113.746" y2="91.69"/>
	<line fill="#FCFCFC" x1="101.168" y1="78.041" x2="105.062" y2="78.041"/>
	<line fill="#FCFCFC" x1="105.062" y1="78.041" x2="108.954" y2="78.041"/>
	<polygon fill="#FCFCFC" points="104.662,133.631 105.66,132.638 102.267,131.249 	"/>
	<line fill="#FCFCFC" x1="113.746" y1="118.542" x2="113.746" y2="116.308"/>
	<line fill="#FCFCFC" x1="105.361" y1="106.084" x2="105.61" y2="110.501"/>
	<line fill="#FCFCFC" x1="96.177" y1="120.181" x2="96.177" y2="124.35"/>
	<line fill="#FCFCFC" x1="96.278" y1="124.35" x2="96.177" y2="124.35"/>
	<line fill="#FCFCFC" x1="96.177" y1="74.22" x2="96.177" y2="102.809"/>
	<polygon fill="#FCFCFC" points="90.188,121.223 87.144,123.357 96.177,120.181 	"/>
	<line fill="#FCFCFC" x1="96.177" y1="112.189" x2="96.177" y2="120.181"/>
	<line fill="#FCFCFC" x1="87.144" y1="123.357" x2="93.731" y2="124.945"/>
	<line fill="#FCFCFC" x1="157.167" y1="137.402" x2="152.724" y2="136.36"/>
	<line fill="#FCFCFC" x1="124.975" y1="158.15" x2="127.321" y2="163.212"/>
	<line fill="#FCFCFC" x1="130.564" y1="159.639" x2="130.065" y2="163.759"/>
	<polygon fill="#FCFCFC" points="157.814,145.99 158.664,143.359 153.373,149.167 	"/>
	<path fill="#FCFCFC" d="M110.102,61.463H97.775C101.234,63.283,105.344,63.283,110.102,61.463z"/>
	<line fill="#FCFCFC" x1="102.715" y1="57.84" x2="97.775" y2="60.769"/>
	<line fill="#FCFCFC" x1="105.66" y1="127.923" x2="105.66" y2="132.638"/>
	<line fill="#FCFCFC" x1="97.775" y1="55.806" x2="102.715" y2="57.84"/>
	<polygon fill="#FCFCFC" points="158.664,143.359 152.724,136.36 154.671,140.53 	"/>
	<line fill="#FCFCFC" x1="116.74" y1="137.502" x2="118.686" y2="142.118"/>
	<line fill="#FCFCFC" x1="113.895" y1="132.688" x2="111.55" y2="139.041"/>
	<line fill="#FCFCFC" x1="128.519" y1="124.399" x2="128.917" y2="120.527"/>
	<line fill="#FCFCFC" x1="102.316" y1="53.125" x2="97.775" y2="55.806"/>
	<path fill="#FCFCFC" d="M110.102,48.459v3.624C110.866,50.875,110.866,49.667,110.102,48.459z"/>
	<line fill="#FCFCFC" x1="172.188" y1="148.322" x2="172.46" y2="145.311"/>
	<polygon fill="#FCFCFC" points="170.292,152.789 172.188,148.322 169.792,149.464 	"/>
	<polygon fill="#FCFCFC" points="165.6,151.797 168.345,160.234 167.098,154.229 	"/>
	<line fill="#FCFCFC" x1="167.148" y1="143.707" x2="165.701" y2="147.926"/>
	<line fill="#FCFCFC" x1="162.956" y1="162.865" x2="164.752" y2="166.141"/>
	<line fill="#FCFCFC" x1="164.802" y1="167.581" x2="166.998" y2="165.496"/>
	<line fill="#FCFCFC" x1="158.713" y1="168.027" x2="159.013" y2="165.347"/>
	<line fill="#FCFCFC" x1="100.12" y1="43.496" x2="97.775" y2="44.886"/>
	<line fill="#FCFCFC" x1="97.775" y1="51.239" x2="97.775" y2="49.948"/>
	<line fill="#FCFCFC" x1="100.719" y1="48.211" x2="97.775" y2="46.97"/>
	<path fill="#FCFCFC" d="M110.102,33.222v4.318C110.753,36,110.753,34.562,110.102,33.222z"/>
	<line fill="#FCFCFC" x1="142.244" y1="169.318" x2="142.343" y2="167.481"/>
	<line fill="#FCFCFC" x1="104.063" y1="36.845" x2="110.102" y2="33.222"/>
	<line fill="#FCFCFC" x1="100.071" y1="39.228" x2="104.063" y2="36.845"/>
	<path fill="#FCFCFC" d="M97.775,46.97v-2.084C97.16,45.508,97.16,46.204,97.775,46.97z"/>
	<path fill="#FCFCFC" d="M97.775,34.215v-5.609C97.005,30.476,97.005,32.345,97.775,34.215z"/>
	<line fill="#FCFCFC" x1="97.775" y1="38.284" x2="97.775" y2="40.567"/>
	<line fill="#FCFCFC" x1="87.992" y1="170.311" x2="86.445" y2="169.02"/>
	<line fill="#FCFCFC" x1="87.693" y1="152.988" x2="87.044" y2="156.512"/>
	<line fill="#FCFCFC" x1="105.46" y1="163.212" x2="104.462" y2="161.922"/>
	<line fill="#FCFCFC" x1="130.065" y1="163.759" x2="127.321" y2="163.212"/>
	<line fill="#FCFCFC" x1="94.331" y1="167.928" x2="93.383" y2="169.367"/>
	<line fill="#FCFCFC" x1="74.966" y1="173.09" x2="75.416" y2="176.018"/>
	<line fill="#FCFCFC" x1="45.819" y1="154.676" x2="46.518" y2="162.617"/>
	<line fill="#FCFCFC" x1="109.354" y1="43.049" x2="105.111" y2="45.58"/>
	<line fill="#FCFCFC" x1="57.599" y1="171.303" x2="61.79" y2="171.75"/>
	<line fill="#FCFCFC" x1="74.966" y1="173.09" x2="75.565" y2="169.318"/>
	<line fill="#FCFCFC" x1="96.676" y1="174.132" x2="96.177" y2="175.919"/>
	<line fill="#FCFCFC" x1="116.541" y1="173.189" x2="96.676" y2="174.132"/>
	<line fill="#FCFCFC" x1="96.676" y1="174.132" x2="93.383" y2="169.367"/>
	<line fill="#FCFCFC" x1="94.331" y1="167.928" x2="103.713" y2="168.772"/>
	<line fill="#FCFCFC" x1="111.5" y1="160.185" x2="112.598" y2="161.922"/>
	<line fill="#FCFCFC" x1="107.557" y1="171.65" x2="103.713" y2="168.772"/>
	<line fill="#FCFCFC" x1="96.676" y1="174.132" x2="103.713" y2="168.772"/>
	<line fill="#FCFCFC" x1="97.775" y1="61.463" x2="97.775" y2="60.769"/>
	<line fill="#FCFCFC" x1="110.102" y1="43.347" x2="109.354" y2="43.049"/>
	<line fill="#FCFCFC" x1="110.102" y1="47.616" x2="105.111" y2="45.58"/>
	<line fill="#FCFCFC" x1="110.102" y1="39.327" x2="108.306" y2="38.582"/>
	<line fill="#FCFCFC" x1="108.306" y1="38.582" x2="110.102" y2="37.54"/>
	<line fill="#FCFCFC" x1="106.509" y1="50.594" x2="100.719" y2="48.211"/>
	<line fill="#FCFCFC" x1="110.102" y1="39.327" x2="110.102" y2="37.54"/>
	<path fill="#FCFCFC" d="M110.102,56.351v4.517C110.897,59.31,110.897,57.804,110.102,56.351z"/>
	<line fill="#FCFCFC" x1="110.102" y1="48.459" x2="106.509" y2="50.594"/>
	<line fill="#FCFCFC" x1="97.775" y1="40.567" x2="100.071" y2="39.228"/>
	<line fill="#FCFCFC" x1="97.775" y1="34.215" x2="104.063" y2="36.845"/>
	<line fill="#FCFCFC" x1="97.775" y1="38.284" x2="100.071" y2="39.228"/>
	<line fill="#FCFCFC" x1="107.207" y1="55.16" x2="110.102" y2="56.351"/>
	<line fill="#FCFCFC" x1="97.775" y1="42.305" x2="100.12" y2="43.496"/>
	<path fill="#FCFCFC" d="M110.102,27.613v5.609C110.955,31.413,110.955,29.543,110.102,27.613z"/>
	<path fill="#FCFCFC" d="M101.019,32.825c0.964,2.151,2.129,2.151,3.494,0c0.333-0.794,0.782-1.473,1.347-2.035
		c0.565-0.596,1.248-1.092,2.046-1.488c0.899-0.431,1.631-0.993,2.196-1.688c0.965-1.191,1.431-2.713,1.398-4.566
		c-0.067-0.43-0.167-0.845-0.3-1.241c-1.131-4.071-3.71-6.072-7.736-6.007c-3.993,0.067-6.421,1.969-7.287,5.708
		c-0.099,0.463-0.183,0.943-0.25,1.44c0.2,2.548,0.815,4.434,1.847,5.658c0.299,0.331,0.648,0.613,1.048,0.843
		C99.887,30.111,100.62,31.237,101.019,32.825z"/>
	<path fill="#FCFCFC" d="M110.102,43.347v4.27C110.834,46.127,110.834,44.704,110.102,43.347z"/>
	<path fill="#FCFCFC" d="M110.102,39.327v3.275C110.586,41.278,110.586,40.187,110.102,39.327z"/>
	<line fill="#FCFCFC" x1="100.12" y1="43.496" x2="104.313" y2="40.965"/>
	<line fill="#FCFCFC" x1="100.719" y1="48.211" x2="105.111" y2="45.58"/>
	<line fill="#FCFCFC" x1="110.102" y1="47.616" x2="110.102" y2="48.459"/>
	<line fill="#FCFCFC" x1="102.316" y1="53.125" x2="106.509" y2="50.594"/>
	<line fill="#FCFCFC" x1="109.354" y1="43.049" x2="104.313" y2="40.965"/>
	<line fill="#FCFCFC" x1="100.12" y1="43.496" x2="105.111" y2="45.58"/>
	<line fill="#FCFCFC" x1="108.306" y1="38.582" x2="104.313" y2="40.965"/>
	<line fill="#FCFCFC" x1="100.071" y1="39.228" x2="104.313" y2="40.965"/>
	<line fill="#FCFCFC" x1="104.063" y1="36.845" x2="108.306" y2="38.582"/>
	<line fill="#FCFCFC" x1="110.102" y1="52.083" x2="110.102" y2="53.423"/>
	<line fill="#FCFCFC" x1="102.316" y1="53.125" x2="107.207" y2="55.16"/>
	<line fill="#FCFCFC" x1="107.207" y1="55.16" x2="102.715" y2="57.84"/>
	<line fill="#FCFCFC" x1="106.509" y1="50.594" x2="110.102" y2="52.083"/>
	<line fill="#FCFCFC" x1="110.102" y1="60.868" x2="102.715" y2="57.84"/>
	<line fill="#FCFCFC" x1="107.207" y1="55.16" x2="110.102" y2="53.423"/>
	<line fill="#FCFCFC" x1="110.102" y1="61.463" x2="110.102" y2="60.868"/>
	<path fill="#FCFCFC" d="M110.102,53.423v2.928C110.75,55.375,110.75,54.399,110.102,53.423z"/>
	<line fill="#FCFCFC" x1="110.102" y1="42.602" x2="109.354" y2="43.049"/>
	<line fill="#FCFCFC" x1="158.713" y1="168.027" x2="147.484" y2="170.658"/>
	<line fill="#FCFCFC" x1="162.956" y1="162.865" x2="168.345" y2="160.234"/>
	<polygon fill="#FCFCFC" points="158.563,159.44 159.562,160.482 162.956,162.865 157.615,152.74 	"/>
	<polygon fill="#FCFCFC" points="158.713,168.027 164.802,167.581 160.46,167.581 	"/>
	<polygon fill="#FCFCFC" points="144.294,153.335 153.373,149.167 144.988,144.948 139,139.388 134.308,152.045 130.465,155.569 
		130.765,157.703 130.564,159.639 137.129,156.625 136.454,158.101 142.343,167.481 145.462,160.207 147.383,157.803 
		147.833,154.676 144.339,153.435 	"/>
	<line fill="#FCFCFC" x1="109.304" y1="166.339" x2="107.557" y2="171.65"/>
	<polygon fill="#FCFCFC" points="107.557,171.65 116.541,173.189 112.897,171.502 	"/>
	<polygon fill="#FCFCFC" points="112.049,167.779 118.287,166.687 127.321,163.212 109.304,166.339 	"/>
	<line fill="#FCFCFC" x1="112.598" y1="161.922" x2="109.304" y2="166.339"/>
	<line fill="#FCFCFC" x1="116.541" y1="173.189" x2="132.012" y2="169.318"/>
	<polygon fill="#FCFCFC" points="133.26,168.176 130.065,163.759 132.012,169.318 133.06,169.02 	"/>
	<polygon fill="#FCFCFC" points="133.409,170.956 139.056,169.318 132.012,169.318 	"/>
	<polygon fill="#FCFCFC" points="139.056,169.318 142.244,169.318 140.596,168.871 	"/>
	<line fill="#FCFCFC" x1="132.012" y1="169.318" x2="131.612" y2="168.871"/>
	<polygon fill="#FCFCFC" points="151.477,160.632 149.181,163.907 159.013,165.347 155.17,154.477 150.978,156.066 	"/>
	<line fill="#FCFCFC" x1="162.906" y1="149.613" x2="163.854" y2="149.066"/>
	<line fill="#FCFCFC" x1="165.6" y1="151.797" x2="163.854" y2="149.066"/>
	<line fill="#FCFCFC" x1="168.345" y1="160.234" x2="166.998" y2="165.496"/>
	<polygon fill="#FCFCFC" points="165.202,140.828 162.307,140.629 166.848,142.813 	"/>
	<line fill="#FCFCFC" x1="163.854" y1="149.066" x2="165.701" y2="147.926"/>
	<polygon fill="#FCFCFC" points="162.307,140.629 157.167,137.402 159.462,140.381 	"/>
	<line fill="#FCFCFC" x1="158.664" y1="143.359" x2="160.46" y2="142.019"/>
	<line fill="#FCFCFC" x1="113.746" y1="74.22" x2="113.746" y2="78.586"/>
	<line fill="#FCFCFC" x1="170.292" y1="152.789" x2="176.73" y2="157.256"/>
	<line fill="#FCFCFC" x1="170.292" y1="152.789" x2="165.6" y2="151.797"/>
	<polygon fill="#FCFCFC" points="174.035,160.136 176.73,157.256 172.088,161.327 	"/>
	<line fill="#FCFCFC" x1="168.345" y1="160.234" x2="172.088" y2="161.327"/>
	<polygon fill="#FCFCFC" points="176.775,147.231 172.587,143.905 176.775,147.231 179.226,148.322 176.431,142.863 
		172.039,140.928 166.848,142.813 172.46,145.311 	"/>
	<line fill="#FCFCFC" x1="176.775" y1="147.231" x2="180.273" y2="150.01"/>
	<line fill="#FCFCFC" x1="176.775" y1="147.231" x2="172.587" y2="143.905"/>
	<line fill="#FCFCFC" x1="94.331" y1="167.928" x2="96.427" y2="164.603"/>
	<line fill="#FCFCFC" x1="28.102" y1="175.423" x2="30.897" y2="175.373"/>
	<line fill="#FCFCFC" x1="25.257" y1="178.251" x2="31.197" y2="179.741"/>
	<line fill="#FCFCFC" x1="40.28" y1="170.559" x2="30.897" y2="175.373"/>
	<polygon fill="#FCFCFC" points="42.076,179.741 44.647,178.737 31.197,179.741 	"/>
	<polygon fill="#FCFCFC" points="54.953,179.294 70.425,176.812 51.871,178.198 	"/>
	<line fill="#FCFCFC" x1="28.052" y1="175.373" x2="33.043" y2="164.949"/>
	<line fill="#FCFCFC" x1="28.052" y1="175.373" x2="28.102" y2="175.423"/>
	<line fill="#FCFCFC" x1="25.257" y1="178.251" x2="28.102" y2="175.423"/>
	<polygon fill="#FCFCFC" points="55.289,171.204 57.599,171.303 55.501,171.055 	"/>
	<polygon fill="#FCFCFC" points="51.808,173.635 55.289,171.204 40.28,170.559 	"/>
	<line fill="#FCFCFC" x1="22.812" y1="172.792" x2="28.052" y2="175.373"/>
	<polygon fill="#FCFCFC" points="21.114,173.834 18.52,177.905 24.409,179.096 25.257,178.251 22.812,172.792 	"/>
	<polygon fill="#FCFCFC" points="34.89,161.227 33.043,164.949 40.579,162.617 	"/>
	<line fill="#FCFCFC" x1="40.28" y1="170.559" x2="40.38" y2="167.978"/>
	<line fill="#FCFCFC" x1="40.579" y1="162.617" x2="40.38" y2="167.978"/>
	<polygon fill="#FCFCFC" points="106.958,151.797 103.065,150.506 97.276,140.083 93.333,143.309 94.082,150.656 94.88,151.152 
		111.5,160.185 	"/>
	<polygon fill="#FCFCFC" points="52.307,159.986 49.513,158.795 46.518,162.617 53.718,162.978 	"/>
	<polygon fill="#FCFCFC" points="62.34,163.411 53.718,162.978 53.805,163.163 	"/>
	<line fill="#FCFCFC" x1="93.383" y1="169.367" x2="86.445" y2="169.02"/>
	<line fill="#FCFCFC" x1="96.177" y1="175.919" x2="87.992" y2="170.311"/>
	<polygon fill="#FCFCFC" points="89.141,166.042 91.236,167.333 92.684,164.603 96.427,164.603 91.626,160.462 92.933,156.562 
		92.085,155.767 89.369,158.516 87.044,156.512 84.449,158.994 	"/>
	<line fill="#FCFCFC" x1="165.701" y1="147.926" x2="160.46" y2="142.019"/>
	<line fill="#FCFCFC" x1="70.425" y1="176.812" x2="75.416" y2="176.018"/>
	<polygon fill="#FCFCFC" points="107.058,161.029 101.019,155.073 104.462,161.922 	"/>
	<polygon fill="#FCFCFC" points="105.46,163.212 103.713,168.772 106.458,164.503 	"/>
	<polygon fill="#FCFCFC" points="80.557,164.851 79.458,164.553 86.445,169.02 83.301,164.949 	"/>
	<polygon fill="#FCFCFC" points="72.521,178.5 96.177,175.919 70.524,177.358 	"/>
	<polygon fill="#FCFCFC" points="73.819,143.061 76.314,143.061 73.819,143.061 73.819,145.344 73.819,143.061 71.293,141.794 
		72.87,147.032 74.617,148.818 79.059,150.804 84,147.23 83.151,145.395 70.076,137.75 71.293,141.794 	"/>
	<line fill="#FCFCFC" x1="61.79" y1="171.75" x2="74.966" y2="173.09"/>
	<polygon fill="#FCFCFC" points="79.708,159.639 79.458,164.553 87.693,152.988 	"/>
	<polygon fill="#FCFCFC" points="84,174.43 87.992,170.311 80.753,173.596 	"/>
	<polygon fill="#FCFCFC" points="75.416,176.018 80.753,173.596 79.558,173.288 	"/>
	<line fill="#FCFCFC" x1="31.197" y1="179.741" x2="30.897" y2="175.373"/>
	<polygon fill="#FCFCFC" points="82.453,171.452 86.445,169.02 75.565,169.318 	"/>
	<polygon fill="#FCFCFC" points="153.373,149.167 162.906,149.613 158.114,148.422 	"/>
	<line fill="#FCFCFC" x1="153.373" y1="149.167" x2="152.824" y2="149.514"/>
	<polygon fill="#FCFCFC" points="139.499,137.999 141.095,135.566 135.355,133.581 131.912,128.667 128.269,128.568 
		126.871,130.454 132.411,136.808 	"/>
	<polygon fill="#FCFCFC" points="147.833,154.676 152.824,149.514 148.232,151.698 	"/>
	<line fill="#FCFCFC" x1="157.615" y1="152.74" x2="155.319" y2="152.74"/>
	<polygon fill="#FCFCFC" points="138.649,128.717 128.519,124.399 139.336,129.745 	"/>
	<polygon fill="#FCFCFC" points="152.724,136.36 139.336,129.745 143.192,135.517 	"/>
	<line fill="#FCFCFC" x1="155.17" y1="154.477" x2="155.319" y2="152.74"/>
	<line fill="#FCFCFC" x1="155.319" y1="152.74" x2="152.824" y2="149.514"/>
	<polygon fill="#FCFCFC" points="96.177,125.193 102.267,131.249 96.177,124.35 	"/>
	<polygon fill="#FCFCFC" points="99.072,133.482 99.205,133.543 107.457,137.304 98.374,132.738 	"/>
	<line fill="#FCFCFC" x1="130.564" y1="159.639" x2="126.223" y2="154.825"/>
	<polygon fill="#FCFCFC" points="92.933,128.568 98.374,132.738 94.281,128.271 	"/>
	<polygon fill="#FCFCFC" points="107.008,140.53 112.847,144.65 107.457,137.304 	"/>
	<polygon fill="#FCFCFC" points="100.12,154.179 94.88,151.152 101.019,155.073 	"/>
	<polygon fill="#FCFCFC" points="118.737,148.77 120.633,151.698 126.972,152.69 112.847,144.65 	"/>
	<line fill="#FCFCFC" x1="126.223" y1="154.825" x2="124.975" y2="158.15"/>
	<line fill="#FCFCFC" x1="107.457" y1="137.304" x2="111.55" y2="139.041"/>
	<line fill="#FCFCFC" x1="113.895" y1="132.688" x2="107.457" y2="137.304"/>
	<path fill="#FCFCFC" d="M96.177,74.22h17.568C108.551,71.719,102.695,71.719,96.177,74.22z"/>
	<polygon fill="#FCFCFC" points="113.695,124.647 113.746,118.542 105.66,132.638 	"/>
	<line fill="#FCFCFC" x1="120.433" y1="123.208" x2="113.746" y2="118.542"/>
	<line fill="#FCFCFC" x1="113.746" y1="74.22" x2="130.715" y2="74.22"/>
	<polygon fill="#FCFCFC" points="128.519,124.399 119.085,133.532 123.427,131.149 	"/>
	<path fill="#FCFCFC" d="M122.304,68.81c0.009,0,0.021,0.001,0.025,0"/>
	<line fill="#FCFCFC" x1="112.847" y1="144.65" x2="111.55" y2="139.041"/>
	<polygon fill="#FCFCFC" points="113.895,132.688 120.433,123.208 114.544,130.802 	"/>
	<polygon fill="#FCFCFC" points="125.974,119.287 123.702,122.175 128.917,120.527 	"/>
	<polygon fill="#FCFCFC" points="113.445,134.971 116.74,137.502 119.085,133.532 	"/>
	<line fill="#FCFCFC" x1="111.55" y1="139.041" x2="118.686" y2="142.118"/>
	<line fill="#FCFCFC" x1="126.972" y1="152.69" x2="118.686" y2="142.118"/>
	<polygon fill="#FCFCFC" points="123.328,138.098 122.33,141.82 124.625,143.806 125.923,142.714 125.524,140.977 	"/>
	<path fill="#FCFCFC" d="M97.775,55.806v-4.567C96.524,52.63,96.524,54.153,97.775,55.806z"/>
	<path fill="#FCFCFC" d="M79.109,70.646c2.717-0.271,5.212-0.784,7.486-1.539L79.109,70.646z"/>
	<path fill="#FCFCFC" d="M82.702,64.392c3.604,1.484,4.902,3.056,3.893,4.715l2.841-4.547
		C88.088,65.268,85.849,65.216,82.702,64.392z"/>
	<path fill="#FCFCFC" d="M97.775,60.769v-4.963C96.896,57.459,96.896,59.114,97.775,60.769z"/>
	<path fill="#FCFCFC" d="M79.109,70.646h-0.05c-0.1-0.099-0.183-0.181-0.25-0.248c-0.6-0.596-1.315-0.893-2.146-0.893
		s-1.547,0.297-2.146,0.893c-0.598,0.596-0.897,1.308-0.897,2.134s0.299,1.539,0.897,2.134c0.6,0.596,1.315,0.893,2.146,0.893
		s1.547-0.297,2.146-0.893c0.133-0.132,0.266-0.281,0.399-0.446c0.332-0.497,0.499-1.059,0.499-1.688
		C79.708,71.837,79.508,71.208,79.109,70.646z"/>
	<polygon fill="#FCFCFC" points="84.3,121.124 81.343,123.447 87.144,123.357 	"/>
	<polygon fill="#FCFCFC" points="81.343,123.447 81.043,123.452 81.205,123.556 	"/>
	<polygon fill="#FCFCFC" points="75.865,120.131 74.368,123.556 81.043,123.452 	"/>
	<line fill="#FCFCFC" x1="96.177" y1="74.22" x2="79.208" y2="74.22"/>
	<path fill="#FCFCFC" d="M130.065,72.383c0,0.695,0.216,1.308,0.649,1.837c0.066,0.099,0.149,0.198,0.25,0.297
		c0.599,0.595,1.314,0.894,2.146,0.894s1.547-0.299,2.146-0.894c0.599-0.595,0.897-1.307,0.897-2.134
		c0-0.827-0.299-1.539-0.897-2.134c-0.6-0.596-1.315-0.893-2.146-0.893s-1.547,0.297-2.146,0.893
		c-0.134,0.132-0.233,0.265-0.3,0.397h-0.05v0.05C130.249,71.192,130.065,71.754,130.065,72.383z"/>
	<polygon fill="#FCFCFC" points="145.878,130.66 145.493,130.43 145.587,130.653 	"/>
	<polygon fill="#FCFCFC" points="143.791,126.384 138.251,124.945 136.903,120.826 134.458,120.627 131.063,121.471 
		128.917,120.527 145.493,130.43 	"/>
	<polygon fill="#FCFCFC" points="157.167,132.539 152.075,130.802 145.878,130.66 157.167,137.402 	"/>
	<line fill="#FCFCFC" x1="67.48" y1="133.928" x2="71.822" y2="133.432"/>
	<line fill="#FCFCFC" x1="160.46" y1="142.019" x2="162.307" y2="140.629"/>
	<path fill="#FCFCFC" d="M122.33,68.81c2.552,0.856,5.314,1.468,8.285,1.836L122.33,68.81z"/>
	<line fill="#FCFCFC" x1="69.476" y1="137.402" x2="71.822" y2="133.432"/>
	<line fill="#FCFCFC" x1="73.819" y1="143.061" x2="73.819" y2="145.344"/>
	<polygon fill="#FCFCFC" points="63.537,157.604 66.632,151.747 65.334,150.656 61.342,155.321 62.34,157.604 	"/>
	<polygon fill="#FCFCFC" points="56.723,157.647 62.34,161.575 58.846,157.951 	"/>
	<polygon fill="#FCFCFC" points="56.723,157.647 50.062,152.988 53.655,157.207 	"/>
	<line fill="#FCFCFC" x1="76.314" y1="143.061" x2="73.819" y2="143.061"/>
	<polygon fill="#FCFCFC" points="88.292,136.36 87.443,134.623 86.146,134.574 82.502,137.999 83.7,140.381 86.845,139.636 	"/>
	<polygon fill="#FCFCFC" points="80.755,128.816 87.044,129.76 92.933,128.568 75.166,124.697 	"/>
	<line fill="#FCFCFC" x1="75.166" y1="124.697" x2="74.368" y2="123.556"/>
	<line fill="#FCFCFC" x1="62.34" y1="142.665" x2="62.489" y2="141.076"/>
	<line fill="#FCFCFC" x1="71.293" y1="141.794" x2="68.478" y2="140.381"/>
	<line fill="#FCFCFC" x1="73.819" y1="143.061" x2="71.293" y2="141.794"/>
	<line fill="#FCFCFC" x1="68.478" y1="140.381" x2="62.489" y2="141.076"/>
	<polygon fill="#FCFCFC" points="69.078,143.161 62.34,142.665 72.87,147.032 	"/>
	<polygon fill="#FCFCFC" points="63.837,136.014 62.489,141.076 67.48,133.928 	"/>
	<line fill="#FCFCFC" x1="69.476" y1="137.402" x2="68.478" y2="140.381"/>
</g>
<g>
	<g transform="matrix( 1, 0, 0, 1, 0,0) ">
		<g>
			<g id="Layer2_0_FILL_2_">
				<path fill="#663366" d="M165.455,152.088l1.493,2.441l1.247,6.025l3.734,1.096l1.941-1.197l2.689-2.887l-6.424-4.483
					L165.455,152.088 M176.259,143.125l-4.383-1.941l-5.178,1.892l5.727,1.096l7.668,6.124l-1.044-1.692L176.259,143.125
					 M165.056,141.083l-2.888-0.2l-1.841,1.394l5.227,5.926l1.446-4.231l-1.446,4.231l-1.842,1.146l1.744,2.739l4.68,0.995
					l-0.499-3.335l2.39-1.146l0.399-4.431l-5.727-1.096L165.056,141.083 M96.685,174.496l-3.286-4.778l-6.922-0.35l1.543,1.296
					l8.167,5.628L96.685,174.496 M112.869,171.857l-5.328,0.15l-3.835-2.889l-7.021,5.377l19.819-0.943L112.869,171.857
					 M22.985,173.153l-1.693,1.044l-2.589,4.084l5.876,1.194l0.846-0.845l2.838-2.84l-0.05-0.049L22.985,173.153 M31.053,175.742
					l-2.789,0.049l-2.838,2.84l5.926,1.493L31.053,175.742 M75.023,173.451l0.448,2.938l4.134-2.739l4.431,1.145l3.984-4.133
					l-1.543-1.296l-3.984,2.441l-6.871-2.14L75.023,173.451 M70.492,177.186l4.979-0.796l-0.448-2.938l-13.146-1.345l-4.182-0.448
					l-2.092-0.249l-3.686,2.589l-11.503-3.086l-9.361,4.831l0.299,4.382h10.854l6.723-2.641l6.126,2.192L70.492,177.186
					 M70.492,177.186l0.099,0.547l1.992,1.147l23.604-2.589l-8.167-5.628l-3.984,4.133l-4.431-1.145l-4.134,2.739L70.492,177.186
					 M50.174,153.283l-1.245,3.486l-2.988-1.791l0.698,7.966l2.988-3.833l2.789,1.194l1.494,3.188l8.516,0.249v-1.842l-3.485-3.636
					l-5.179-0.746L50.174,153.283 M67.553,134.161l-3.634,2.091l-1.345,5.079l5.976-0.697l0.996-2.988l2.341-3.983L67.553,134.161
					 M35.037,161.549l-1.843,3.734l-4.98,10.458l0.05,0.049l2.789-0.049l9.361-4.831l0.101-2.589l0.198-5.379L35.037,161.549
					 M153.254,149.45l4.729-0.749l4.782,1.197l0.945-0.549l1.842-1.146l-5.227-5.926l-1.793,1.345l-0.847,2.641L153.254,149.45
					 M155.048,154.778l0.148-1.744l-2.489-3.237l-4.582,2.192l-0.398,2.988l-0.448,3.136l-4.83,6.076l-0.199,3.636l-0.1,1.843h0.05
					l5.179,1.342l11.204-2.638l0.298-2.689l-9.809-1.444l2.292-3.286l-0.499-4.582L155.048,154.778 M157.486,153.034h-2.291
					l-0.148,1.744l-0.599,5.626l4.431,5.279l-0.298,2.689l1.744-0.448h4.331l2.192-2.091l1.345-5.278l-5.378,2.638l1.793,3.288
					l-1.793-3.288l-3.387-2.39l-0.997-1.046L157.486,153.034 M124.92,158.463l2.34,5.079l2.739,0.547l0.498-4.133l-4.332-4.83
					L124.92,158.463 M134.231,152.337l-3.834,3.537l0.299,2.141l-0.199,1.941l-0.498,4.133l3.188,4.431l-0.2,0.847l-1.045,0.301
					l1.394,1.643l7.171-2.091l1.644,0.449l0.1-1.843l-5.876-9.412l4.283-9.412h1.444l2.141,4.729l3.486,1.247l0.398-2.988
					l4.582-2.192l0.548-0.347l-8.366-4.234l-5.976-5.577L134.231,152.337 M157.039,137.646l-4.432-1.044l1.942,4.183l3.984,2.837
					l1.793-1.345l1.841-1.394l-2.839-0.249L157.039,137.646 M145.486,130.875l-1.792-4.284l-5.527-1.443l-1.345-4.133l-2.439-0.199
					l-3.387,0.847l-2.142-0.946l-0.397,3.884l10.108,4.331l4.532,6.823l9.511,0.847l4.432,1.044v-4.879l-5.08-1.742L145.486,130.875
					 M103.706,169.119l-9.361-0.847l-0.946,1.446l3.286,4.778L103.706,169.119 M112.023,168.124l-2.739-1.444l-1.743,5.328
					l5.328-0.15l3.635,1.695l15.438-3.884l-0.399-0.449l0.399,0.449l1.045-0.301l0.2-0.847l-3.188-4.431l-2.739-0.547l-9.013,3.485
					L112.023,168.124 M87.075,156.82l0.646-3.537l-7.967,6.673l-0.249,4.931l1.096,0.298l2.739,0.099l3.137,4.083l6.922,0.35
					l0.946-1.446l2.091-3.335h-3.735l-1.445,2.739l-2.09-1.296l-4.681-7.072L87.075,156.82 M79.107,151.093l4.929-3.586
					l-0.846-1.843l-13.046-7.668l-1.594,2.638l5.329,2.69h2.49h-2.49v2.291v-2.291l-5.329-2.69l-5.976,0.697l-0.149,1.594l6.723,0.5
					l3.785,3.882l1.743,1.793L79.107,151.093 M97.283,140.336l-3.934,3.237l0.747,7.37l0.796,0.498l5.229,3.04l0.897,0.896
					l6.025,5.976l-2.59,0.895l0.996,1.295l0.996,1.295l-2.738,4.281l3.835,2.889l1.743-5.328l3.287-4.433l-1.096-1.742l-4.532-8.417
					l-3.883-1.296L97.283,140.336 M113.865,132.917l-2.34,6.373l7.12,3.089l-1.941-4.631l-3.287-2.54l5.627-1.443l4.332-2.392
					l5.08-6.771l0.397-3.884l-2.937-1.247l-3.934,5.03l-1.594-1.096l-5.875,7.621L113.865,132.917 M111.525,139.29l1.294,5.628
					l5.876,4.133l1.892,2.938l6.325,0.995l-8.267-10.606L111.525,139.29 M107.441,137.548l-0.447,3.237l5.826,4.133l-1.294-5.628
					L107.441,137.548 M105.648,132.866l-0.996,0.998l-2.39-2.39l-6.076-6.076v-0.848v-4.182l-5.976,1.046l-3.037,2.141l6.573,1.594
					l-6.573-1.594l-2.838-2.241l-3.087,2.441l-5.328-3.436l-1.494,3.436l0.796,1.145l5.577,4.133l6.275,0.946l5.875-1.194
					l1.345-0.298l4.083,4.481l0.697,0.746l8.366,3.835l6.424-4.631l0.648-1.892l5.875-7.621l-6.672-4.68l-0.051,6.125
					L105.648,132.866 M105.648,128.136c-0.963,0.961-2.091,2.076-3.386,3.337l2.39,2.39l0.996-0.998V128.136 M113.716,118.725
					v-2.242c-7.503,5.014-10.524,7.587-9.063,7.72c1.494,0.099,3.104-0.267,4.831-1.096c1.394-0.664,0.115,1.013-3.835,5.03v4.729
					l8.017-8.016L113.716,118.725 M96.187,112.35v8.018v4.182h0.101c10.656-6.672,13.793-9.891,9.411-9.66
					c-4.395,0.233-4.429-1.179-0.1-4.232l-0.249-4.432C103.125,107.885,100.072,109.927,96.187,112.35 M113.716,91.785h-0.498
					c-3.752,2.589-6.043,4.597-6.873,6.025c-0.83,1.395-0.232,2.242,1.792,2.54c2.756,0.366,1.826,2.325-2.788,5.877l0.249,4.432
					c1.878-1.334,4.584-2.977,8.118-4.931V91.785 M113.716,78.639v-4.382c-5.183-2.508-11.026-2.508-17.529,0v28.681
					c3.387-3.086,5.86-5.559,7.42-7.419c2.457-2.921,2.573-4.281,0.348-4.084c-1.328,0.168-2.108,0.018-2.34-0.448
					c-0.432-0.796,0.714-2.488,3.436-5.077v-7.82h-3.884h3.884h3.884h-3.884v7.82C107.076,83.982,109.963,81.56,113.716,78.639
					 M130.546,70.67v0.052c-0.365,0.498-0.547,1.06-0.547,1.692c0,0.697,0.216,1.312,0.648,1.843
					c0.066,0.099,0.148,0.199,0.249,0.298c0.598,0.596,1.312,0.897,2.141,0.897c0.83,0,1.544-0.301,2.142-0.897
					s0.896-1.311,0.896-2.141c0-0.832-0.299-1.544-0.896-2.143c-0.598-0.596-1.312-0.896-2.142-0.896
					c-0.829,0-1.543,0.3-2.141,0.896c-0.133,0.132-0.232,0.267-0.299,0.399H130.546 M107.192,55.135l-4.481,2.688l7.37,3.037
					c0.794-1.562,0.794-3.073,0-4.53L107.192,55.135 M102.71,57.823l4.481-2.688l-4.879-2.042l-4.532,2.689L102.71,57.823
					 M110.08,48.411v-0.845l-4.979-2.042l-4.382,2.638l5.777,2.392L110.08,48.411 M110.08,56.33c0.647-0.979,0.647-1.959,0-2.938
					l-2.888,1.744L110.08,56.33 M110.08,53.391v-1.345l-3.584-1.493l-4.183,2.54l4.879,2.042L110.08,53.391 M110.08,52.046
					c0.763-1.21,0.763-2.423,0-3.636l-3.584,2.143L110.08,52.046 M97.781,55.783c-0.877,1.659-0.877,3.32,0,4.979l4.93-2.938
					L97.781,55.783 M97.781,60.761v0.697c3.452,1.827,7.553,1.827,12.299,0V60.86l-7.37-3.037L97.781,60.761 M86.626,69.126
					c-2.269,0.758-4.759,1.271-7.47,1.544c0.398,0.565,0.597,1.195,0.597,1.892c0,0.632-0.166,1.197-0.498,1.695h16.931
					c6.503-2.508,12.346-2.508,17.529,0h16.931c-0.432-0.531-0.648-1.146-0.648-1.843c0-0.632,0.183-1.194,0.547-1.692V70.67
					c-2.963-0.37-5.719-0.982-8.266-1.842c-0.01,0.002-0.026,0.002-0.05,0c-1.559-0.426-3.12-0.807-4.681-1.146
					C106.927,65.571,96.619,66.053,86.626,69.126 M82.742,64.396c3.596,1.488,4.891,3.064,3.885,4.729
					c9.992-3.073,20.3-3.555,30.923-1.443c1.561,0.338,3.122,0.72,4.681,1.146c0.023,0.002,0.04,0.002,0.05,0
					c-0.125-2.073,0.787-3.6,2.738-4.582c-3.087,0.937-5.394,1.152-6.921,0.648c-1.664-0.525-2.411-1.885-2.241-4.084
					c-1.522,3.322-3.448,3.537-5.777,0.647c-4.747,1.827-8.848,1.827-12.299,0c-0.332,0.785-1.161,1.433-2.49,1.941
					c-1.326,0.544-2.77,0.13-4.333-1.244C90.693,65.022,87.954,65.769,82.742,64.396 M97.781,49.906v1.293l4.532,1.894l4.183-2.54
					l-5.777-2.392L97.781,49.906 M97.781,51.199c-1.248,1.396-1.248,2.925,0,4.583l4.532-2.689L97.781,51.199 M97.781,46.918
					c-0.757,1.123-0.757,2.118,0,2.988l2.938-1.744L97.781,46.918 M97.781,38.203v2.291l2.291-1.345L97.781,38.203 M97.781,42.236
					v2.591l2.34-1.394L97.781,42.236 M110.08,43.282l-0.747-0.298l-4.233,2.54l4.979,2.042
					C110.811,46.071,110.811,44.643,110.08,43.282 M110.08,39.248v-1.791l-1.792,1.044L110.08,39.248 M104.304,40.893l-4.232-1.744
					l-2.291,1.345c-0.445,0.518-0.445,1.098,0,1.742l2.34,1.197L104.304,40.893 M100.072,39.149l3.983-2.39l-6.274-2.64
					c-0.779,1.542-0.779,2.902,0,4.083L100.072,39.149 M105.101,45.524l-4.979-2.091l-2.34,1.394c-0.614,0.623-0.614,1.323,0,2.091
					l2.938,1.244L105.101,45.524 M100.121,43.433l4.979,2.091l4.233-2.54l-5.03-2.091L100.121,43.433 M108.288,38.501l-3.984,2.392
					l5.03,2.091l0.747-0.448c0.483-1.329,0.483-2.425,0-3.288L108.288,38.501 M108.288,38.501l-4.233-1.742l-3.983,2.39l4.232,1.744
					L108.288,38.501 M104.055,36.76l4.233,1.742l1.792-1.044c0.65-1.544,0.65-2.988,0-4.333L104.055,36.76 M110.08,33.124
					c0.851-1.815,0.851-3.691,0-5.628c-0.563,0.699-1.294,1.262-2.191,1.694c-0.797,0.397-1.477,0.895-2.042,1.493
					c-0.564,0.565-1.013,1.247-1.344,2.042c-1.362,2.159-2.524,2.159-3.485,0c-0.399-1.593-1.13-2.721-2.191-3.387
					c-0.398-0.231-0.747-0.513-1.046-0.845c-0.768,1.876-0.768,3.75,0,5.626l6.274,2.64L110.08,33.124 M103.457,15.646
					c-3.984,0.067-6.406,1.975-7.271,5.727c-0.099,0.464-0.183,0.946-0.249,1.443c0.199,2.558,0.813,4.449,1.843,5.678
					c0.299,0.332,0.647,0.614,1.046,0.845c1.062,0.666,1.792,1.793,2.191,3.387c0.961,2.159,2.124,2.159,3.485,0
					c0.332-0.795,0.78-1.477,1.344-2.042c0.564-0.598,1.245-1.096,2.042-1.493c0.896-0.433,1.627-0.995,2.191-1.694
					c0.963-1.195,1.428-2.721,1.395-4.579c-0.066-0.433-0.166-0.848-0.299-1.247C110.047,17.586,107.474,15.578,103.457,15.646
					 M108.238,22.417c-0.398,1.793-1.411,2.689-3.039,2.689C105.566,23.181,106.578,22.285,108.238,22.417 M103.159,27.695
					l-1.992,1.047l2.191-3.884l1.395,4.382L103.159,27.695 M98.627,21.821c1.992,0.332,2.838,1.376,2.54,3.136
					C100.039,25.089,99.191,24.044,98.627,21.821 M76.716,69.525c-0.829,0-1.543,0.298-2.142,0.897
					c-0.597,0.598-0.896,1.311-0.896,2.14c0,0.83,0.299,1.544,0.896,2.143c0.599,0.596,1.312,0.895,2.142,0.895
					c0.83,0,1.544-0.298,2.142-0.895c0.132-0.135,0.266-0.282,0.398-0.448c0.332-0.498,0.498-1.062,0.498-1.695
					c0-0.697-0.199-1.327-0.597-1.892h-0.05c-0.1-0.099-0.183-0.182-0.249-0.249C78.26,69.823,77.546,69.525,76.716,69.525
					 M92.95,156.869l-0.846-0.798l-2.839,2.889l0.349,2.54h1.792L92.95,156.869 M124.571,144.071l1.294-1.094l-0.397-1.744
					l-2.191-2.889l-0.996,3.736L124.571,144.071 M139.411,138.245l1.593-2.441l-5.727-1.99l-3.437-4.931l-3.634-0.099l-1.395,1.892
					l5.527,6.375L139.411,138.245 M65.413,150.943l-3.984,4.682l0.996,2.291h1.195l3.088-5.877L65.413,150.943 M88.32,136.602
					l-0.847-1.744l-1.294-0.049l-3.636,3.436l1.195,2.389l3.137-0.746L88.32,136.602z"/>
			</g>
		</g>
		<g>
			<path id="Layer2_0_1_STROKES_2_" fill="none" stroke="#382518" stroke-linecap="round" stroke-linejoin="round" d="
				M96.187,102.938V74.257H79.256c-0.132,0.166-0.266,0.313-0.398,0.448c-0.598,0.596-1.312,0.895-2.142,0.895
				c-0.829,0-1.543-0.298-2.142-0.895c-0.597-0.599-0.896-1.313-0.896-2.143c0-0.829,0.299-1.542,0.896-2.14
				c0.599-0.599,1.312-0.897,2.142-0.897c0.83,0,1.544,0.298,2.142,0.897c0.066,0.067,0.149,0.15,0.249,0.249h0.05
				c2.71-0.273,5.201-0.787,7.47-1.544c1.006-1.665-0.289-3.241-3.885-4.729c5.212,1.372,7.951,0.625,8.217-2.241
				c1.563,1.374,3.007,1.798,4.333,1.271c1.329-0.527,2.158-1.184,2.49-1.968v-0.697c-0.877-1.659-0.877-3.32,0-4.979
				c-1.248-1.659-1.248-3.187,0-4.583v-1.293c-0.757-0.87-0.757-1.865,0-2.988c-0.614-0.769-0.614-1.468,0-2.091v-2.591
				c-0.445-0.644-0.445-1.224,0-1.742v-2.291c-0.779-1.181-0.779-2.542,0-4.083c-0.768-1.876-0.768-3.75,0-5.626
				c-1.03-1.229-1.644-3.12-1.843-5.678c0.066-0.498,0.15-0.979,0.249-1.443c0.864-3.752,3.287-5.66,7.271-5.727
				c4.017-0.067,6.59,1.941,7.719,6.025c0.133,0.399,0.232,0.814,0.299,1.247c0.033,1.858-0.431,3.384-1.395,4.579
				c0.851,1.937,0.851,3.812,0,5.628c0.65,1.345,0.65,2.789,0,4.333v1.791c0.483,0.863,0.483,1.959,0,3.288v0.746
				c0.731,1.361,0.731,2.789,0,4.284v0.845c0.763,1.213,0.763,2.425,0,3.636v1.345c0.647,0.979,0.647,1.959,0,2.938
				c0.794,1.457,0.794,2.968,0,4.53v0.598c2.329,2.889,4.254,2.674,5.777-0.647c-0.17,2.199,0.577,3.568,2.241,4.108
				c1.527,0.489,3.842,0.265,6.947-0.672c0.319-0.124,0.643-0.255,0.971-0.399 M97.781,28.494c0.299,0.332,0.647,0.614,1.046,0.845
				c1.062,0.666,1.792,1.793,2.191,3.387c0.961,2.159,2.124,2.159,3.485,0c0.332-0.795,0.78-1.477,1.344-2.042
				c0.564-0.598,1.245-1.096,2.042-1.493c0.896-0.433,1.627-0.995,2.191-1.694 M110.08,33.124l-6.025,3.636l4.233,1.742l1.792-1.044
				 M104.055,36.76l-3.983,2.39l4.232,1.744l3.984-2.392l1.792,0.747 M109.333,42.984l-5.03-2.091l-4.183,2.54l4.979,2.091
				L109.333,42.984l0.747-0.448 M109.333,42.984l0.747,0.298 M97.781,55.783l4.93,2.04l4.481-2.688l-4.879-2.042L97.781,55.783z
				 M97.781,51.199l4.532,1.894l4.183-2.54l-5.777-2.392l-2.938,1.744 M110.08,48.411l-3.584,2.143l3.584,1.493 M107.192,55.135
				l2.888-1.744 M102.71,57.823l7.37,3.037 M107.192,55.135l2.888,1.194 M86.626,69.126c9.992-3.073,20.3-3.546,30.923-1.418
				c1.561,0.32,3.13,0.695,4.706,1.121c0.007,0.002,0.015,0.002,0.025,0c-0.125-2.073,0.796-3.6,2.764-4.582 M97.781,42.236
				l2.34,1.197l-2.34,1.394 M97.781,40.494l2.291-1.345l-2.291-0.946 M110.08,61.458c-4.747,1.827-8.848,1.827-12.299,0
				 M97.781,46.918l2.938,1.244l4.382-2.638l4.979,2.042 M97.781,60.761l4.93-2.938 M97.781,34.12l6.274,2.64 M130.647,74.257
				c-0.432-0.531-0.648-1.146-0.648-1.843c0-0.632,0.183-1.194,0.547-1.692V70.67c-2.963-0.37-5.719-0.982-8.266-1.842
				 M130.546,70.67h0.05c0.066-0.132,0.166-0.267,0.299-0.399c0.598-0.596,1.312-0.896,2.141-0.896c0.83,0,1.544,0.3,2.142,0.896
				c0.598,0.599,0.896,1.311,0.896,2.143c0,0.83-0.299,1.544-0.896,2.141s-1.312,0.897-2.142,0.897
				c-0.829,0-1.543-0.301-2.141-0.897c-0.1-0.099-0.183-0.199-0.249-0.298h-16.931v4.382v13.146v13.942v10.756v2.242l6.672,4.68
				l1.594,1.096l3.934-5.03l2.937,1.247l2.142,0.946l3.387-0.847l2.439,0.199l1.345,4.133l5.527,1.443l1.792,4.284l6.473,0.15
				l5.08,1.742v4.879l2.29,2.988l2.839,0.249l2.888,0.2l1.643,1.992l5.178-1.892l4.383,1.941l2.79,5.478 M180.093,150.295
				l2.094,5.926l0.746,2.192l7.071,5.027l-2.09,2.591l-4.185-1.096l-2.787,1.096l-2.79,1.096l-2.988-1.197l-4.283,1.396
				l-1.891,0.596h-4.334h-4.331l-1.744,0.448l-11.204,2.638l-5.179-1.318l-0.05-0.024l-1.644-0.449l-7.171,2.091l-1.394-1.643
				l-15.438,3.884l-19.819,0.943l-0.498,1.795l-23.604,2.589l-1.992-1.147 M70.492,177.186l-15.437,2.49l-6.126-2.192l-6.723,2.641
				H31.352l-5.926-1.493l-0.846,0.845l-5.876-1.194l2.589-4.084l1.693-1.044l1.644-1.096l3.336-5.577l5.229-1.197l1.843-3.734
				l5.676,1.394l-0.299-4.879l5.527-3.086l2.988,1.791l1.245-3.486l1.195-3.584l3.935,2.291l2.191-4.831l4.681-1.594l0.249-2.64
				l0.149-1.594l1.345-5.079l3.634-2.091l5.379-6.971l1.494-3.436l1.494-3.436l5.328,3.436l3.087-2.441l2.838,2.241l3.037-2.141
				l5.976-1.046v-8.018v-9.412 M105.051,85.91v-7.82h-3.884 M105.051,78.09h3.884 M79.157,70.67
				c0.398,0.565,0.597,1.195,0.597,1.892c0,0.632-0.166,1.197-0.498,1.695 M96.287,124.55h-0.101v0.848l6.076,6.076 M105.35,106.226
				l0.249,4.432 M96.187,74.257c6.503-2.508,12.346-2.508,17.529,0 M102.263,131.474l2.39,2.39l0.996-0.998v-4.729 M111.525,139.29
				l-4.084-1.742l-0.447,3.237l5.826,4.133L111.525,139.29l2.34-6.373l-6.424,4.631l-8.366-3.835l-0.697-0.746l3.935,6.125
				l5.428,2.988 M119.043,133.765l-5.627,1.443l3.287,2.54L119.043,133.765l4.332-2.392l5.08-6.771l0.397-3.884 M111.525,139.29
				l7.12,3.089l-1.941-4.631 M105.648,132.866l8.017-8.016l0.051-6.125 M120.388,123.405l-5.875,7.621l-0.648,1.892 M74.426,123.754
				l0.796,1.145l5.577,4.133l6.275,0.946l5.875-1.194l1.345-0.298l4.083,4.481 M92.95,128.784l2.142,3.286l-2.889,6.375l2.092,2.042
				 M86.178,134.809l-3.636,3.436l1.195,2.389l3.137-0.746l1.445-3.286l-0.847-1.744L86.178,134.809z M87.721,153.283l0.648-3.485
				l0.996-1.096l1.145-4.032l2.988-1.993 M92.203,138.445l-2.091,2.589 M94.892,151.44l-0.796-0.498l-0.747-7.37l3.934-3.237
				l5.776,10.456l3.883,1.296l4.532,8.417l5.578-4.532l7.868,2.49l1.245-3.337l0.747-2.141l-6.325-0.995l-1.892-2.938l-5.876-4.133
				 M93.747,125.148l-6.573-1.594 M87.075,156.82l4.233-2.291l1.792-1.544l1.792-1.544l5.229,3.04l0.897,0.896l6.025,5.976
				l-2.59,0.895l0.996,1.295l0.996,1.295l-2.738,4.281l3.835,2.889l1.743-5.328l3.287-4.433l-1.096-1.742 M92.104,156.071
				l-2.839,2.889l0.349,2.54h1.792l1.543-4.631L92.104,156.071z M62.425,142.925l6.723,0.5l3.785,3.882l1.743,1.793l4.432,1.992
				l4.929-3.586l-0.846-1.843l-13.046-7.668 M68.55,140.634l5.329,2.69h2.49 M94.345,168.271l2.091-3.335h-3.735l-1.445,2.739
				l-2.09-1.296l-4.681-7.072l2.59-2.488l0.646-3.537l-7.967,6.673l-0.249,4.931l1.096,0.298l2.739,0.099l3.137,4.083l6.922,0.35
				L94.345,168.271l11.104-4.729 M113.019,147.706l-2.54,3.885v1.793l3.336-3.537L113.019,147.706z M127.26,163.542l-9.013,3.485
				l-6.224,1.096l-2.739-1.444 M112.57,162.247l5.029-2.49l9.661,3.786l-2.34-5.079 M103.706,169.119l-9.361-0.847 M93.1,152.985
				l7.918,2.392 M96.436,164.936l8.017-2.689 M128.207,128.784l-1.395,1.892l5.527,6.375l7.072,1.195l1.593-2.441l-5.727-1.99
				l-3.437-4.931L128.207,128.784z M157.039,137.646l-4.432-1.044l1.942,4.183l3.984,2.837l1.793-1.345l1.841-1.394
				 M128.456,124.602l10.108,4.331l4.532,6.823l9.511,0.847 M123.276,138.344l-0.996,3.736l2.29,1.991l1.294-1.094l-0.397-1.744
				L123.276,138.344z M132.837,145.516l-3.237,4.382l1.146,2.291l1.842-2.64L132.837,145.516z M152.707,149.797l0.548-0.347
				l-8.366-4.234l-5.976-5.577l-4.681,12.698l-3.834,3.537l0.299,2.141l-0.199,1.941l-0.498,4.133l3.188,4.431l-0.2,0.847
				l-1.045,0.301l-0.399-0.449 M127.26,163.542l2.739,0.547 M126.165,155.125l4.332,4.83 M162.815,163.192l-3.387-2.39l-0.997-1.046
				l-0.946-6.722h-2.291l-0.148,1.744l-0.599,5.626l4.431,5.279l-0.298,2.689 M158.88,165.683l-9.809-1.444l2.292-3.286
				l-0.499-4.582l4.184-1.594 M162.766,149.898l-4.782-1.197l-4.729,0.749l4.432-3.188l0.847-2.641 M152.707,149.797l2.489,3.237
				 M142.249,167.825l-5.876-9.412l4.283-9.412h1.444l2.141,4.729l3.486,1.247l0.398-2.988l4.582-2.192 M147.727,154.978
				l-0.448,3.136l-4.83,6.076l-0.199,3.636l-0.1,1.843 M96.187,120.368v4.182 M118.645,142.378l8.267,10.606 M62.574,141.332
				l5.976-0.697l0.996-2.988l2.341-3.983l-4.333,0.498 M70.144,137.996l-0.599-0.35 M71.887,133.664l3.336-8.764 M46.639,162.943
				h-1.245l-4.879,5.379l-0.101,2.589l11.503,3.086l3.686-2.589l2.092,0.249l7.27-6.821v-1.047l-2.54-0.049l-8.516-0.249
				l-1.494-3.188l-2.789-1.194L46.639,162.943l-0.698-7.966 M45.394,162.943h-4.681l-0.198,5.379 M62.425,161.899l-3.485-3.636
				l-5.179-0.746l-3.586-4.234 M72.932,147.307l-1.893,5.131l-2.54,2.389l0.298,3.089 M65.413,150.943l-3.984,4.682l0.996,2.291
				h1.195l3.088-5.877L65.413,150.943z M68.5,154.827l-1.792,1.594 M63.57,163.094l-1.145-1.195 M75.622,169.668l-4.532-3.04
				l-3.984,1.495l-5.229,3.983l13.146,1.345L75.622,169.668l6.871,2.14l3.984-2.441l1.543,1.296l8.167,5.628 M64.964,163.791
				l6.125,2.838l6.673-2.289l1.743,0.547 M73.879,143.324v2.291 M70.492,177.186l4.979-0.796l-0.448-2.938 M61.876,172.106
				l-4.182-0.448 M28.214,175.742l0.05,0.049l2.789-0.049l9.361-4.831 M31.053,175.742l0.299,4.382 M28.214,175.742l-5.229-2.589
				 M25.426,178.631l2.838-2.84 M107.541,172.008l5.328-0.15l3.635,1.695 M93.398,169.717l3.286,4.778l7.021-5.377 M88.02,170.663
				l-3.984,4.133l-4.431-1.145l-4.134,2.739 M28.214,175.742l4.98-10.458 M172.425,144.171l-5.727-1.096 M172.026,148.603
				l-2.39,1.146l0.499,3.335l6.424,4.483l3.138,0.199l0.697,1.195l3.335,5.976 M163.711,149.349l1.744,2.739l4.68,0.995
				 M166.999,143.972l-1.446,4.231l-1.842,1.146l-0.945,0.549l-5.28,3.136 M165.455,152.088l1.493,2.441l1.247,6.025l3.734,1.096
				l1.941-1.197l2.689-2.887 M164.657,167.924l2.192-2.091l1.345-5.278 M166.849,165.833l4.033,1.495 M168.194,160.554l-5.378,2.638
				l1.793,3.288 M171.928,161.65l3.237,4.281l2.19-1.044l3.587,1.146l-0.548-7.072 M172.026,148.603l8.018,6.774l2.143,0.845
				 M180.093,150.295l-7.668-6.124l-0.399,4.431 M160.326,142.277l5.227,5.926"/>
		</g>
	</g>
	<g>
		<g>
			<polygon fill="#663366" points="116.177,113.56 123.314,98.124 126.302,99.285 			"/>
		</g>
		<g>
			<polygon fill="#663366" points="118.667,114.721 134.769,100.446 136.594,103.765 			"/>
		</g>
		<g>
			<polygon fill="#663366" points="93.604,113.56 84.074,98.124 81.984,100.446 			"/>
		</g>
		<g>
			<polygon fill="#663366" points="92.109,114.721 81.984,109.909 81.984,112.314 			"/>
		</g>
	</g>
</g>
</svg>
