<?xml version="1.0" encoding="utf-8"?>
<!-- Generator: Adobe Illustrator 16.0.0, SVG Export Plug-In . SVG Version: 6.00 Build 0)  -->
<!DOCTYPE svg PUBLIC "-//W3C//DTD SVG 1.0//EN" "http://www.w3.org/TR/2001/REC-SVG-20010904/DTD/svg10.dtd">
<svg version="1.0" id="Layer_1" xmlns="http://www.w3.org/2000/svg" xmlns:xlink="http://www.w3.org/1999/xlink" x="0px" y="0px"
	 width="177.502px" height="219.667px" viewBox="0 0 177.502 219.667" enable-background="new 0 0 177.502 219.667"
	 xml:space="preserve">
<g>
	<path fill="#FFFFFF" d="M65.686,96.242c1.007,0.682,2.03,1.452,3.068,2.312c0.326,0.326,0.637,0.652,0.934,0.978
		c2.104,2.105,4.209,3.854,6.314,5.247c0.148,0,0.295,0.059,0.444,0.178c0.474,0.386,0.979,0.696,1.512,0.933l-1.023-50.645
		c-3.023,4.417-6.536,7.915-10.538,10.493C63.847,76.854,63.61,87.022,65.686,96.242z"/>
	<path fill="#FFFFFF" d="M106.503,120.563c4.18-6.314,7.856-1.75,11.028,13.695c2.341-0.682,4.52-1.883,6.536-3.603
		c1.927-1.571,3.469-3.187,4.625-4.846c-0.8-12.895-3.023-17.194-6.669-12.895c-3.142,4.564-6.389,1.082-9.738-10.449
		c-0.148-0.297-0.237-0.608-0.267-0.935c-0.534,0.119-0.979,0.193-1.334,0.223c-0.475,0.119-0.89,0.282-1.245,0.49
		c-1.364,0.563-2.698,1.215-4.001,1.956c-0.979,0.504-1.868,1.097-2.668,1.778c-0.742,0.683-1.438,1.304-2.09,1.868
		C101.598,121.096,103.54,125.336,106.503,120.563z"/>
	<path fill="#FFFFFF" d="M54.57,93.973c2.549,5.366,6.254,6.122,11.116,2.269c-2.076-9.22-1.839-19.387,0.711-30.503
		c-7.5-1.779-11.042,2.194-10.627,11.917C56.156,82.665,55.755,88.104,54.57,93.973z"/>
	<path fill="#FFFFFF" d="M74.134,131.946c0.178-12.213-1.305-17.222-4.447-15.028l-3.291,3.067c-3.112,2.49-4.476-3.216-4.09-17.119
		c-1.897-0.445-3.765-0.548-5.603-0.311c-3.023,0.178-5.735,1.097-8.137,2.756c-0.208,0.208-0.444,0.415-0.711,0.623
		c0,15.384,1.096,19.965,3.29,13.74c1.69-7.708,3.439-8.092,5.247-1.156l4.668,18.008c0.801,0.059,1.645,0.088,2.535,0.088
		c1.394-0.147,2.757-0.34,4.091-0.577c1.749-0.652,3.32-1.542,4.713-2.668C73.022,132.895,73.6,132.42,74.134,131.946z"/>
	<path fill="#FFFFFF" d="M48.522,96.508c1.927-1.186,3.942-2.031,6.047-2.535c1.185-5.869,1.586-11.308,1.2-16.318
		c-1.452,1.957-2.801,4.09-4.046,6.403c-0.415,0.77-0.771,1.482-1.067,2.134c-0.831,1.631-1.601,3.276-2.312,4.937
		c-1.097,2.252-2.09,4.491-2.979,6.714c-0.177,0.444-0.34,0.859-0.489,1.244c0.445-0.385,0.948-0.785,1.512-1.2
		C47.07,97.353,47.781,96.894,48.522,96.508z"/>
	<path fill="#FFFFFF" d="M63.996,165.25c-0.74-8.923-5.291-14.956-13.65-18.097c-8.301-3.083-13.058-9.679-14.273-19.787
		c-3.884,17.904-4.27,35.66-1.157,53.268c9.16,5.543,19.045,8.551,29.658,9.025L63.996,165.25z M46.166,153.022
		c7.173,1.512,10.953,5.795,11.338,12.851C57.119,158.817,53.339,154.534,46.166,153.022z"/>
	<path fill="#FFFFFF" d="M64.574,189.66c-10.613-0.475-20.498-3.482-29.658-9.025c-3.053,2.785-2.964,5.35,0.268,7.691
		c11.412,7.321,25.7,9.854,42.863,7.603c0.564-0.061,1.126-0.135,1.69-0.223c1.897-2.192,1.793-4.446-0.311-6.757
		c-0.297,0.088-0.593,0.146-0.889,0.176C73.733,189.689,69.08,189.867,64.574,189.66z"/>
	<path fill="#FFFFFF" d="M79.603,106.913c1.512,0.682,3.009,1.186,4.492,1.511c0.592,0.119,1.186,0.238,1.778,0.356
		c2.401,0.237,5.217-0.607,8.448-2.534L93.12,55.245c-0.652-0.682-1.349-1.452-2.089-2.312c-2.55-3.142-5.084-6.774-7.604-10.894
		c-1.453,4.15-3.128,7.767-5.025,10.849c-0.563,0.919-1.052,1.704-1.468,2.356l1.023,50.645
		C78.491,106.156,79.04,106.498,79.603,106.913z M88.718,96.418c0.029,0.653-0.237,1.231-0.8,1.734
		c-0.564,0.623-1.245,0.934-2.045,0.934c-0.356-0.029-0.712-0.163-1.067-0.399c-0.208-0.178-0.385-0.341-0.534-0.49
		c-0.711-0.504-1.067-1.037-1.067-1.601c0.03-0.385,0.074-0.652,0.133-0.8c0.119-0.385,0.371-0.771,0.757-1.157
		c0.326-0.385,0.667-0.607,1.022-0.667c0.237-0.118,0.459-0.177,0.667-0.177c0.8,0,1.482,0.267,2.045,0.8
		c0.297,0.327,0.579,0.727,0.845,1.201C88.703,95.915,88.718,96.123,88.718,96.418z M87.606,81.968
		c-0.533,0.444-1.111,0.727-1.733,0.845c-0.06,0-0.163-0.015-0.312-0.044c-0.652-0.029-1.215-0.281-1.689-0.756
		c-0.712-0.415-1.067-0.993-1.067-1.734c0.03-0.652,0.355-1.29,0.978-1.913c0.475-0.474,1.038-0.681,1.69-0.622
		c0.296,0,0.547,0.015,0.755,0.044c0.445,0.089,0.875,0.252,1.29,0.489c0.563,0.563,0.831,1.2,0.801,1.912
		C88.318,80.872,88.081,81.464,87.606,81.968z M83.382,63.16c0.505-0.564,1.083-0.815,1.734-0.756
		c0.741-0.03,1.423,0.207,2.045,0.712c0.06,0,0.089,0.029,0.089,0.088c0.503,0.475,0.726,1.067,0.667,1.779
		c0.029,0.593-0.208,1.17-0.711,1.734c-0.06,0.059-0.133,0.133-0.222,0.223c-0.534,0.415-1.127,0.623-1.778,0.623
		c-0.594-0.029-1.157-0.282-1.69-0.756c-0.652-0.562-0.993-1.141-1.023-1.734C82.553,64.271,82.849,63.634,83.382,63.16z"/>
	<path fill="#FFFFFF" d="M112.018,188.681l-0.489-24.455c-0.741-5.246,0.445-9.604,3.557-13.071l-0.711-0.713l0.711,0.713
		c1.897-2.165,4.581-3.958,8.048-5.381c9.575-3.646,14.747-10.553,15.519-20.72c1.126-10.909-2.312-20.171-10.316-27.79
		c-1.245-0.89-2.461-1.66-3.646-2.312c-2.342-1.333-4.669-2.12-6.981-2.356c-2.728,4.446-5.306,6.21-7.737,5.291
		c-2.372-0.83-3.914-1.378-4.625-1.645c-0.562,0.474-1.082,1.022-1.556,1.645c-1.275,1.393-2.46,2.638-3.558,3.735
		c-1.097,1.038-2.119,1.927-3.068,2.667c-0.385,0.326-0.829,0.623-1.334,0.89c-0.503,0.562-1.007,0.919-1.511,1.067
		c-3.231,1.926-6.047,2.771-8.448,2.534c-0.593-0.118-1.186-0.237-1.778-0.356c-1.482-0.325-2.979-0.829-4.492-1.511
		c-0.563-0.415-1.111-0.756-1.645-1.023c-0.533-0.237-1.038-0.547-1.512-0.933c-0.149-0.119-0.296-0.178-0.444-0.178
		c-2.104-1.393-4.209-3.142-6.314-5.247c-0.297-0.326-0.607-0.651-0.934-0.978c-1.038-0.86-2.061-1.63-3.068-2.312
		c-4.862,3.853-8.567,3.098-11.116-2.269c-2.105,0.504-4.121,1.35-6.047,2.535c-0.741,0.386-1.453,0.845-2.134,1.378
		c-0.564,0.416-1.067,0.815-1.512,1.2c-7.292,8.626-10.227,18.053-8.803,28.28c1.215,10.108,5.972,16.704,14.273,19.787
		c8.359,3.142,12.91,9.174,13.65,18.097l0.579,24.409c4.506,0.207,9.159,0.029,13.962-0.535c0.296-0.029,0.592-0.088,0.889-0.176
		l-0.045-6.581l-0.444-23.921c-0.208-11.086-3.957-18.556-11.249-22.41c-1.334,0.237-2.698,0.43-4.091,0.577
		c-0.89,0-1.733-0.029-2.535-0.088c-3.764-0.327-7.336-1.749-10.715-4.269c-4.091-3.142-6.61-7.055-7.559-11.738
		c-0.919-4.625,0-8.7,2.757-12.228c0.652-0.831,1.423-1.615,2.312-2.357c0.267-0.208,0.503-0.415,0.711-0.623
		c2.401-1.66,5.114-2.579,8.137-2.756c1.838-0.237,3.706-0.134,5.603,0.311c1.719,0.475,3.35,1.127,4.891,1.957
		c1.007,0.534,1.926,1.156,2.756,1.868c4.031,3.142,6.506,7.099,7.425,11.871c0.979,4.684,0.148,8.79-2.49,12.316
		c-0.385,0.268-0.637,0.623-0.755,1.067c-0.535,0.474-1.112,0.949-1.734,1.423c1.837,4.357,3.972,4.772,6.403,1.245l4.179-6.358
		c0.622-1.334,1.63-2.179,3.023-2.535c1.246-0.118,2.668,0.652,4.269,2.312l4.625,6.091c2.55,3.498,4.713,3.024,6.492-1.422
		c-0.711-0.386-1.305-0.859-1.778-1.423c-0.296-0.296-0.607-0.607-0.934-0.934c-2.935-3.35-3.972-7.41-3.112-12.184
		c0.652-3.912,2.357-7.351,5.113-10.315c0.652-0.564,1.349-1.186,2.09-1.868c0.8-0.682,1.689-1.274,2.668-1.778
		c1.304-0.741,2.638-1.393,4.001-1.956c0.355-0.208,0.771-0.371,1.245-0.49c0.355-0.03,0.8-0.104,1.334-0.223
		c1.333-0.266,2.727-0.34,4.18-0.222c3.083-0.03,5.795,0.637,8.137,2c0.147,0.06,0.311,0.164,0.489,0.312
		c0.296,0.267,0.533,0.489,0.711,0.667c1.007,0.623,1.882,1.364,2.624,2.224c2.994,3.349,4.075,7.352,3.245,12.005
		c-0.474,2.608-1.378,5.039-2.712,7.292c-1.156,1.659-2.697,3.275-4.625,4.846c-2.016,1.719-4.195,2.92-6.536,3.603
		c-1.423,0.562-2.875,0.948-4.358,1.156c-0.83,0.088-1.719,0.148-2.668,0.178c-1.452-0.06-2.786-0.237-4.002-0.534
		c-7.469,4.269-11.012,11.932-10.626,22.989l0.578,24.188l-0.044,6.401C101.834,189.052,107.038,189.066,112.018,188.681z
		 M73.645,182.102c-0.475,0.562-1.038,0.845-1.69,0.845c-0.741,0.089-1.378-0.178-1.912-0.801c-0.563-0.474-0.815-1.067-0.756-1.778
		c-0.059-0.652,0.163-1.26,0.667-1.822c0.534-0.475,1.141-0.742,1.823-0.801c0.711,0,1.304,0.236,1.778,0.711
		c0.652,0.563,0.979,1.171,0.979,1.824C74.504,181.02,74.208,181.627,73.645,182.102z M73.378,162.582
		c0.474,0.475,0.727,1.068,0.756,1.779c0,0.771-0.237,1.438-0.712,2.001c-0.593,0.355-1.23,0.562-1.912,0.622
		c-0.741,0-1.364-0.192-1.868-0.578c-0.475-0.533-0.712-1.186-0.712-1.957c-0.029-0.711,0.193-1.318,0.667-1.823
		c0.474-0.474,1.082-0.711,1.824-0.711C72.104,161.885,72.756,162.108,73.378,162.582z M67.553,147.552
		c0.534-0.474,1.156-0.726,1.868-0.755c0.8,0.059,1.437,0.282,1.912,0.667c0.563,0.504,0.815,1.112,0.756,1.823
		c0,0.682-0.238,1.29-0.712,1.823c-0.475,0.623-1.112,0.905-1.912,0.845c-0.682,0.03-1.246-0.222-1.69-0.755
		c-0.563-0.563-0.86-1.171-0.89-1.823C66.945,148.665,67.167,148.057,67.553,147.552z M56.304,140.616
		c0.444-0.503,1.081-0.755,1.911-0.755c0.564-0.029,1.126,0.193,1.69,0.667c0.563,0.474,0.845,1.082,0.845,1.823
		c0.059,0.741-0.207,1.378-0.8,1.913c-0.533,0.474-1.097,0.74-1.69,0.799c-0.8,0-1.438-0.237-1.911-0.711
		c-0.475-0.474-0.728-1.126-0.757-1.957C55.562,141.743,55.799,141.15,56.304,140.616z M44.165,134.481
		c0.534-0.534,1.171-0.771,1.913-0.712c0.651-0.059,1.259,0.163,1.823,0.667c0.533,0.534,0.829,1.127,0.889,1.779
		c-0.06,0.742-0.327,1.319-0.801,1.734c-0.504,0.623-1.111,0.949-1.823,0.979c-0.682-0.059-1.334-0.37-1.957-0.934
		c-0.533-0.385-0.77-0.904-0.711-1.556C43.439,135.696,43.661,135.043,44.165,134.481z M126.69,132.568
		c0.564-0.356,1.17-0.563,1.823-0.623c0.712,0,1.349,0.192,1.912,0.578c0.563,0.563,0.845,1.215,0.845,1.957
		c-0.029,0.652-0.252,1.215-0.667,1.688c-0.623,0.564-1.26,0.846-1.912,0.846c-0.741,0.029-1.378-0.223-1.912-0.756
		c-0.623-0.444-0.905-1.023-0.845-1.734C125.875,133.873,126.127,133.221,126.69,132.568z M114.685,139.372
		c0.534-0.534,1.126-0.786,1.778-0.756c0.741-0.03,1.394,0.193,1.957,0.667c0.533,0.505,0.83,1.082,0.889,1.734
		c0,0.801-0.267,1.438-0.801,1.913c-0.563,0.622-1.215,0.948-1.956,0.978c-0.652-0.059-1.26-0.356-1.823-0.889
		c-0.563-0.415-0.844-0.978-0.844-1.69C113.854,140.557,114.122,139.905,114.685,139.372z M103.168,146.841
		c0.445-0.563,1.038-0.83,1.779-0.8c0.771,0,1.468,0.193,2.09,0.578c0.474,0.563,0.682,1.186,0.623,1.868
		c0,0.711-0.193,1.304-0.579,1.778c-0.563,0.711-1.245,1.066-2.045,1.066c-0.652-0.059-1.245-0.385-1.778-0.978
		c-0.564-0.415-0.86-0.978-0.889-1.689C102.428,148.013,102.694,147.405,103.168,146.841z M101.924,161.915
		c0.385-0.475,0.978-0.727,1.779-0.756c0.652-0.03,1.29,0.162,1.911,0.578c0.504,0.623,0.756,1.26,0.756,1.913
		c0.059,0.83-0.148,1.437-0.623,1.822c-0.652,0.534-1.305,0.831-1.957,0.891c-0.8,0-1.408-0.268-1.823-0.801
		c-0.564-0.414-0.845-0.993-0.845-1.734C101.064,163.115,101.331,162.479,101.924,161.915z M102.279,181.435
		c-0.592-0.504-0.875-1.082-0.844-1.734c-0.03-0.652,0.237-1.305,0.8-1.956c0.444-0.385,1.038-0.593,1.778-0.623
		c0.741,0,1.363,0.192,1.868,0.578c0.592,0.563,0.918,1.216,0.978,1.957c-0.059,0.652-0.326,1.215-0.801,1.688
		c-0.562,0.623-1.185,0.949-1.867,0.979C103.391,182.325,102.753,182.028,102.279,181.435z"/>
	<polygon fill="#FFFFFF" points="122.288,153.333 125.09,157.38 129.492,157.334 126.602,153.244 	"/>
	<path fill="#FFFFFF" d="M123.133,145.774c-3.468,1.423-6.151,3.216-8.048,5.381l1.068,1.601l-1.068-1.601
		c-3.112,3.467-4.297,7.825-3.557,13.071l0.489,24.455c9.752-0.859,18.749-3.676,26.99-8.447c1.096-0.683,2.149-1.349,3.157-2.001
		c1.749-12.864,1.63-25.67-0.356-38.417c-0.148-0.979-0.311-1.942-0.489-2.89c-0.711-3.942-1.601-7.9-2.667-11.872
		C137.88,135.222,132.708,142.128,123.133,145.774z M124.779,162.982l-1.512,0.178L124.779,162.982l-5.736-9.115l0.044,2.624
		l-0.044-2.624L124.779,162.982l1.378-0.044L124.779,162.982z M128.87,162.893l0.623-5.558l-4.402,0.045l-2.802-4.047l4.313-0.089
		l2.891,4.09L128.87,162.893z M137.54,163.249c1.571,7.234-0.726,12.242-6.892,15.029
		C136.814,175.491,139.111,170.483,137.54,163.249z"/>
	<path fill="#FFFFFF" d="M142.165,178.233c-1.008,0.652-2.061,1.318-3.157,2.001c-8.241,4.771-17.237,7.588-26.99,8.447
		c-4.98,0.385-10.183,0.371-15.607-0.045c-2.075,2.312-1.972,4.551,0.311,6.714c16.6,1.66,30.503-0.607,41.708-6.802
		c1.364-0.771,2.683-1.602,3.958-2.49C145.559,183.479,145.484,180.872,142.165,178.233z"/>
	<path fill="#FFFFFF" d="M117.709,92.595c2.312,0.237,4.639,1.023,6.981,2.356c1.185,0.653,2.401,1.423,3.646,2.312
		c-0.297-0.741-0.637-1.571-1.022-2.49c-1.661-3.32-3.439-6.699-5.336-10.138c-0.385-0.622-0.815-1.304-1.29-2.045
		c-1.541-2.312-3.083-4.52-4.624-6.625C115.381,81.42,115.931,86.963,117.709,92.595z"/>
	<path fill="#FFFFFF" d="M105.347,96.242c0.711,0.267,2.253,0.814,4.625,1.645c2.431,0.919,5.009-0.845,7.737-5.291
		c-1.778-5.632-2.328-11.175-1.646-16.63c-0.208-8.655-4.298-12.553-12.272-11.694C106.519,75.654,107.038,86.311,105.347,96.242z"
		/>
	<path fill="#FFFFFF" d="M95.832,105.179c0.505-0.267,0.949-0.564,1.334-0.89c0.949-0.74,1.971-1.63,3.068-2.667
		c1.097-1.097,2.283-2.342,3.558-3.735c0.474-0.622,0.994-1.17,1.556-1.645c1.69-9.931,1.171-20.587-1.556-31.97
		c-3.913-1.63-7.47-4.639-10.672-9.026l1.201,51.001C94.825,106.098,95.329,105.741,95.832,105.179z"/>
	<path fill="#FFFFFF" d="M122.022,112.916c3.646-4.299,5.87,0,6.669,12.895c1.334-2.253,2.238-4.684,2.712-7.292
		c0.83-4.654-0.251-8.656-3.245-12.005c-0.742-0.86-1.616-1.601-2.624-2.224c-0.178-0.178-0.416-0.4-0.711-0.667
		c-0.178-0.148-0.341-0.252-0.489-0.312c-2.342-1.363-5.055-2.03-8.137-2c-1.453-0.118-2.846-0.044-4.18,0.222
		c0.029,0.327,0.119,0.638,0.267,0.935C115.633,113.998,118.88,117.48,122.022,112.916z"/>
	<path fill="#FFFFFF" d="M66.397,119.985l3.291-3.067c3.142-2.194,4.625,2.815,4.447,15.028c0.118-0.445,0.37-0.8,0.755-1.067
		c2.639-3.526,3.469-7.632,2.49-12.316c-0.919-4.772-3.394-8.729-7.425-11.871c-0.83-0.712-1.749-1.334-2.756-1.868
		c-1.542-0.829-3.172-1.482-4.891-1.957C61.921,116.769,63.285,122.475,66.397,119.985z"/>
	<path fill="#FFFFFF" d="M110.505,135.592c0.949-0.029,1.838-0.089,2.668-0.178c1.482-0.208,2.935-0.594,4.358-1.156
		c-3.172-15.445-6.848-20.009-11.028-13.695c-2.964,4.772-4.906,0.533-5.825-12.717c-2.756,2.964-4.461,6.403-5.113,10.315
		c-0.86,4.773,0.178,8.834,3.112,12.184c0.327,0.327,0.638,0.637,0.934,0.934c0.474,0.564,1.067,1.038,1.778,1.423
		c1.512,1.066,3.217,1.853,5.113,2.356C107.719,135.355,109.053,135.532,110.505,135.592z"/>
	<path fill="#FFFFFF" d="M106.503,135.058c-1.896-0.503-3.602-1.29-5.113-2.356c-1.778,4.447-3.942,4.92-6.492,1.422l-4.625-6.091
		c-1.601-1.66-3.023-2.431-4.269-2.312c-1.393,0.356-2.401,1.201-3.023,2.535l-4.179,6.358c-2.431,3.527-4.566,3.112-6.403-1.245
		c-1.393,1.126-2.964,2.016-4.713,2.668c7.292,3.854,11.041,11.323,11.249,22.41l0.444,23.921c0.652-0.178,1.29-0.355,1.912-0.532
		c5.217-1.542,10.271-1.409,15.162,0.399l-0.578-24.188C95.492,146.99,99.034,139.327,106.503,135.058z"/>
	<path fill="#FFFFFF" d="M51.146,119.674c-2.194,6.225-3.29,1.645-3.29-13.74c-0.89,0.742-1.661,1.527-2.312,2.357
		c-2.757,3.527-3.676,7.603-2.757,12.228c0.949,4.683,3.468,8.596,7.559,11.738c3.379,2.52,6.951,3.942,10.715,4.269l-4.668-18.008
		C54.584,111.582,52.835,111.966,51.146,119.674z"/>
</g>
<g transform="matrix( 1, 0, 0, 1, 0,0) ">
	<g>
		<g id="Layer1_0_FILL_1_">
			<path fill="#663366" d="M101.225,132.7c1.512,1.066,3.217,1.853,5.113,2.356c1.216,0.297,2.55,0.474,4.002,0.534
				c0.949-0.029,1.838-0.089,2.668-0.178c1.482-0.208,2.935-0.594,4.358-1.156c-3.172-15.445-6.848-20.009-11.028-13.695
				c-2.964,4.772-4.906,0.533-5.825-12.717c-2.756,2.964-4.461,6.403-5.113,10.315c-0.86,4.773,0.178,8.834,3.112,12.184
				c0.327,0.327,0.638,0.637,0.934,0.934C99.92,131.841,100.514,132.314,101.225,132.7 M111.853,101.53
				c0.029,0.327,0.119,0.638,0.267,0.935c3.349,11.531,6.596,15.013,9.738,10.449c3.646-4.299,5.87,0,6.669,12.895
				c1.334-2.253,2.238-4.684,2.712-7.292c0.83-4.654-0.251-8.656-3.245-12.005c-0.742-0.86-1.616-1.601-2.624-2.224
				c-0.178-0.178-0.416-0.4-0.711-0.667c-0.178-0.148-0.341-0.252-0.489-0.312c-2.342-1.363-5.055-2.03-8.137-2
				C114.579,101.19,113.186,101.264,111.853,101.53 M72.235,133.367c-1.393,1.126-2.964,2.016-4.713,2.668
				c7.292,3.854,11.041,11.323,11.249,22.41l0.444,23.921c0.652-0.178,1.29-0.355,1.912-0.533
				c5.217-1.541,10.271-1.408,15.162,0.399l-0.578-24.188c-0.385-11.057,3.157-18.72,10.626-22.989
				c-1.896-0.503-3.602-1.29-5.113-2.356c-1.778,4.447-3.942,4.92-6.492,1.422l-4.625-6.091c-1.601-1.66-3.023-2.431-4.269-2.312
				c-1.393,0.356-2.401,1.201-3.023,2.535l-4.179,6.358C76.207,138.139,74.072,137.724,72.235,133.367 M50.98,119.672
				c-2.194,6.225-3.29,1.645-3.29-13.74c-0.89,0.742-1.661,1.527-2.312,2.357c-2.757,3.527-3.676,7.603-2.757,12.228
				c0.949,4.683,3.468,8.596,7.559,11.738c3.379,2.52,6.951,3.942,10.715,4.269l-4.668-18.008
				C54.419,111.58,52.67,111.964,50.98,119.672 M67.033,104.821c-1.542-0.829-3.172-1.482-4.891-1.957
				c-0.385,13.902,0.978,19.609,4.09,17.119l3.291-3.067c3.142-2.194,4.625,2.815,4.447,15.028c0.118-0.445,0.37-0.8,0.755-1.067
				c2.639-3.526,3.469-7.632,2.49-12.316c-0.919-4.772-3.394-8.729-7.425-11.871C68.959,105.977,68.04,105.355,67.033,104.821z"/>
		</g>
	</g>
	<g>
		<path id="Layer1_0_1_STROKES_1_" fill="none" stroke="#000000" stroke-linecap="round" stroke-linejoin="round" d="
			M79.215,182.366l0.045,6.582c2.104,2.312,2.208,4.564,0.311,6.759c-0.564,0.088-1.126,0.162-1.69,0.222
			c-17.163,2.253-31.451-0.28-42.863-7.603c-3.232-2.342-3.32-4.906-0.268-7.694c-3.113-17.607-2.727-35.363,1.157-53.267
			c-1.423-10.227,1.511-19.654,8.803-28.28c0.149-0.385,0.312-0.8,0.489-1.244c0.889-2.223,1.883-4.461,2.979-6.714
			c0.711-1.661,1.481-3.306,2.312-4.937c0.296-0.651,0.652-1.364,1.067-2.134c1.246-2.312,2.594-4.446,4.046-6.403
			c-0.416-9.723,3.127-13.696,10.627-11.917c4.002-2.578,7.515-6.076,10.538-10.493c0.416-0.652,0.904-1.438,1.468-2.356
			c1.897-3.083,3.572-6.699,5.025-10.849c2.519,4.12,5.054,7.752,7.604,10.894c0.74,0.86,1.437,1.63,2.089,2.312
			c3.202,4.387,6.759,7.396,10.672,9.026c7.974-0.859,12.064,3.039,12.272,11.694c1.542,2.105,3.083,4.313,4.624,6.625
			c0.474,0.742,0.904,1.423,1.29,2.045c1.897,3.439,3.676,6.818,5.336,10.138c0.385,0.919,0.726,1.749,1.022,2.49
			c8.004,7.619,11.442,16.881,10.316,27.79c1.067,3.972,1.956,7.93,2.667,11.872c0.178,0.948,0.34,1.912,0.489,2.89
			c1.986,12.747,2.105,25.552,0.356,38.417c3.32,2.638,3.394,5.247,0.222,7.827c-1.275,0.889-2.594,1.719-3.958,2.49
			c-11.205,6.195-25.107,8.463-41.708,6.802c-2.283-2.163-2.386-4.401-0.311-6.714l0.044-6.404
			c-4.891-1.808-9.945-1.94-15.162-0.399C80.505,182.011,79.868,182.188,79.215,182.366l-0.444-23.921
			c-0.208-11.086-3.957-18.556-11.249-22.41c-1.334,0.237-2.698,0.43-4.091,0.577c-0.89,0-1.733-0.029-2.535-0.088
			c-3.764-0.327-7.336-1.749-10.715-4.269c-4.091-3.142-6.61-7.055-7.559-11.738c-0.919-4.625,0-8.7,2.757-12.228
			c0.652-0.831,1.423-1.615,2.312-2.357c0.267-0.208,0.503-0.415,0.711-0.623c2.401-1.66,5.114-2.579,8.137-2.756
			c1.838-0.237,3.706-0.134,5.603,0.311c1.719,0.475,3.35,1.127,4.891,1.957c1.007,0.534,1.926,1.156,2.756,1.868
			c4.031,3.142,6.506,7.099,7.425,11.871c0.979,4.684,0.148,8.79-2.49,12.316c-0.385,0.268-0.637,0.623-0.755,1.067
			c-0.535,0.474-1.112,0.949-1.734,1.423c1.837,4.357,3.972,4.772,6.403,1.245l4.179-6.358c0.622-1.334,1.63-2.179,3.023-2.535
			c1.246-0.118,2.668,0.652,4.269,2.312l4.625,6.091c2.55,3.498,4.713,3.024,6.492-1.422c-0.711-0.386-1.305-0.859-1.778-1.423
			c-0.296-0.296-0.607-0.607-0.934-0.934c-2.935-3.35-3.972-7.41-3.112-12.184c0.652-3.912,2.357-7.351,5.113-10.315
			c0.652-0.564,1.349-1.186,2.09-1.868c0.8-0.682,1.689-1.274,2.668-1.778c1.304-0.741,2.638-1.393,4.001-1.956
			c0.355-0.208,0.771-0.371,1.245-0.49c0.355-0.03,0.8-0.104,1.334-0.223c1.333-0.266,2.727-0.34,4.18-0.222
			c3.083-0.03,5.795,0.637,8.137,2c0.147,0.06,0.311,0.164,0.489,0.312c0.296,0.267,0.533,0.489,0.711,0.667
			c1.007,0.623,1.882,1.364,2.624,2.224c2.994,3.349,4.075,7.352,3.245,12.005c-0.474,2.608-1.378,5.039-2.712,7.292
			c-1.156,1.659-2.697,3.275-4.625,4.846c-2.016,1.719-4.195,2.92-6.536,3.603c-1.423,0.562-2.875,0.948-4.358,1.156
			c-0.83,0.088-1.719,0.148-2.668,0.178c-1.452-0.06-2.786-0.237-4.002-0.534c-7.469,4.269-11.012,11.932-10.626,22.989
			l0.578,24.188 M88.02,37.413l6.269-8.182 M83.484,35.546L82.017,18.96 M65.343,43.193l0.267,9.204l2.579-0.177 M62.319,52.397
			h3.291l0.178,7.249 M44.711,99.084c0.445-0.385,0.948-0.785,1.512-1.2c0.682-0.533,1.393-0.992,2.134-1.378
			c1.927-1.186,3.942-2.031,6.047-2.535c1.185-5.869,1.586-11.308,1.2-16.318 M66.232,65.736
			c-2.55,11.116-2.787,21.284-0.711,30.503c1.007,0.682,2.03,1.452,3.068,2.312c0.326,0.326,0.637,0.652,0.934,0.978
			c2.104,2.105,4.209,3.854,6.314,5.247c0.148,0,0.295,0.059,0.444,0.178c0.474,0.386,0.979,0.696,1.512,0.933L76.77,55.243
			 M54.405,93.971c2.549,5.366,6.254,6.122,11.116,2.269 M48.625,136.212c-0.06,0.742-0.327,1.319-0.801,1.734
			c-0.504,0.623-1.111,0.949-1.823,0.979c-0.682-0.059-1.334-0.37-1.957-0.934c-0.533-0.385-0.77-0.904-0.711-1.556
			c-0.059-0.741,0.163-1.393,0.667-1.956c0.534-0.534,1.171-0.771,1.913-0.712c0.651-0.059,1.259,0.163,1.823,0.667
			C48.268,134.968,48.564,135.561,48.625,136.212z M60.585,142.349c0.059,0.741-0.207,1.378-0.8,1.913
			c-0.533,0.474-1.097,0.74-1.69,0.799c-0.8,0-1.438-0.237-1.911-0.711c-0.475-0.474-0.728-1.126-0.757-1.957
			c-0.03-0.652,0.208-1.245,0.712-1.779c0.444-0.503,1.081-0.755,1.911-0.755c0.564-0.029,1.126,0.193,1.69,0.667
			C60.303,141,60.585,141.608,60.585,142.349z M72.235,133.367c-1.393,1.126-2.964,2.016-4.713,2.668 M128.171,97.262
			c-1.245-0.89-2.461-1.66-3.646-2.312c-2.342-1.333-4.669-2.12-6.981-2.356c-2.728,4.446-5.306,6.21-7.737,5.291
			c-2.372-0.83-3.914-1.378-4.625-1.645c-0.562,0.474-1.082,1.022-1.556,1.645c-1.275,1.393-2.46,2.638-3.558,3.735
			c-1.097,1.038-2.119,1.927-3.068,2.667c-0.385,0.326-0.829,0.623-1.334,0.89c-0.503,0.562-1.007,0.919-1.511,1.067
			c-3.231,1.926-6.047,2.771-8.448,2.534c-0.593-0.118-1.186-0.237-1.778-0.356c-1.482-0.325-2.979-0.829-4.492-1.511
			c-0.563-0.415-1.111-0.756-1.645-1.023 M141.332,89.97l0.223,8.67h3.157 M138.53,98.64h3.024l0.133,5.87 M117.544,92.593
			c-1.778-5.632-2.328-11.175-1.646-16.63 M82.328,65.07c0.03,0.593,0.371,1.171,1.023,1.734c0.534,0.474,1.097,0.727,1.69,0.756
			c0.651,0,1.244-0.208,1.778-0.623c0.089-0.09,0.163-0.164,0.222-0.223c0.504-0.563,0.741-1.141,0.711-1.734
			c0.059-0.711-0.164-1.304-0.667-1.779c0-0.059-0.03-0.088-0.089-0.088c-0.622-0.505-1.304-0.742-2.045-0.712
			c-0.652-0.059-1.229,0.192-1.734,0.756C82.684,63.632,82.388,64.27,82.328,65.07z M82.64,80.277c0,0.741,0.355,1.319,1.067,1.734
			c0.474,0.475,1.037,0.727,1.689,0.756c0.148,0.029,0.252,0.044,0.312,0.044c0.622-0.118,1.201-0.401,1.733-0.845
			c0.475-0.504,0.712-1.097,0.712-1.779c0.03-0.711-0.238-1.349-0.801-1.912c-0.415-0.237-0.845-0.4-1.29-0.489
			c-0.208-0.029-0.459-0.044-0.755-0.044c-0.652-0.059-1.216,0.148-1.69,0.622C82.995,78.987,82.669,79.625,82.64,80.277z
			 M83.04,96.595c0,0.563,0.355,1.097,1.067,1.601c0.148,0.148,0.326,0.312,0.534,0.49c0.355,0.237,0.711,0.37,1.067,0.399
			c0.8,0,1.481-0.311,2.045-0.934c0.563-0.503,0.829-1.082,0.8-1.734c0-0.296-0.015-0.504-0.044-0.622
			c-0.266-0.474-0.548-0.875-0.845-1.201c-0.563-0.533-1.245-0.8-2.045-0.8c-0.208,0-0.43,0.059-0.667,0.177
			c-0.355,0.06-0.696,0.282-1.022,0.667c-0.386,0.386-0.638,0.771-0.757,1.157C83.113,95.942,83.069,96.21,83.04,96.595z
			 M105.182,96.24c1.69-9.931,1.171-20.587-1.556-31.97 M101.225,132.7c1.512,1.066,3.217,1.853,5.113,2.356 M125.77,134.523
			c-0.06,0.711,0.222,1.29,0.845,1.734c0.534,0.533,1.17,0.785,1.912,0.756c0.652,0,1.29-0.282,1.912-0.846
			c0.415-0.474,0.638-1.037,0.667-1.688c0-0.742-0.282-1.394-0.845-1.957c-0.563-0.386-1.2-0.578-1.912-0.578
			c-0.652,0.06-1.259,0.267-1.823,0.623C125.962,133.219,125.71,133.871,125.77,134.523z M113.72,141.326
			c0,0.712,0.281,1.275,0.844,1.69c0.563,0.533,1.171,0.83,1.823,0.889c0.741-0.029,1.393-0.356,1.956-0.978
			c0.534-0.474,0.801-1.112,0.801-1.913c-0.059-0.652-0.356-1.229-0.889-1.734c-0.563-0.474-1.216-0.696-1.957-0.667
			c-0.652-0.03-1.244,0.222-1.778,0.756C113.957,139.903,113.689,140.555,113.72,141.326z M92.955,55.243l1.201,51.001
			 M78.993,37.458l-8.448-8.715 M114.209,150.44l0.711,0.713c1.897-2.165,4.581-3.958,8.048-5.381
			c9.575-3.646,14.747-10.553,15.519-20.72 M114.92,151.153l1.068,1.601 M128.705,162.891l0.623-5.558l-4.402,0.045l-2.802-4.047
			l4.313-0.089l2.891,4.09 M118.922,156.489l-0.044-2.624l5.736,9.115l1.378-0.044 M123.102,163.158l1.512-0.178 M142,178.231
			c-1.008,0.652-2.061,1.318-3.157,2c-8.241,4.774-17.237,7.59-26.99,8.45c-4.98,0.385-10.183,0.37-15.607-0.045 M137.375,163.247
			c1.571,7.233-0.726,12.242-6.892,15.029 M102.204,148.663c0.029,0.712,0.325,1.275,0.889,1.689
			c0.533,0.593,1.126,0.919,1.778,0.978c0.8,0,1.482-0.355,2.045-1.066c0.386-0.474,0.579-1.067,0.579-1.778
			c0.059-0.682-0.148-1.305-0.623-1.868c-0.623-0.385-1.319-0.578-2.09-0.578c-0.741-0.03-1.334,0.237-1.779,0.8
			C102.529,147.403,102.263,148.011,102.204,148.663z M100.958,163.825c0,0.741,0.281,1.319,0.845,1.733
			c0.415,0.534,1.022,0.801,1.823,0.801c0.652-0.06,1.304-0.356,1.957-0.89c0.474-0.385,0.682-0.992,0.623-1.822
			c0-0.652-0.252-1.29-0.756-1.913c-0.622-0.416-1.259-0.607-1.911-0.578c-0.801,0.029-1.394,0.281-1.779,0.756
			C101.166,162.477,100.899,163.113,100.958,163.825z M101.27,179.698c-0.03,0.652,0.252,1.23,0.844,1.734
			c0.474,0.594,1.112,0.89,1.912,0.89c0.682-0.03,1.305-0.356,1.867-0.979c0.475-0.474,0.742-1.036,0.801-1.688
			c-0.059-0.741-0.385-1.394-0.978-1.956c-0.505-0.387-1.127-0.579-1.868-0.579c-0.741,0.03-1.334,0.238-1.778,0.623
			C101.507,178.394,101.24,179.046,101.27,179.698z M35.908,127.365c1.215,10.108,5.972,16.704,14.273,19.787
			c8.359,3.142,12.91,9.174,13.65,18.097l0.579,24.412c4.506,0.207,9.159,0.029,13.962-0.535c0.296-0.029,0.592-0.088,0.889-0.177
			 M114.92,151.153c-3.112,3.467-4.297,7.825-3.557,13.071l0.489,24.457 M71.924,149.285c0,0.682-0.238,1.29-0.712,1.823
			c-0.475,0.623-1.112,0.905-1.912,0.845c-0.682,0.03-1.246-0.222-1.69-0.755c-0.563-0.563-0.86-1.171-0.89-1.823
			c0.059-0.712,0.282-1.319,0.667-1.824c0.534-0.474,1.156-0.726,1.868-0.755c0.8,0.059,1.437,0.282,1.912,0.667
			C71.731,147.966,71.983,148.574,71.924,149.285z M73.969,164.358c0,0.771-0.237,1.438-0.712,2.001
			c-0.593,0.356-1.23,0.563-1.912,0.622c-0.741,0-1.364-0.192-1.868-0.578c-0.475-0.533-0.712-1.186-0.712-1.957
			c-0.029-0.711,0.193-1.318,0.667-1.823c0.474-0.474,1.082-0.711,1.824-0.711c0.682-0.03,1.334,0.193,1.956,0.667
			C73.687,163.054,73.939,163.647,73.969,164.358z M46.001,153.02c7.173,1.512,10.953,5.795,11.338,12.85 M74.37,180.277
			c-0.031,0.74-0.327,1.349-0.89,1.822c-0.475,0.563-1.038,0.845-1.69,0.845c-0.741,0.09-1.378-0.178-1.912-0.801
			c-0.563-0.474-0.815-1.066-0.756-1.777c-0.059-0.652,0.163-1.261,0.667-1.823c0.534-0.475,1.141-0.741,1.823-0.801
			c0.711,0,1.304,0.237,1.778,0.711C74.043,179.017,74.37,179.624,74.37,180.277z M28.526,155.644l-2.401-0.044l0.222,3.734
			 M23.724,155.644l2.401-0.044l0.044-3.869 M34.751,180.632c9.16,5.544,19.045,8.553,29.658,9.028"/>
	</g>
</g>
</svg>
