<?xml version="1.0" encoding="utf-8"?>
<!-- Generator: Adobe Illustrator 16.0.0, SVG Export Plug-In . SVG Version: 6.00 Build 0)  -->
<!DOCTYPE svg PUBLIC "-//W3C//DTD SVG 1.0//EN" "http://www.w3.org/TR/2001/REC-SVG-20010904/DTD/svg10.dtd">
<svg version="1.0" id="Layer_1" xmlns="http://www.w3.org/2000/svg" xmlns:xlink="http://www.w3.org/1999/xlink" x="0px" y="0px"
	 width="544.223px" height="218.889px" viewBox="0 0 544.223 218.889" enable-background="new 0 0 544.223 218.889"
	 xml:space="preserve">
<path fill="#FFFFFF" d="M301.421,155.813c26.397-47.54,49.288,24.445,49.288,24.445c-3.547-69.713,58.285,11.088,58.285,11.088
	c-10.393-65.484,57.508,13.859,57.508,13.859c-9.846-54.047,59.675-23.804,59.675-23.804c-45.782-28.408-2.353-78.537-2.353-78.537
	c-74.145,26.185-32.71-20.854-32.71-20.854c-44.206,25.469-35.417-22.472-35.417-22.472c-40.191,47.877-63.669-25.256-63.669-25.256
	c-45.732,59.59-69.288-22.864-69.288-22.864c-33.948,79.684-79.483-5.545-79.483-5.545C221.462,70.964,177.84,30.37,177.84,30.37
	c-6.929,68.598-63.83,19.401-63.83,19.401c4.389,53.939-65.05,0-65.05,0c57.302,54.418-43.651,51.255-43.651,51.255
	c81.132-3.1,20.509,102.794,20.509,102.794c60.614-84.648,75.769,5.194,75.769,5.194c8.564-95.312,55.935-13.514,55.935-13.514
	c0-48.437,36.781-57.298,41.886-17.363c-6.598-51.618,36.788-47.885,48.916-16.742C257.346,142.166,271.881,103.438,301.421,155.813
	L301.421,155.813z"/>
<path fill="#F97000" d="M94.855,117.16c-1.601-2.983-2.398-4.479-4.002-7.466c-2.495,1.334-4.974,2.699-7.436,4.096
	c5.19,9.191,7.786,13.785,12.979,22.979c1.448-0.818,2.901-1.626,4.361-2.423l2.104,3.852c-5.427,2.972-8.115,4.521-13.442,7.737
	c-0.909-1.498-1.363-2.254-2.273-3.75c1.399-0.849,2.804-1.687,4.215-2.514c-5.339-9.108-8.01-13.659-13.346-22.768
	c-2.44,1.425-4.862,2.881-7.266,4.368c1.777,2.885,2.663,4.329,4.44,7.215c-1.421,0.873-2.835,1.759-4.241,2.655
	c-2.756-4.346-4.136-6.517-6.89-10.857c11.476-7.288,17.337-10.656,29.25-16.85c2.372,4.563,3.554,6.851,5.927,11.413
	C97.77,115.609,96.31,116.379,94.855,117.16L94.855,117.16z M129.1,98.767c1.216,2.967,1.171,5.781-0.079,8.477
	c-1.255,2.688-4.245,5.058-8.982,7.255c-1.551,0.709-3.098,1.431-4.638,2.164c1.56,3.288,2.336,4.938,3.897,8.228
	c1.488-0.71,2.981-1.406,4.481-2.09c0.732,1.595,1.094,2.391,1.822,3.986c-5.54,2.535-8.293,3.867-13.748,6.651
	c-0.796-1.564-1.194-2.344-1.993-3.906c1.412-0.723,2.83-1.434,4.254-2.135c-4.673-9.467-7.012-14.201-11.685-23.666
	c-1.83,0.903-2.741,1.357-4.562,2.29l-1.997-3.904c5.494-2.806,8.262-4.149,13.837-6.725c3.763-1.737,6.922-2.706,9.446-2.969
	c2.526-0.26,4.574,0.144,6.136,1.188C126.853,94.654,128.118,96.376,129.1,98.767L129.1,98.767z M123.408,101.032
	c-0.868-2.018-2.182-3.2-3.951-3.538c-1.771-0.338-4.322,0.228-7.613,1.745c-1.544,0.71-2.312,1.067-3.852,1.796
	c2.235,4.712,3.353,7.071,5.587,11.786c1.11-0.527,2.225-1.049,3.342-1.563c2.2-1.018,3.882-1.983,5.042-2.938
	c1.163-0.945,1.863-2,2.105-3.161C124.307,103.995,124.088,102.619,123.408,101.032L123.408,101.032z M157.577,87.753
	c-0.717-2.24-1.078-3.362-1.796-5.6c-6.575,2.103-9.842,3.229-16.338,5.633c1.455,3.93,2.18,5.898,3.634,9.827
	c5.498-2.035,8.261-2.998,13.817-4.814c0.545,1.671,0.819,2.506,1.362,4.174c-5.489,1.793-8.221,2.743-13.653,4.756
	c1.601,4.321,2.399,6.488,4,10.812c6.053-2.237,9.103-3.288,15.228-5.252c-0.784-2.443-1.172-3.667-1.954-6.114
	c1.497-0.479,2.997-0.949,4.501-1.41c1.263,4.137,1.893,6.203,3.157,10.339c-11.791,3.606-17.632,5.666-29.147,10.32
	c-0.657-1.628-0.989-2.44-1.646-4.066c1.503-0.609,3.01-1.207,4.522-1.791c-3.82-9.844-5.73-14.762-9.55-24.606
	c-1.622,0.631-3.239,1.272-4.853,1.924c-0.655-1.627-0.987-2.439-1.643-4.068c12.652-5.11,19.068-7.382,32.026-11.344l3.006,9.816
	C160.378,86.865,159.443,87.157,157.577,87.753L157.577,87.753z M174.11,76.781c2.719,10.195,4.076,15.301,6.796,25.503
	c1.67-0.447,2.511-0.66,4.184-1.087c0.435,1.699,0.646,2.55,1.079,4.251c-5.611,1.421-8.405,2.19-13.97,3.844l-1.251-4.204
	c1.795-0.526,2.692-0.794,4.492-1.305c-2.881-10.156-4.316-15.235-7.193-25.394c-1.934,0.553-2.897,0.83-4.822,1.403l-1.25-4.207
	c6.318-1.878,9.492-2.752,15.868-4.357c0.432,1.698,0.646,2.551,1.072,4.255C177.113,75.991,176.11,76.25,174.11,76.781z
	 M193.507,72.151c-3.847,5.811-5.69,8.744-9.2,14.646c6.163,4.318,9.165,6.543,14.988,11.105c1.301-0.273,2.604-0.541,3.907-0.802
	c0.345,1.726,0.516,2.581,0.854,4.301c-5.871,1.172-8.801,1.819-14.633,3.242c-0.343-1.423-0.688-2.845-1.037-4.267
	c1.604-0.389,2.401-0.58,4.008-0.949c-5.644-4.44-8.543-6.611-14.498-10.831c3.396-6.023,5.177-9.021,8.906-14.965
	c-1.806,0.417-2.708,0.63-4.51,1.065c-0.415-1.704-0.619-2.558-1.034-4.26c6.196-1.506,9.307-2.198,15.549-3.447
	c0.347,1.717,0.519,2.582,0.862,4.3C196.005,71.627,195.17,71.8,193.507,72.151L193.507,72.151z M225.915,66.565
	c5.608,10.002,8.268,15.049,13.294,25.229c1.652-0.158,2.48-0.233,4.129-0.372c0.149,1.748,0.227,2.62,0.374,4.364
	c-5.772,0.489-8.653,0.794-14.404,1.518c-0.222-1.741-0.328-2.605-0.55-4.353c1.931-0.24,2.896-0.354,4.83-0.57
	c-4.964-10.145-7.586-15.182-13.097-25.148c-0.071,0.012-0.104,0.018-0.18,0.025c-2.62,11.101-3.791,16.659-5.838,27.782
	c1.863-0.31,2.796-0.461,4.661-0.748c0.269,1.738,0.397,2.603,0.663,4.336c-5.772,0.883-8.654,1.385-14.395,2.509
	c-0.338-1.724-0.505-2.581-0.844-4.304c1.771-0.348,2.654-0.514,4.428-0.838c2.046-11.16,3.221-16.745,5.865-27.888
	c-1.899,0.29-2.848,0.44-4.744,0.758c-0.279-1.68-0.42-2.514-0.697-4.189c8.291-1.379,12.452-1.958,20.796-2.892
	c0.189,1.689,0.286,2.531,0.478,4.22C228.777,66.218,227.821,66.331,225.915,66.565z M282.897,76.946
	c-0.09,3.576-1.025,6.73-2.762,9.487c-1.731,2.753-4.059,4.879-6.979,6.4c-2.92,1.521-6.195,2.313-9.895,2.425
	c-3.647,0.107-6.909-0.528-9.854-1.94c-2.944-1.414-5.328-3.438-7.157-6.102c-1.83-2.664-2.914-5.726-3.2-9.217
	c-0.283-3.46,0.312-6.613,1.843-9.462c1.527-2.844,3.799-5.137,6.817-6.842c3.02-1.706,6.547-2.64,10.53-2.757
	c4.144-0.122,7.84,0.626,11.021,2.2c3.178,1.573,5.605,3.767,7.277,6.531C282.211,70.444,282.978,73.54,282.897,76.946
	L282.897,76.946z M263.344,90.565c2.55-0.073,4.81-0.743,6.807-2.021c1.972-1.244,3.587-2.979,4.686-5.036
	c1.116-2.044,1.708-4.332,1.722-6.66c0.02-2.413-0.568-4.657-1.79-6.721c-1.217-2.062-2.917-3.689-5.109-4.854
	c-2.19-1.169-4.681-1.721-7.435-1.64c-2.701,0.081-5.067,0.761-7.086,2.018c-2.019,1.255-3.523,2.948-4.519,5.048
	c-0.994,2.101-1.397,4.398-1.234,6.884c0.172,2.638,0.874,4.954,2.077,6.958c1.162,1.955,2.857,3.539,4.887,4.565
	C258.397,90.162,260.717,90.64,263.344,90.565z M297.948,64.498c-0.655,10.531-0.984,15.807-1.644,26.346
	c1.705,0.104,2.566,0.157,4.276,0.284c-0.131,1.753-0.2,2.629-0.33,4.376c-5.738-0.429-8.604-0.586-14.35-0.777
	c0.062-1.754,0.088-2.628,0.15-4.384c1.85,0.065,2.771,0.104,4.624,0.188c0.496-10.541,0.748-15.817,1.238-26.359
	c-1.655-0.082-3.312-0.15-4.968-0.204c0.058-1.752,0.086-2.63,0.146-4.385c6.53,0.222,9.79,0.401,16.304,0.896
	c-0.128,1.75-0.192,2.624-0.329,4.374C301.361,64.722,299.655,64.603,297.948,64.498z M317.702,66.243
	c-5.471,4.296-8.14,6.498-13.312,10.98c4.444,6.048,6.569,9.109,10.634,15.28c1.582,0.182,2.37,0.272,3.947,0.477
	c-0.221,1.738-0.332,2.604-0.55,4.345c-5.929-0.747-8.894-1.057-14.84-1.555c0.146-1.751,0.224-2.622,0.36-4.373
	c1.636,0.141,2.45,0.215,4.082,0.364c-3.92-5.995-5.968-8.974-10.244-14.857c5.096-4.64,7.728-6.917,13.126-11.374
	c-1.529-0.15-3.062-0.288-4.594-0.415c0.148-1.748,0.222-2.628,0.37-4.375c6.318,0.533,9.483,0.863,15.782,1.65
	c-0.223,1.741-0.333,2.611-0.551,4.353C320.234,66.535,319.39,66.436,317.702,66.243L317.702,66.243z M353.199,78.581
	c-0.666,3.135-2.288,5.441-4.811,6.955c-2.521,1.518-6.273,1.793-11.327,0.948c-1.648-0.29-3.3-0.564-4.954-0.822
	c-0.572,3.592-0.864,5.392-1.438,8.982c1.91,0.311,2.867,0.467,4.777,0.801l-0.75,4.316c-5.894-1.024-8.848-1.472-14.769-2.24
	c0.226-1.743,0.338-2.609,0.562-4.354c1.843,0.242,2.765,0.367,4.604,0.633c1.504-10.45,2.26-15.672,3.764-26.123
	c-1.976-0.28-2.962-0.418-4.939-0.675c0.23-1.744,0.333-2.61,0.562-4.35c5.963,0.776,8.948,1.223,14.887,2.231
	c4.005,0.68,7.117,1.654,9.308,2.861c2.198,1.204,3.627,2.689,4.315,4.428C353.674,73.918,353.74,76.058,353.199,78.581z
	 M347.309,77.253c0.427-2.155,0.025-3.871-1.224-5.146c-1.246-1.275-3.635-2.243-7.139-2.843c-1.369-0.235-2.738-0.462-4.109-0.682
	c-0.818,5.154-1.233,7.73-2.063,12.884c1.431,0.226,2.146,0.342,3.57,0.588c2.343,0.396,4.249,0.539,5.717,0.409
	c1.475-0.135,2.628-0.608,3.478-1.432C346.38,80.204,346.976,78.947,347.309,77.253z M394.468,96.836
	c-1.158,3.39-3.015,6.11-5.508,8.213c-2.503,2.102-5.384,3.422-8.649,3.994c-3.271,0.567-6.668,0.342-10.258-0.668
	c-3.538-0.997-6.485-2.588-8.894-4.818c-2.402-2.229-4.087-4.881-5.043-7.968c-0.957-3.085-1.078-6.337-0.311-9.75
	c0.76-3.388,2.273-6.222,4.59-8.479c2.319-2.257,5.188-3.766,8.604-4.487c3.405-0.721,7.077-0.547,10.944,0.539
	c4.025,1.134,7.364,2.96,9.961,5.425c2.597,2.464,4.279,5.297,5.064,8.441C395.755,90.424,395.564,93.613,394.468,96.836z
	 M371.536,103.919c2.475,0.697,4.851,0.741,7.161,0.122c2.314-0.615,4.323-1.739,6.022-3.387c1.706-1.646,2.938-3.583,3.657-5.839
	c0.745-2.292,0.847-4.612,0.29-6.95c-0.562-2.336-1.71-4.402-3.474-6.183c-1.765-1.773-4.002-3.048-6.671-3.803
	c-2.628-0.738-5.106-0.8-7.421-0.208c-2.314,0.596-4.267,1.756-5.847,3.463c-1.589,1.71-2.665,3.779-3.254,6.198
	c-0.625,2.571-0.639,4.989-0.08,7.263c0.532,2.218,1.684,4.238,3.321,5.825C366.903,102.046,368.982,103.201,371.536,103.919
	L371.536,103.919z M435.294,98.487c0.643-1.404,0.97-2.113,1.616-3.522c1.908,0.878,2.86,1.321,4.756,2.225
	c-1.938,4.071-2.896,6.106-4.824,10.181c-1.569-0.747-3.146-1.481-4.729-2.201c-0.237-2.562-1.203-5.004-2.784-7.034
	c-1.606-2.087-3.709-3.681-6.265-4.748c-2.468-1.033-4.92-1.366-7.313-1.002c-2.394,0.365-4.49,1.307-6.301,2.808
	c-1.808,1.496-3.113,3.356-3.942,5.56c-0.853,2.271-1.093,4.577-0.729,6.908c0.343,2.298,1.261,4.472,2.669,6.318
	c1.416,1.887,3.245,3.297,5.521,4.245c2.789,1.165,5.579,1.446,8.429,0.837c2.84-0.617,5.431-2.111,7.764-4.516
	c1.169,1.413,2.326,2.836,3.47,4.269c-2.903,2.957-6.305,4.696-10.199,5.289c-3.898,0.594-7.819,0.033-11.874-1.653
	c-3.336-1.392-6.009-3.324-8.058-5.858c-2.05-2.524-3.357-5.338-3.915-8.462c-0.556-3.124-0.312-6.233,0.791-9.329
	c1.203-3.351,3.057-6.065,5.619-8.098c2.559-2.033,5.554-3.23,8.972-3.549c3.41-0.328,6.983,0.268,10.661,1.803
	c2.471,1.028,4.59,2.354,6.352,3.961C432.726,94.514,434.185,96.398,435.294,98.487L435.294,98.487z M475.911,120.134
	c0.676-1.104,1.35-2.207,2.022-3.312c1.519,0.929,3.031,1.866,4.537,2.815c-2.403,3.817-3.606,5.72-6.013,9.533
	c-1.489-0.941-2.987-1.871-4.491-2.789c0.041-2.618-0.632-5.078-2.009-7.357c-1.376-2.279-3.299-4.122-5.743-5.506
	c-2.367-1.34-4.788-1.97-7.231-1.902c-2.446,0.064-4.662,0.743-6.648,2.015c-1.951,1.242-3.534,2.984-4.584,5.045
	c-1.097,2.086-1.621,4.426-1.521,6.78c0.088,2.364,0.746,4.569,1.955,6.62c1.212,2.056,2.891,3.687,5.06,4.916
	c2.677,1.514,5.449,2.141,8.376,1.882c2.93-0.254,5.692-1.42,8.307-3.521c1.229,1.872,1.823,2.81,3.016,4.69
	c-3.256,2.578-6.863,3.89-10.854,3.985c-3.983,0.103-7.86-0.945-11.739-3.133c-3.193-1.797-5.655-4.056-7.417-6.822
	c-1.771-2.773-2.767-5.733-2.972-8.914c-0.203-3.179,0.397-6.235,1.855-9.18c1.585-3.189,3.754-5.666,6.55-7.375
	c2.804-1.704,5.947-2.525,9.411-2.43c3.457,0.099,6.979,1.136,10.496,3.12c2.363,1.337,4.349,2.92,5.931,4.74
	C473.779,115.842,475.031,117.905,475.911,120.134L475.911,120.134z"/>
<g>
	<path fill="#F97000" d="M243.132,122.609c-0.641,0.32-2.081,0.663-3.957,0.663c-5.328,0-8.072-3.315-8.072-7.706
		c0-5.259,3.751-8.187,8.416-8.187c1.807,0,3.178,0.365,3.796,0.687l-0.709,2.768c-0.928-0.384-1.923-0.578-2.927-0.571
		c-2.768,0-4.917,1.669-4.917,5.1c0,3.087,1.829,5.03,4.939,5.03c1.052,0,2.218-0.229,2.904-0.503L243.132,122.609L243.132,122.609z
		 M254.587,116.527h-5.671v3.658h6.335v2.858h-9.833V107.63h9.513v2.858h-6.015v3.201h5.671V116.527z M257.628,107.836
		c1.074-0.183,2.584-0.319,4.71-0.319c2.148,0,3.682,0.411,4.71,1.234c0.983,0.777,1.646,2.059,1.646,3.566
		c0,1.51-0.503,2.79-1.418,3.658c-1.188,1.121-2.949,1.624-5.007,1.624c-0.458,0-0.869-0.022-1.189-0.068v5.512h-3.452V107.836
		L257.628,107.836z M261.08,114.833c0.297,0.068,0.663,0.093,1.167,0.093c1.853,0,2.995-0.938,2.995-2.517
		c0-1.417-0.983-2.264-2.722-2.264c-0.709,0-1.189,0.068-1.44,0.137V114.833L261.08,114.833z M274.114,107.63v4.573
		c0,2.47-0.046,4.917-0.183,6.975h0.092c0.801-1.807,1.829-3.841,2.743-5.487l3.315-6.061h3.567v15.413h-3.202v-4.551
		c0-2.378,0.047-4.481,0.252-6.494h-0.068c-0.744,1.886-1.614,3.719-2.605,5.487l-3.134,5.558h-3.979V107.63H274.114L274.114,107.63
		z M285.364,123.043c0.32-0.504,0.572-1.099,0.777-1.738c0.617-1.761,0.982-3.566,2.148-4.688c0.345-0.344,0.802-0.596,1.281-0.801
		v-0.068c-1.715-0.319-3.247-1.509-3.247-3.75c0-1.44,0.64-2.538,1.601-3.271c1.188-0.915,3.063-1.212,5.03-1.212
		c1.692,0,3.315,0.138,4.438,0.319v15.207h-3.453v-6.061h-0.846c-0.687,0-1.235,0.206-1.647,0.595
		c-0.982,0.938-1.371,2.903-1.828,4.162c-0.16,0.457-0.274,0.822-0.55,1.304L285.364,123.043L285.364,123.043z M293.94,110.238
		c-0.252-0.045-0.709-0.137-1.418-0.137c-1.509,0-2.722,0.64-2.722,2.218c0,1.419,1.304,2.173,2.882,2.173
		c0.457,0,0.938-0.022,1.258-0.068V110.238z"/>
</g>
<g>
	<path fill="none" stroke="#FFFFFF" stroke-width="2" d="M235.175,191.731c0-0.389,0.01-0.773,0.029-1.159
		c0.019-0.385,0.062-0.753,0.131-1.104c0.068-0.354,0.168-0.685,0.3-0.995c0.267-0.633,0.769-1.137,1.401-1.404
		c0.342-0.155,0.756-0.256,1.24-0.301l9.927-0.932c0.312-0.025,0.582-0.07,0.814-0.135c0.232-0.065,0.424-0.189,0.577-0.375
		c0.151-0.184,0.267-0.453,0.345-0.809c0.078-0.356,0.115-0.844,0.115-1.465c0-0.518-0.038-0.952-0.115-1.309
		s-0.207-0.649-0.389-0.883c-0.191-0.24-0.444-0.424-0.731-0.533c-0.369-0.138-0.756-0.229-1.148-0.271
		c-0.54-0.064-1.084-0.098-1.628-0.103c-0.728-0.011-1.455-0.016-2.183-0.015c-1.138,0-2.096,0.021-2.874,0.062
		c-0.779,0.042-1.422,0.118-1.93,0.229c-0.507,0.109-0.896,0.258-1.169,0.445c-0.271,0.188-0.47,0.432-0.596,0.731
		c-0.136,0.345-0.211,0.711-0.224,1.081c-0.021,0.42-0.033,0.914-0.033,1.482h-1.862c0-0.931,0.086-1.715,0.257-2.351
		c0.172-0.638,0.424-1.162,0.757-1.575c0.331-0.412,0.755-0.741,1.236-0.96c0.542-0.242,1.114-0.408,1.702-0.495
		c0.643-0.104,1.36-0.162,2.151-0.179c0.791-0.018,1.653-0.024,2.584-0.024c0.93,0,1.774,0.015,2.532,0.044
		c0.759,0.029,1.437,0.095,2.034,0.198c0.597,0.104,1.114,0.256,1.554,0.456c0.438,0.2,0.802,0.474,1.089,0.818
		s0.5,0.773,0.64,1.284c0.139,0.512,0.208,1.128,0.208,1.853c0,0.62-0.045,1.185-0.135,1.69c-0.091,0.507-0.252,0.947-0.483,1.322
		c-0.234,0.376-0.561,0.687-0.947,0.9c-0.4,0.228-0.908,0.368-1.528,0.428l-9.927,0.93c-0.472,0.045-0.833,0.134-1.085,0.263
		c-0.253,0.13-0.437,0.335-0.553,0.616s-0.183,0.651-0.198,1.11c-0.018,0.578-0.026,1.157-0.023,1.735h14.581v1.552h-16.443V191.731
		L235.175,191.731z M264.967,178.39c1.138,0,2.097,0.069,2.875,0.208c0.778,0.141,1.42,0.351,1.925,0.631
		c0.503,0.28,0.892,0.635,1.163,1.062c0.271,0.427,0.47,0.927,0.598,1.502c0.125,0.575,0.198,1.226,0.223,1.949
		c0.022,0.724,0.033,1.524,0.033,2.403c0,0.88-0.011,1.681-0.033,2.404c-0.016,0.655-0.09,1.307-0.223,1.948
		c-0.109,0.532-0.312,1.041-0.598,1.503c-0.271,0.427-0.659,0.779-1.163,1.062c-0.505,0.281-1.146,0.491-1.925,0.631
		c-0.778,0.139-1.737,0.209-2.875,0.209h-3.732c-1.137,0-2.096-0.07-2.875-0.209c-0.779-0.14-1.42-0.35-1.925-0.631
		c-0.504-0.281-0.894-0.635-1.167-1.062c-0.289-0.461-0.492-0.97-0.602-1.503c-0.134-0.642-0.207-1.293-0.218-1.948
		c-0.021-0.725-0.029-1.524-0.029-2.404c0-0.879,0.01-1.681,0.029-2.403c0.019-0.725,0.092-1.374,0.218-1.949
		s0.326-1.075,0.602-1.502c0.273-0.428,0.664-0.781,1.167-1.062c0.505-0.28,1.146-0.49,1.925-0.631
		c0.778-0.139,1.737-0.208,2.875-0.208H264.967z M264.967,192.352c0.828,0,1.522-0.024,2.084-0.073
		c0.562-0.048,1.027-0.146,1.396-0.295c0.368-0.148,0.652-0.362,0.854-0.641c0.2-0.277,0.347-0.646,0.437-1.104
		s0.144-1.022,0.16-1.691c0.016-0.669,0.023-1.47,0.023-2.398c0-0.932-0.008-1.73-0.023-2.399c-0.018-0.669-0.07-1.232-0.16-1.691
		c-0.09-0.46-0.236-0.828-0.437-1.104c-0.2-0.277-0.483-0.491-0.848-0.641c-0.365-0.148-0.831-0.247-1.396-0.296
		c-0.695-0.053-1.393-0.077-2.089-0.072h-3.733c-0.827,0-1.523,0.024-2.089,0.072c-0.564,0.049-1.032,0.146-1.4,0.296
		s-0.653,0.362-0.854,0.641c-0.199,0.277-0.346,0.646-0.436,1.104c-0.09,0.458-0.143,1.022-0.155,1.691s-0.021,1.469-0.021,2.399
		c0,0.93,0.009,1.729,0.024,2.398s0.069,1.232,0.16,1.691c0.09,0.459,0.234,0.827,0.431,1.104c0.197,0.277,0.48,0.491,0.849,0.641
		s0.836,0.247,1.4,0.295c0.565,0.049,1.262,0.073,2.089,0.073H264.967z M278.918,178.701h2.481v14.891h-1.861v-13.344l-4.343,3.727
		l-0.933-1.24L278.918,178.701z M292.569,192.352c1.003,0,1.851-0.017,2.545-0.049s1.271-0.108,1.73-0.229
		c0.458-0.12,0.817-0.299,1.076-0.538c0.258-0.238,0.45-0.565,0.576-0.979s0.203-0.93,0.232-1.547
		c0.028-0.616,0.044-1.364,0.044-2.243c-0.505,0.304-1.158,0.534-1.959,0.691c-0.802,0.159-1.803,0.238-3.006,0.238h-3.11
		c-1.397,0-2.537-0.098-3.423-0.291c-0.886-0.194-1.579-0.484-2.079-0.872c-0.486-0.366-0.848-0.875-1.033-1.455
		c-0.188-0.581-0.281-1.26-0.281-2.035s0.094-1.454,0.281-2.036c0.187-0.579,0.547-1.087,1.033-1.453
		c0.5-0.389,1.193-0.68,2.079-0.873s2.025-0.291,3.423-0.291h3.11c1.138,0,2.098,0.069,2.875,0.208
		c0.779,0.141,1.422,0.351,1.931,0.631c0.506,0.28,0.896,0.635,1.167,1.062c0.271,0.427,0.471,0.927,0.598,1.502
		c0.125,0.575,0.199,1.226,0.223,1.949c0.047,1.64,0.045,3.28-0.006,4.92c-0.025,0.746-0.112,1.405-0.262,1.978
		c-0.132,0.537-0.372,1.04-0.708,1.479c-0.321,0.413-0.783,0.752-1.381,1.014c-0.599,0.262-1.356,0.455-2.278,0.581
		c-0.92,0.126-2.054,0.189-3.397,0.189c-1.138,0-2.126-0.043-2.966-0.126c-0.841-0.085-1.56-0.21-2.157-0.379
		c-0.598-0.168-1.089-0.375-1.47-0.621c-0.381-0.245-0.68-0.529-0.896-0.854c-0.216-0.323-0.365-0.682-0.445-1.075
		c-0.083-0.425-0.124-0.856-0.121-1.289h1.542c0,0.259,0.021,0.507,0.059,0.746s0.124,0.462,0.257,0.669
		c0.133,0.206,0.338,0.395,0.615,0.562s0.658,0.313,1.14,0.438c0.48,0.123,1.084,0.217,1.809,0.281
		C290.657,192.32,291.534,192.352,292.569,192.352L292.569,192.352z M293.809,186.146c1.016,0,1.847-0.021,2.491-0.067
		c0.646-0.045,1.152-0.151,1.519-0.319s0.615-0.417,0.751-0.746c0.137-0.33,0.204-0.778,0.204-1.349
		c0-0.774-0.067-1.404-0.204-1.891c-0.136-0.484-0.386-0.862-0.751-1.135s-0.871-0.455-1.519-0.552
		c-0.646-0.099-1.477-0.146-2.491-0.146h-3.11c-0.725,0-1.35,0.02-1.877,0.058c-0.45,0.028-0.898,0.093-1.338,0.194
		c-0.364,0.091-0.662,0.213-0.893,0.368c-0.221,0.147-0.403,0.345-0.533,0.576c-0.133,0.254-0.218,0.53-0.252,0.814
		c-0.044,0.362-0.064,0.726-0.062,1.091c0,0.414,0.021,0.777,0.067,1.091c0.045,0.313,0.131,0.586,0.257,0.813
		c0.127,0.229,0.303,0.422,0.527,0.577c0.226,0.155,0.523,0.277,0.893,0.368s0.814,0.155,1.339,0.193
		c0.622,0.042,1.246,0.062,1.871,0.059h3.11V186.146z"/>
</g>
</svg>
