<?xml version="1.0" encoding="utf-8"?>
<!-- Generator: Adobe Illustrator 16.0.0, SVG Export Plug-In . SVG Version: 6.00 Build 0)  -->
<!DOCTYPE svg PUBLIC "-//W3C//DTD SVG 1.1//EN" "http://www.w3.org/Graphics/SVG/1.1/DTD/svg11.dtd">
<svg version="1.1" id="Layer_1" xmlns="http://www.w3.org/2000/svg" xmlns:xlink="http://www.w3.org/1999/xlink" x="0px" y="0px"
	 width="544.223px" height="218.889px" viewBox="0 0 544.223 218.889" enable-background="new 0 0 544.223 218.889"
	 xml:space="preserve">
<g>
	<path fill="#FFFFFF" d="M302.793,153.877c26.387-47.519,49.268,24.436,49.268,24.436c-3.545-69.685,58.262,11.083,58.262,11.083
		c-10.389-65.457,57.484,13.853,57.484,13.853c-9.842-54.025,59.65-23.794,59.65-23.794c-45.762-28.397-2.35-78.505-2.35-78.505
		c-74.115,26.174-32.697-20.844-32.697-20.844c-44.188,25.458-35.404-22.463-35.404-22.463
		c-40.174,47.858-63.643-25.245-63.643-25.245c-45.712,59.565-69.258-22.856-69.258-22.856C290.169,89.194,244.653,4,244.653,4
		c-21.787,65.065-65.39,24.487-65.39,24.487c-6.926,68.57-63.804,19.393-63.804,19.393c4.387,53.917-65.023,0-65.023,0
		c57.278,54.397-43.634,51.235-43.634,51.235c81.099-3.099,20.501,102.751,20.501,102.751c60.589-84.614,75.737,5.193,75.737,5.193
		c8.561-95.275,55.912-13.508,55.912-13.508c0-48.417,36.766-57.275,41.869-17.357c-6.595-51.597,36.773-47.866,48.895-16.736
		C258.736,140.237,273.265,101.524,302.793,153.877z"/>
	<g>
		<g>
			<g>
				<path fill="#F97000" d="M96.311,115.241c-1.6-2.982-2.398-4.477-4-7.462c-2.986,1.604-4.475,2.423-7.432,4.093
					c5.189,9.189,7.782,13.781,12.973,22.969c1.737-0.979,2.609-1.463,4.359-2.422c0.84,1.537,1.263,2.313,2.104,3.85
					c-5.425,2.971-8.113,4.518-13.437,7.735c-0.909-1.498-1.363-2.253-2.272-3.749c1.683-1.016,2.525-1.522,4.213-2.513
					c-5.337-9.104-8.007-13.653-13.341-22.757c-2.921,1.711-4.37,2.588-7.262,4.367c1.776,2.883,2.662,4.327,4.438,7.211
					c-1.7,1.047-2.548,1.58-4.24,2.655c-2.755-4.344-4.133-6.514-6.886-10.853c11.47-7.285,17.33-10.652,29.238-16.842
					c2.371,4.562,3.552,6.847,5.924,11.408C98.933,113.845,98.058,114.305,96.311,115.241z"/>
			</g>
			<g>
				<path fill="#F97000" d="M130.542,96.855c1.216,2.965,1.171,5.779-0.079,8.472c-1.254,2.686-4.243,5.056-8.977,7.252
					c-1.857,0.852-2.786,1.285-4.636,2.163c1.558,3.288,2.335,4.937,3.895,8.224c1.787-0.849,2.686-1.268,4.479-2.089
					c0.732,1.594,1.094,2.39,1.822,3.986c-5.538,2.534-8.29,3.866-13.743,6.649c-0.795-1.564-1.193-2.343-1.992-3.905
					c1.697-0.866,2.547-1.292,4.252-2.134c-4.671-9.463-7.009-14.195-11.68-23.656c-1.829,0.903-2.74,1.357-4.56,2.289
					c-0.797-1.562-1.197-2.34-1.996-3.904c5.492-2.803,8.258-4.148,13.831-6.721c3.761-1.737,6.919-2.705,9.443-2.967
					c2.526-0.26,4.573,0.143,6.133,1.186C128.296,92.743,129.561,94.465,130.542,96.855z M124.853,99.12
					c-0.867-2.016-2.18-3.199-3.949-3.537c-1.772-0.338-4.322,0.227-7.611,1.744c-1.544,0.71-2.312,1.068-3.849,1.796
					c2.234,4.71,3.35,7.069,5.584,11.782c1.333-0.631,2.002-0.946,3.34-1.564c2.2-1.017,3.88-1.983,5.04-2.935
					c1.163-0.946,1.863-1.999,2.104-3.161C125.751,102.081,125.533,100.706,124.853,99.12z"/>
			</g>
			<g>
				<path fill="#F97000" d="M159.008,85.846c-0.716-2.24-1.077-3.361-1.795-5.598c-6.572,2.102-9.838,3.229-16.331,5.631
					c1.454,3.928,2.179,5.896,3.632,9.823c5.496-2.034,8.258-2.997,13.811-4.812c0.545,1.67,0.82,2.504,1.363,4.172
					c-5.488,1.792-8.218,2.742-13.649,4.754c1.6,4.319,2.399,6.485,3.998,10.807c6.051-2.237,9.099-3.287,15.222-5.25
					c-0.784-2.442-1.172-3.666-1.954-6.112c1.795-0.572,2.695-0.855,4.499-1.409c1.263,4.135,1.892,6.2,3.156,10.334
					c-11.786,3.605-17.624,5.664-29.135,10.316c-0.657-1.627-0.989-2.439-1.645-4.064c1.804-0.729,2.708-1.088,4.52-1.791
					c-3.819-9.839-5.727-14.755-9.545-24.596c-1.943,0.758-2.916,1.143-4.851,1.923c-0.655-1.626-0.987-2.44-1.642-4.067
					c12.648-5.109,19.061-7.379,32.014-11.339c1.202,3.928,1.804,5.89,3.004,9.813C161.808,84.958,160.873,85.25,159.008,85.846z"/>
			</g>
			<g>
				<path fill="#F97000" d="M175.534,74.879c2.717,10.192,4.075,15.294,6.793,25.492c1.669-0.447,2.51-0.66,4.182-1.086
					c0.434,1.699,0.646,2.548,1.078,4.249c-5.609,1.42-8.401,2.19-13.964,3.842c-0.5-1.683-0.75-2.517-1.25-4.202
					c1.794-0.527,2.692-0.794,4.491-1.305c-2.879-10.152-4.315-15.228-7.191-25.382c-1.933,0.552-2.896,0.83-4.82,1.403
					c-0.5-1.684-0.75-2.526-1.25-4.205c6.316-1.877,9.488-2.751,15.862-4.357c0.431,1.699,0.646,2.55,1.072,4.253
					C178.535,74.089,177.533,74.348,175.534,74.879z M194.923,70.25c-3.845,5.808-5.687,8.741-9.196,14.639
					c6.16,4.317,9.161,6.54,14.982,11.101c1.563-0.328,2.342-0.488,3.906-0.801c0.344,1.723,0.515,2.58,0.855,4.299
					c-5.869,1.17-8.797,1.818-14.627,3.24c-0.412-1.708-0.619-2.561-1.037-4.264c1.602-0.389,2.401-0.58,4.006-0.949
					c-5.641-4.44-8.539-6.609-14.492-10.827c3.393-6.021,5.174-9.017,8.903-14.959c-1.805,0.417-2.707,0.63-4.508,1.065
					c-0.415-1.703-0.619-2.555-1.034-4.258c6.194-1.504,9.303-2.197,15.543-3.445c0.346,1.716,0.517,2.581,0.862,4.298
					C197.42,69.726,196.586,69.899,194.923,70.25z"/>
			</g>
			<g>
				<path fill="#F97000" d="M227.318,64.666c5.606,9.998,8.263,15.043,13.289,25.218c1.651-0.158,2.478-0.233,4.127-0.372
					c0.149,1.748,0.225,2.619,0.374,4.363c-5.77,0.49-8.651,0.793-14.4,1.517c-0.22-1.741-0.328-2.606-0.549-4.351
					c1.93-0.24,2.895-0.354,4.829-0.57c-4.962-10.141-7.583-15.176-13.091-25.138c-0.073,0.011-0.105,0.017-0.18,0.026
					c-2.619,11.095-3.789,16.652-5.836,27.77c1.863-0.309,2.795-0.461,4.66-0.748c0.268,1.738,0.398,2.602,0.663,4.334
					c-5.77,0.883-8.651,1.385-14.388,2.508c-0.338-1.723-0.505-2.58-0.844-4.302c1.769-0.347,2.654-0.513,4.426-0.837
					c2.045-11.156,3.219-16.739,5.863-27.877c-1.898,0.29-2.846,0.442-4.742,0.758c-0.279-1.679-0.42-2.513-0.697-4.187
					c8.288-1.378,12.447-1.957,20.787-2.89c0.19,1.688,0.286,2.53,0.477,4.218C230.178,64.319,229.223,64.433,227.318,64.666z"/>
			</g>
			<g>
				<path fill="#F97000" d="M284.276,75.043c-0.09,3.574-1.026,6.727-2.76,9.484c-1.732,2.752-4.057,4.877-6.977,6.398
					c-2.919,1.52-6.193,2.312-9.889,2.424c-3.646,0.107-6.908-0.529-9.85-1.941c-2.943-1.414-5.326-3.435-7.154-6.098
					c-1.829-2.663-2.913-5.723-3.199-9.213c-0.284-3.459,0.311-6.611,1.841-9.458c1.528-2.843,3.797-5.135,6.816-6.839
					c3.017-1.706,6.544-2.639,10.526-2.756c4.141-0.122,7.836,0.626,11.016,2.199c3.176,1.574,5.602,3.765,7.274,6.53
					C283.591,68.543,284.357,71.639,284.276,75.043z M264.732,88.657c2.548-0.074,4.806-0.744,6.802-2.022
					c2.001-1.278,3.566-2.953,4.684-5.034c1.12-2.076,1.703-4.296,1.721-6.657c0.019-2.412-0.569-4.656-1.789-6.718
					c-1.217-2.062-2.916-3.688-5.109-4.852c-2.189-1.169-4.677-1.719-7.43-1.638c-2.701,0.081-5.066,0.759-7.083,2.015
					c-2.018,1.255-3.523,2.948-4.517,5.046c-0.994,2.1-1.397,4.398-1.234,6.881c0.172,2.637,0.874,4.952,2.077,6.955
					c1.201,1.996,2.831,3.51,4.884,4.565C259.786,88.254,262.106,88.731,264.732,88.657z"/>
			</g>
			<g>
				<path fill="#F97000" d="M299.321,62.6c-0.656,10.527-0.985,15.801-1.643,26.335c1.704,0.104,2.565,0.157,4.275,0.284
					c-0.13,1.753-0.2,2.628-0.33,4.375c-5.736-0.429-8.6-0.586-14.343-0.777c0.06-1.754,0.087-2.627,0.15-4.382
					c1.849,0.065,2.769,0.104,4.622,0.187c0.496-10.537,0.748-15.81,1.238-26.348c-1.985-0.096-2.979-0.135-4.966-0.204
					c0.058-1.751,0.086-2.628,0.147-4.383c6.527,0.221,9.786,0.402,16.297,0.896c-0.128,1.75-0.193,2.623-0.329,4.373
					C302.396,62.802,301.373,62.727,299.321,62.6z M319.068,64.345c-5.469,4.294-8.137,6.495-13.306,10.976
					c4.442,6.045,6.566,9.105,10.629,15.274c1.581,0.181,2.369,0.272,3.946,0.476c-0.221,1.738-0.332,2.604-0.55,4.342
					c-5.925-0.747-8.889-1.055-14.834-1.553c0.146-1.75,0.224-2.621,0.362-4.371c1.634,0.139,2.449,0.214,4.08,0.364
					c-3.918-5.993-5.965-8.97-10.24-14.851c5.093-4.637,7.723-6.915,13.121-11.37c-1.835-0.179-2.754-0.259-4.592-0.415
					c0.148-1.747,0.221-2.627,0.37-4.373c6.315,0.533,9.479,0.863,15.775,1.65c-0.221,1.741-0.332,2.611-0.549,4.351
					C321.598,64.637,320.754,64.537,319.068,64.345z"/>
			</g>
			<g>
				<path fill="#F97000" d="M354.55,76.678c-0.666,3.133-2.287,5.439-4.808,6.952c-2.521,1.517-6.27,1.792-11.323,0.948
					c-1.976-0.344-2.968-0.508-4.952-0.822c-0.572,3.59-0.864,5.389-1.437,8.98c1.91,0.309,2.866,0.465,4.776,0.799
					c-0.301,1.728-0.45,2.587-0.75,4.316c-5.891-1.025-8.844-1.471-14.763-2.24c0.226-1.743,0.338-2.609,0.563-4.352
					c1.842,0.242,2.762,0.367,4.6,0.632c1.504-10.446,2.259-15.665,3.762-26.112c-1.974-0.281-2.96-0.418-4.936-0.675
					c0.23-1.743,0.333-2.61,0.562-4.348c5.961,0.776,8.945,1.223,14.881,2.232c4.003,0.678,7.114,1.654,9.304,2.86
					c2.197,1.204,3.625,2.687,4.313,4.426C355.025,72.016,355.09,74.155,354.55,76.678z M348.662,75.35
					c0.427-2.154,0.026-3.869-1.222-5.144c-1.246-1.275-3.633-2.243-7.136-2.841c-1.643-0.28-2.466-0.418-4.108-0.681
					c-0.819,5.152-1.233,7.726-2.062,12.878c1.43,0.225,2.145,0.342,3.569,0.588c2.341,0.395,4.247,0.539,5.714,0.409
					c1.474-0.135,2.627-0.609,3.476-1.431C347.734,78.3,348.329,77.043,348.662,75.35z"/>
			</g>
			<g>
				<path fill="#F97000" d="M395.802,94.925c-1.158,3.388-3.014,6.108-5.506,8.21c-2.502,2.1-5.381,3.42-8.645,3.992
					c-3.27,0.568-6.665,0.342-10.253-0.668c-3.537-0.996-6.484-2.586-8.89-4.816c-2.401-2.23-4.085-4.879-5.041-7.965
					c-0.957-3.083-1.078-6.334-0.31-9.746c0.759-3.386,2.273-6.219,4.588-8.476c2.319-2.255,5.186-3.763,8.6-4.485
					c3.403-0.72,7.074-0.547,10.939,0.539c4.025,1.133,7.363,2.959,9.957,5.422c2.596,2.463,4.279,5.295,5.064,8.438
					C397.089,88.516,396.897,91.703,395.802,94.925z M372.88,102.005c2.473,0.697,4.848,0.741,7.158,0.122
					c2.314-0.615,4.322-1.738,6.02-3.385c1.705-1.645,2.936-3.582,3.656-5.836c0.744-2.291,0.846-4.611,0.289-6.948
					c-0.561-2.335-1.709-4.401-3.471-6.179c-1.764-1.774-4-3.047-6.668-3.801c-2.627-0.738-5.104-0.8-7.418-0.208
					c-2.314,0.595-4.265,1.755-5.844,3.461c-1.588,1.71-2.664,3.778-3.253,6.196c-0.624,2.57-0.638,4.987-0.08,7.26
					c0.556,2.265,1.669,4.205,3.32,5.823C368.248,100.133,370.326,101.288,372.88,102.005z"/>
			</g>
			<g>
				<path fill="#F97000" d="M436.612,96.575c0.641-1.404,0.969-2.113,1.615-3.52c1.908,0.877,2.859,1.32,4.754,2.223
					c-1.938,4.07-2.895,6.104-4.822,10.176c-1.889-0.894-2.836-1.338-4.727-2.2c-0.252-2.597-1.18-4.948-2.783-7.032
					c-1.607-2.086-3.707-3.679-6.262-4.746c-2.467-1.033-4.918-1.365-7.309-1.001c-2.393,0.365-4.49,1.306-6.299,2.806
					c-1.807,1.496-3.113,3.355-3.941,5.556c-0.852,2.271-1.092,4.576-0.73,6.906c0.352,2.331,1.25,4.435,2.668,6.317
					c1.416,1.886,3.244,3.295,5.518,4.243c2.789,1.165,5.578,1.446,8.426,0.837c2.838-0.617,5.428-2.111,7.76-4.514
					c1.396,1.697,2.096,2.549,3.469,4.267c-2.904,2.955-6.303,4.694-10.197,5.286c-3.895,0.594-7.816,0.034-11.869-1.652
					c-3.334-1.391-6.006-3.324-8.053-5.857c-2.049-2.524-3.357-5.336-3.914-8.459c-0.555-3.122-0.312-6.23,0.791-9.325
					c1.203-3.349,3.055-6.063,5.617-8.094c2.557-2.033,5.551-3.228,8.967-3.548c3.41-0.328,6.982,0.268,10.658,1.802
					c2.469,1.028,4.588,2.354,6.348,3.96C434.048,92.608,435.491,94.471,436.612,96.575z"/>
			</g>
			<g>
				<path fill="#F97000" d="M477.212,118.213c0.809-1.321,1.215-1.986,2.023-3.309c1.811,1.113,2.732,1.678,4.535,2.814
					c-2.402,3.816-3.605,5.718-6.01,9.53c-1.795-1.128-2.688-1.687-4.49-2.788c0.041-2.617-0.631-5.076-2.008-7.355
					c-1.375-2.279-3.297-4.12-5.74-5.503c-2.367-1.339-4.787-1.969-7.229-1.903c-2.445,0.066-4.66,0.744-6.646,2.014
					c-1.98,1.272-3.504,2.955-4.582,5.043c-1.115,2.153-1.613,4.411-1.52,6.777c0.088,2.365,0.746,4.569,1.955,6.619
					c1.211,2.054,2.889,3.684,5.057,4.914c2.676,1.512,5.447,2.139,8.373,1.881c2.928-0.254,5.691-1.419,8.303-3.52
					c1.227,1.871,1.822,2.808,3.014,4.688c-3.254,2.577-6.861,3.887-10.85,3.984c-3.982,0.102-7.857-0.945-11.734-3.131
					c-3.193-1.797-5.654-4.054-7.414-6.82c-1.771-2.773-2.766-5.732-2.971-8.91c-0.203-3.178,0.398-6.234,1.855-9.176
					c1.584-3.189,3.752-5.664,6.547-7.372c2.803-1.704,5.945-2.526,9.408-2.429c3.455,0.099,6.975,1.135,10.492,3.119
					c2.363,1.336,4.346,2.919,5.928,4.738C475.093,113.937,476.323,115.977,477.212,118.213z"/>
			</g>
		</g>
	</g>
	<text transform="matrix(1 0 0 1 231.7051 121.1216)" fill="#F97000" font-family="'MyriadPro-Bold'" font-size="22.8565">СЕРИЯ</text>
</g>
<text transform="matrix(1 0 0 1 236.334 201.938)" fill="#FFFFFF" stroke="#FFFFFF" stroke-width="2" font-family="'Michroma'" font-size="19.8468">2019</text>
</svg>
